G04 #@! TF.GenerationSoftware,KiCad,Pcbnew,(5.1.5)-3*
G04 #@! TF.CreationDate,2020-07-01T12:58:20+02:00*
G04 #@! TF.ProjectId,PIC18F45K22 Board,50494331-3846-4343-954b-323220426f61,rev?*
G04 #@! TF.SameCoordinates,Original*
G04 #@! TF.FileFunction,Legend,Bot*
G04 #@! TF.FilePolarity,Positive*
%FSLAX46Y46*%
G04 Gerber Fmt 4.6, Leading zero omitted, Abs format (unit mm)*
G04 Created by KiCad (PCBNEW (5.1.5)-3) date 2020-07-01 12:58:20*
%MOMM*%
%LPD*%
G04 APERTURE LIST*
%ADD10C,0.150000*%
%ADD11C,0.010000*%
%ADD12C,0.120000*%
G04 APERTURE END LIST*
D10*
X104758571Y-71572380D02*
X104758571Y-70572380D01*
X104758571Y-71048571D02*
X104187142Y-71048571D01*
X104187142Y-71572380D02*
X104187142Y-70572380D01*
X103806190Y-70572380D02*
X103568095Y-71572380D01*
X103377619Y-70858095D01*
X103187142Y-71572380D01*
X102949047Y-70572380D01*
X101234761Y-71572380D02*
X101568095Y-71096190D01*
X101806190Y-71572380D02*
X101806190Y-70572380D01*
X101425238Y-70572380D01*
X101330000Y-70620000D01*
X101282380Y-70667619D01*
X101234761Y-70762857D01*
X101234761Y-70905714D01*
X101282380Y-71000952D01*
X101330000Y-71048571D01*
X101425238Y-71096190D01*
X101806190Y-71096190D01*
X100806190Y-71048571D02*
X100472857Y-71048571D01*
X100330000Y-71572380D02*
X100806190Y-71572380D01*
X100806190Y-70572380D01*
X100330000Y-70572380D01*
X100044285Y-70572380D02*
X99710952Y-71572380D01*
X99377619Y-70572380D01*
X99044285Y-71477142D02*
X98996666Y-71524761D01*
X99044285Y-71572380D01*
X99091904Y-71524761D01*
X99044285Y-71477142D01*
X99044285Y-71572380D01*
X97282380Y-71572380D02*
X97853809Y-71572380D01*
X97568095Y-71572380D02*
X97568095Y-70572380D01*
X97663333Y-70715238D01*
X97758571Y-70810476D01*
X97853809Y-70858095D01*
X96853809Y-71477142D02*
X96806190Y-71524761D01*
X96853809Y-71572380D01*
X96901428Y-71524761D01*
X96853809Y-71477142D01*
X96853809Y-71572380D01*
X96187142Y-70572380D02*
X96091904Y-70572380D01*
X95996666Y-70620000D01*
X95949047Y-70667619D01*
X95901428Y-70762857D01*
X95853809Y-70953333D01*
X95853809Y-71191428D01*
X95901428Y-71381904D01*
X95949047Y-71477142D01*
X95996666Y-71524761D01*
X96091904Y-71572380D01*
X96187142Y-71572380D01*
X96282380Y-71524761D01*
X96330000Y-71477142D01*
X96377619Y-71381904D01*
X96425238Y-71191428D01*
X96425238Y-70953333D01*
X96377619Y-70762857D01*
X96330000Y-70667619D01*
X96282380Y-70620000D01*
X96187142Y-70572380D01*
X115044285Y-147772380D02*
X115044285Y-146772380D01*
X114806190Y-146772380D01*
X114663333Y-146820000D01*
X114568095Y-146915238D01*
X114520476Y-147010476D01*
X114472857Y-147200952D01*
X114472857Y-147343809D01*
X114520476Y-147534285D01*
X114568095Y-147629523D01*
X114663333Y-147724761D01*
X114806190Y-147772380D01*
X115044285Y-147772380D01*
X114044285Y-147248571D02*
X113710952Y-147248571D01*
X113568095Y-147772380D02*
X114044285Y-147772380D01*
X114044285Y-146772380D01*
X113568095Y-146772380D01*
X113187142Y-147724761D02*
X113044285Y-147772380D01*
X112806190Y-147772380D01*
X112710952Y-147724761D01*
X112663333Y-147677142D01*
X112615714Y-147581904D01*
X112615714Y-147486666D01*
X112663333Y-147391428D01*
X112710952Y-147343809D01*
X112806190Y-147296190D01*
X112996666Y-147248571D01*
X113091904Y-147200952D01*
X113139523Y-147153333D01*
X113187142Y-147058095D01*
X113187142Y-146962857D01*
X113139523Y-146867619D01*
X113091904Y-146820000D01*
X112996666Y-146772380D01*
X112758571Y-146772380D01*
X112615714Y-146820000D01*
X112187142Y-147772380D02*
X112187142Y-146772380D01*
X111187142Y-146820000D02*
X111282380Y-146772380D01*
X111425238Y-146772380D01*
X111568095Y-146820000D01*
X111663333Y-146915238D01*
X111710952Y-147010476D01*
X111758571Y-147200952D01*
X111758571Y-147343809D01*
X111710952Y-147534285D01*
X111663333Y-147629523D01*
X111568095Y-147724761D01*
X111425238Y-147772380D01*
X111330000Y-147772380D01*
X111187142Y-147724761D01*
X111139523Y-147677142D01*
X111139523Y-147343809D01*
X111330000Y-147343809D01*
X110710952Y-147772380D02*
X110710952Y-146772380D01*
X110139523Y-147772380D01*
X110139523Y-146772380D01*
X109663333Y-147248571D02*
X109330000Y-147248571D01*
X109187142Y-147772380D02*
X109663333Y-147772380D01*
X109663333Y-146772380D01*
X109187142Y-146772380D01*
X108758571Y-147772380D02*
X108758571Y-146772380D01*
X108520476Y-146772380D01*
X108377619Y-146820000D01*
X108282380Y-146915238D01*
X108234761Y-147010476D01*
X108187142Y-147200952D01*
X108187142Y-147343809D01*
X108234761Y-147534285D01*
X108282380Y-147629523D01*
X108377619Y-147724761D01*
X108520476Y-147772380D01*
X108758571Y-147772380D01*
X106663333Y-147248571D02*
X106520476Y-147296190D01*
X106472857Y-147343809D01*
X106425238Y-147439047D01*
X106425238Y-147581904D01*
X106472857Y-147677142D01*
X106520476Y-147724761D01*
X106615714Y-147772380D01*
X106996666Y-147772380D01*
X106996666Y-146772380D01*
X106663333Y-146772380D01*
X106568095Y-146820000D01*
X106520476Y-146867619D01*
X106472857Y-146962857D01*
X106472857Y-147058095D01*
X106520476Y-147153333D01*
X106568095Y-147200952D01*
X106663333Y-147248571D01*
X106996666Y-147248571D01*
X105806190Y-147296190D02*
X105806190Y-147772380D01*
X106139523Y-146772380D02*
X105806190Y-147296190D01*
X105472857Y-146772380D01*
X105139523Y-147677142D02*
X105091904Y-147724761D01*
X105139523Y-147772380D01*
X105187142Y-147724761D01*
X105139523Y-147677142D01*
X105139523Y-147772380D01*
X105139523Y-147153333D02*
X105091904Y-147200952D01*
X105139523Y-147248571D01*
X105187142Y-147200952D01*
X105139523Y-147153333D01*
X105139523Y-147248571D01*
X103901428Y-147772380D02*
X103901428Y-146772380D01*
X103568095Y-147486666D01*
X103234761Y-146772380D01*
X103234761Y-147772380D01*
X102806190Y-147486666D02*
X102330000Y-147486666D01*
X102901428Y-147772380D02*
X102568095Y-146772380D01*
X102234761Y-147772380D01*
X101330000Y-147772380D02*
X101663333Y-147296190D01*
X101901428Y-147772380D02*
X101901428Y-146772380D01*
X101520476Y-146772380D01*
X101425238Y-146820000D01*
X101377619Y-146867619D01*
X101330000Y-146962857D01*
X101330000Y-147105714D01*
X101377619Y-147200952D01*
X101425238Y-147248571D01*
X101520476Y-147296190D01*
X101901428Y-147296190D01*
X100901428Y-147772380D02*
X100901428Y-146772380D01*
X100234761Y-146772380D02*
X100044285Y-146772380D01*
X99949047Y-146820000D01*
X99853809Y-146915238D01*
X99806190Y-147105714D01*
X99806190Y-147439047D01*
X99853809Y-147629523D01*
X99949047Y-147724761D01*
X100044285Y-147772380D01*
X100234761Y-147772380D01*
X100330000Y-147724761D01*
X100425238Y-147629523D01*
X100472857Y-147439047D01*
X100472857Y-147105714D01*
X100425238Y-146915238D01*
X100330000Y-146820000D01*
X100234761Y-146772380D01*
X98425238Y-146772380D02*
X98234761Y-146772380D01*
X98139523Y-146820000D01*
X98044285Y-146915238D01*
X97996666Y-147105714D01*
X97996666Y-147439047D01*
X98044285Y-147629523D01*
X98139523Y-147724761D01*
X98234761Y-147772380D01*
X98425238Y-147772380D01*
X98520476Y-147724761D01*
X98615714Y-147629523D01*
X98663333Y-147439047D01*
X98663333Y-147105714D01*
X98615714Y-146915238D01*
X98520476Y-146820000D01*
X98425238Y-146772380D01*
X97091904Y-147772380D02*
X97568095Y-147772380D01*
X97568095Y-146772380D01*
X96187142Y-147772380D02*
X96520476Y-147296190D01*
X96758571Y-147772380D02*
X96758571Y-146772380D01*
X96377619Y-146772380D01*
X96282380Y-146820000D01*
X96234761Y-146867619D01*
X96187142Y-146962857D01*
X96187142Y-147105714D01*
X96234761Y-147200952D01*
X96282380Y-147248571D01*
X96377619Y-147296190D01*
X96758571Y-147296190D01*
X95901428Y-146772380D02*
X95330000Y-146772380D01*
X95615714Y-147772380D02*
X95615714Y-146772380D01*
X94996666Y-147772380D02*
X94996666Y-146772380D01*
X93949047Y-147677142D02*
X93996666Y-147724761D01*
X94139523Y-147772380D01*
X94234761Y-147772380D01*
X94377619Y-147724761D01*
X94472857Y-147629523D01*
X94520476Y-147534285D01*
X94568095Y-147343809D01*
X94568095Y-147200952D01*
X94520476Y-147010476D01*
X94472857Y-146915238D01*
X94377619Y-146820000D01*
X94234761Y-146772380D01*
X94139523Y-146772380D01*
X93996666Y-146820000D01*
X93949047Y-146867619D01*
X94091904Y-146391428D02*
X94234761Y-146534285D01*
X93472857Y-147724761D02*
X93472857Y-147772380D01*
X93520476Y-147867619D01*
X93568095Y-147915238D01*
X92282380Y-147772380D02*
X92282380Y-147105714D01*
X92282380Y-147200952D02*
X92234761Y-147153333D01*
X92139523Y-147105714D01*
X91996666Y-147105714D01*
X91901428Y-147153333D01*
X91853809Y-147248571D01*
X91853809Y-147772380D01*
X91853809Y-147248571D02*
X91806190Y-147153333D01*
X91710952Y-147105714D01*
X91568095Y-147105714D01*
X91472857Y-147153333D01*
X91425238Y-147248571D01*
X91425238Y-147772380D01*
X90520476Y-147772380D02*
X90520476Y-147248571D01*
X90568095Y-147153333D01*
X90663333Y-147105714D01*
X90853809Y-147105714D01*
X90949047Y-147153333D01*
X90520476Y-147724761D02*
X90615714Y-147772380D01*
X90853809Y-147772380D01*
X90949047Y-147724761D01*
X90996666Y-147629523D01*
X90996666Y-147534285D01*
X90949047Y-147439047D01*
X90853809Y-147391428D01*
X90615714Y-147391428D01*
X90520476Y-147343809D01*
X89615714Y-147105714D02*
X89615714Y-147915238D01*
X89663333Y-148010476D01*
X89710952Y-148058095D01*
X89806190Y-148105714D01*
X89949047Y-148105714D01*
X90044285Y-148058095D01*
X89615714Y-147724761D02*
X89710952Y-147772380D01*
X89901428Y-147772380D01*
X89996666Y-147724761D01*
X90044285Y-147677142D01*
X90091904Y-147581904D01*
X90091904Y-147296190D01*
X90044285Y-147200952D01*
X89996666Y-147153333D01*
X89901428Y-147105714D01*
X89710952Y-147105714D01*
X89615714Y-147153333D01*
X89139523Y-147677142D02*
X89091904Y-147724761D01*
X89139523Y-147772380D01*
X89187142Y-147724761D01*
X89139523Y-147677142D01*
X89139523Y-147772380D01*
X87901428Y-147772380D02*
X87901428Y-147105714D01*
X87901428Y-146772380D02*
X87949047Y-146820000D01*
X87901428Y-146867619D01*
X87853809Y-146820000D01*
X87901428Y-146772380D01*
X87901428Y-146867619D01*
X87425238Y-147105714D02*
X87425238Y-147772380D01*
X87425238Y-147200952D02*
X87377619Y-147153333D01*
X87282380Y-147105714D01*
X87139523Y-147105714D01*
X87044285Y-147153333D01*
X86996666Y-147248571D01*
X86996666Y-147772380D01*
X86091904Y-147105714D02*
X86091904Y-147915238D01*
X86139523Y-148010476D01*
X86187142Y-148058095D01*
X86282380Y-148105714D01*
X86425238Y-148105714D01*
X86520476Y-148058095D01*
X86091904Y-147724761D02*
X86187142Y-147772380D01*
X86377619Y-147772380D01*
X86472857Y-147724761D01*
X86520476Y-147677142D01*
X86568095Y-147581904D01*
X86568095Y-147296190D01*
X86520476Y-147200952D01*
X86472857Y-147153333D01*
X86377619Y-147105714D01*
X86187142Y-147105714D01*
X86091904Y-147153333D01*
X85615714Y-147677142D02*
X85568095Y-147724761D01*
X85615714Y-147772380D01*
X85663333Y-147724761D01*
X85615714Y-147677142D01*
X85615714Y-147772380D01*
D11*
G36*
X70921994Y-121243049D02*
G01*
X70859125Y-121246204D01*
X70843241Y-121247154D01*
X70770709Y-121252454D01*
X70719652Y-121258534D01*
X70686143Y-121266062D01*
X70666260Y-121275710D01*
X70663768Y-121277773D01*
X70635574Y-121295543D01*
X70598144Y-121310541D01*
X70594453Y-121311605D01*
X70564744Y-121322580D01*
X70549175Y-121333739D01*
X70548501Y-121335907D01*
X70537433Y-121345944D01*
X70509562Y-121357569D01*
X70495073Y-121361907D01*
X70441766Y-121386896D01*
X70393105Y-121431438D01*
X70357172Y-121468090D01*
X70319063Y-121500735D01*
X70300483Y-121513827D01*
X70272703Y-121534478D01*
X70257422Y-121552605D01*
X70256400Y-121556545D01*
X70248187Y-121578847D01*
X70242420Y-121586000D01*
X70229588Y-121605609D01*
X70210881Y-121642149D01*
X70189160Y-121689001D01*
X70167288Y-121739551D01*
X70148129Y-121787182D01*
X70134546Y-121825277D01*
X70129400Y-121847193D01*
X70123446Y-121877801D01*
X70115661Y-121896542D01*
X70108355Y-121927985D01*
X70109227Y-121973995D01*
X70110503Y-121984607D01*
X70117826Y-122023214D01*
X70127938Y-122042114D01*
X70143292Y-122047000D01*
X70163337Y-122049691D01*
X70163789Y-122060307D01*
X70144528Y-122082659D01*
X70142101Y-122085100D01*
X70128274Y-122103755D01*
X70120449Y-122129699D01*
X70117138Y-122169866D01*
X70116700Y-122203633D01*
X70117918Y-122250278D01*
X70121129Y-122286647D01*
X70125669Y-122305576D01*
X70126225Y-122306291D01*
X70134305Y-122325095D01*
X70138399Y-122349683D01*
X70145161Y-122427076D01*
X70151838Y-122482056D01*
X70159029Y-122517601D01*
X70167335Y-122536690D01*
X70177210Y-122542299D01*
X70187082Y-122546163D01*
X70191859Y-122561070D01*
X70192204Y-122591992D01*
X70189527Y-122634374D01*
X70184891Y-122691095D01*
X70180250Y-122729251D01*
X70173847Y-122755618D01*
X70163924Y-122776970D01*
X70148725Y-122800083D01*
X70145275Y-122804977D01*
X70123350Y-122840907D01*
X70119510Y-122867705D01*
X70134273Y-122894587D01*
X70151402Y-122913681D01*
X70172540Y-122938992D01*
X70175547Y-122953978D01*
X70169047Y-122960444D01*
X70143353Y-122966193D01*
X70126138Y-122964226D01*
X70107774Y-122962996D01*
X70104942Y-122977612D01*
X70106861Y-122988008D01*
X70115789Y-123021206D01*
X70122336Y-123039627D01*
X70121711Y-123059980D01*
X70108094Y-123068183D01*
X70086794Y-123082944D01*
X70061558Y-123110797D01*
X70053765Y-123121551D01*
X70024609Y-123155524D01*
X69984790Y-123191334D01*
X69961712Y-123208431D01*
X69934444Y-123229561D01*
X69892855Y-123265301D01*
X69840617Y-123312327D01*
X69781399Y-123367318D01*
X69718871Y-123426953D01*
X69698893Y-123446346D01*
X69632774Y-123511103D01*
X69582809Y-123561008D01*
X69546764Y-123598732D01*
X69522407Y-123626946D01*
X69507503Y-123648322D01*
X69499819Y-123665531D01*
X69497123Y-123681245D01*
X69496940Y-123687926D01*
X69487494Y-123737727D01*
X69462550Y-123784558D01*
X69427203Y-123822772D01*
X69386548Y-123846723D01*
X69349452Y-123851392D01*
X69320706Y-123841935D01*
X69286499Y-123823406D01*
X69254605Y-123801051D01*
X69232800Y-123780116D01*
X69227700Y-123769245D01*
X69236653Y-123747133D01*
X69246750Y-123736099D01*
X69261028Y-123715415D01*
X69265436Y-123691627D01*
X69259126Y-123675011D01*
X69252002Y-123672600D01*
X69234628Y-123665666D01*
X69204826Y-123647860D01*
X69182152Y-123632347D01*
X69148932Y-123606281D01*
X69132186Y-123584468D01*
X69126497Y-123558277D01*
X69126101Y-123543039D01*
X69131420Y-123496228D01*
X69144285Y-123450492D01*
X69144935Y-123448906D01*
X69160453Y-123400615D01*
X69175726Y-123332959D01*
X69189710Y-123251960D01*
X69201362Y-123163642D01*
X69209485Y-123076205D01*
X69215442Y-123010189D01*
X69223433Y-122962821D01*
X69235365Y-122927351D01*
X69253147Y-122897028D01*
X69264257Y-122882397D01*
X69271143Y-122868604D01*
X69275335Y-122845329D01*
X69276996Y-122808688D01*
X69276288Y-122754801D01*
X69273374Y-122679784D01*
X69273055Y-122672847D01*
X69269210Y-122605866D01*
X69264485Y-122547758D01*
X69259379Y-122503330D01*
X69254387Y-122477387D01*
X69252374Y-122473085D01*
X69243818Y-122452654D01*
X69240400Y-122421943D01*
X69229499Y-122379879D01*
X69202057Y-122333809D01*
X69111586Y-122333809D01*
X69108298Y-122349176D01*
X69100700Y-122351800D01*
X69088727Y-122341872D01*
X69088000Y-122336925D01*
X69080150Y-122316487D01*
X69067853Y-122299787D01*
X69054747Y-122283429D01*
X69060162Y-122279665D01*
X69070127Y-122280816D01*
X69088943Y-122291369D01*
X69103949Y-122311786D01*
X69111586Y-122333809D01*
X69202057Y-122333809D01*
X69196878Y-122325116D01*
X69188281Y-122313358D01*
X69156344Y-122273836D01*
X69130021Y-122250715D01*
X69102063Y-122238488D01*
X69084642Y-122234639D01*
X69039324Y-122220793D01*
X68994256Y-122198599D01*
X68987536Y-122194248D01*
X68944917Y-122171522D01*
X68898682Y-122155722D01*
X68891150Y-122154177D01*
X68854106Y-122145053D01*
X68826374Y-122133658D01*
X68822532Y-122131069D01*
X68799035Y-122122953D01*
X68756327Y-122117530D01*
X68700447Y-122114743D01*
X68637435Y-122114539D01*
X68573330Y-122116863D01*
X68514174Y-122121661D01*
X68466004Y-122128878D01*
X68444509Y-122134475D01*
X68347163Y-122180086D01*
X68260680Y-122245620D01*
X68214043Y-122296051D01*
X68182752Y-122333708D01*
X68153312Y-122366456D01*
X68137042Y-122382614D01*
X68119622Y-122404176D01*
X68123640Y-122415818D01*
X68130507Y-122429071D01*
X68130052Y-122458576D01*
X68122755Y-122505653D01*
X68114081Y-122556386D01*
X68107123Y-122604071D01*
X68104067Y-122631200D01*
X68097595Y-122689098D01*
X68088686Y-122742023D01*
X68078816Y-122782074D01*
X68073229Y-122796300D01*
X68068408Y-122822603D01*
X68069641Y-122864507D01*
X68075709Y-122913275D01*
X68085395Y-122960171D01*
X68097482Y-122996459D01*
X68102383Y-123005545D01*
X68117272Y-123032890D01*
X68122801Y-123051265D01*
X68130522Y-123067737D01*
X68150292Y-123096559D01*
X68177021Y-123131334D01*
X68205618Y-123165667D01*
X68230993Y-123193162D01*
X68246288Y-123206418D01*
X68268747Y-123232629D01*
X68287600Y-123275843D01*
X68300767Y-123327711D01*
X68306172Y-123379883D01*
X68301735Y-123424009D01*
X68301044Y-123426441D01*
X68293304Y-123447063D01*
X68289112Y-123448313D01*
X68288992Y-123447175D01*
X68279022Y-123432005D01*
X68256259Y-123431524D01*
X68226610Y-123443229D01*
X68195982Y-123464617D01*
X68170280Y-123493185D01*
X68166537Y-123499057D01*
X68153842Y-123526589D01*
X68146827Y-123560683D01*
X68144418Y-123608561D01*
X68144715Y-123645849D01*
X68141861Y-123728844D01*
X68127736Y-123792152D01*
X68099677Y-123839981D01*
X68055016Y-123876542D01*
X67991089Y-123906047D01*
X67976750Y-123911132D01*
X67932547Y-123927471D01*
X67874000Y-123950762D01*
X67809890Y-123977451D01*
X67767200Y-123995903D01*
X67700090Y-124025703D01*
X67646815Y-124050222D01*
X67597816Y-124074070D01*
X67543531Y-124101853D01*
X67499520Y-124124924D01*
X67466709Y-124148174D01*
X67422364Y-124188066D01*
X67369942Y-124240739D01*
X67312902Y-124302333D01*
X67254701Y-124368987D01*
X67198800Y-124436841D01*
X67148654Y-124502033D01*
X67107724Y-124560703D01*
X67104059Y-124566395D01*
X67091914Y-124589416D01*
X67076163Y-124624070D01*
X67060409Y-124661739D01*
X67048254Y-124693802D01*
X67043302Y-124711641D01*
X67043300Y-124711748D01*
X67034572Y-124728832D01*
X67023704Y-124739853D01*
X67004622Y-124764369D01*
X66981630Y-124806783D01*
X66957727Y-124860550D01*
X66935910Y-124919125D01*
X66924084Y-124957334D01*
X66911778Y-124998545D01*
X66893904Y-125055047D01*
X66873247Y-125118144D01*
X66859672Y-125158500D01*
X66834688Y-125232232D01*
X66816449Y-125287392D01*
X66803362Y-125329403D01*
X66793838Y-125363686D01*
X66786288Y-125395662D01*
X66779120Y-125430755D01*
X66777733Y-125437900D01*
X66767541Y-125502065D01*
X66757873Y-125583350D01*
X66749448Y-125673474D01*
X66742984Y-125764156D01*
X66739198Y-125847117D01*
X66738511Y-125890310D01*
X66730941Y-125985770D01*
X66706626Y-126067652D01*
X66663126Y-126143365D01*
X66649015Y-126162138D01*
X66625162Y-126200698D01*
X66602791Y-126250089D01*
X66592940Y-126278888D01*
X66580745Y-126365284D01*
X66591305Y-126460216D01*
X66624340Y-126561518D01*
X66631660Y-126578101D01*
X66650183Y-126627005D01*
X66659658Y-126677455D01*
X66662300Y-126740657D01*
X66665718Y-126810083D01*
X66678055Y-126861585D01*
X66702445Y-126901968D01*
X66742016Y-126938038D01*
X66758526Y-126949871D01*
X66805546Y-126988951D01*
X66841714Y-127032045D01*
X66862377Y-127072988D01*
X66865453Y-127091644D01*
X66860203Y-127117074D01*
X66847220Y-127151566D01*
X66844307Y-127157881D01*
X66833265Y-127183934D01*
X66829681Y-127206405D01*
X66833736Y-127234302D01*
X66845615Y-127276632D01*
X66846797Y-127280544D01*
X66866299Y-127336497D01*
X66885832Y-127371302D01*
X66908590Y-127389013D01*
X66935961Y-127393700D01*
X66959329Y-127400153D01*
X66979391Y-127423001D01*
X66992204Y-127446885D01*
X67008045Y-127486422D01*
X67017089Y-127522073D01*
X67017900Y-127531606D01*
X67025249Y-127568329D01*
X67044419Y-127616556D01*
X67071101Y-127668175D01*
X67100982Y-127715071D01*
X67129753Y-127749131D01*
X67136558Y-127754913D01*
X67175217Y-127776584D01*
X67216476Y-127789061D01*
X67220768Y-127789582D01*
X67252054Y-127796181D01*
X67269208Y-127813634D01*
X67278526Y-127838200D01*
X67305725Y-127910383D01*
X67341400Y-127970185D01*
X67375696Y-128012074D01*
X67403516Y-128047073D01*
X67423401Y-128079464D01*
X67429188Y-128094624D01*
X67431025Y-128114187D01*
X67433528Y-128155838D01*
X67436547Y-128216278D01*
X67439930Y-128292207D01*
X67443527Y-128380326D01*
X67447188Y-128477337D01*
X67449073Y-128530350D01*
X67453083Y-128639465D01*
X67457507Y-128749224D01*
X67462119Y-128854675D01*
X67466688Y-128950868D01*
X67470989Y-129032854D01*
X67474792Y-129095682D01*
X67475667Y-129108200D01*
X67481060Y-129185387D01*
X67487175Y-129277676D01*
X67493351Y-129374805D01*
X67498926Y-129466516D01*
X67500252Y-129489200D01*
X67505601Y-129578493D01*
X67511785Y-129676798D01*
X67518123Y-129773554D01*
X67523933Y-129858199D01*
X67525246Y-129876550D01*
X67533117Y-129986784D01*
X67541769Y-130110462D01*
X67550832Y-130242116D01*
X67559938Y-130376274D01*
X67568718Y-130507467D01*
X67576805Y-130630224D01*
X67583830Y-130739075D01*
X67589424Y-130828550D01*
X67589840Y-130835400D01*
X67594755Y-130905209D01*
X67600521Y-130969522D01*
X67606513Y-131022328D01*
X67612105Y-131057616D01*
X67613643Y-131064000D01*
X67619228Y-131094367D01*
X67624819Y-131143118D01*
X67629726Y-131203247D01*
X67632971Y-131260850D01*
X67638162Y-131337112D01*
X67646370Y-131408788D01*
X67656537Y-131467549D01*
X67662014Y-131489450D01*
X67678493Y-131576414D01*
X67683455Y-131685387D01*
X67683448Y-131686300D01*
X67682572Y-131747958D01*
X67680817Y-131826852D01*
X67678316Y-131919393D01*
X67675204Y-132021996D01*
X67671613Y-132131073D01*
X67667676Y-132243038D01*
X67663528Y-132354302D01*
X67659300Y-132461281D01*
X67655128Y-132560386D01*
X67651142Y-132648031D01*
X67647478Y-132720629D01*
X67644268Y-132774593D01*
X67641917Y-132803900D01*
X67638175Y-132883556D01*
X67641904Y-132965642D01*
X67644901Y-132991164D01*
X67651580Y-133071704D01*
X67646070Y-133139987D01*
X67644165Y-133149914D01*
X67637013Y-133196503D01*
X67639203Y-133228783D01*
X67646750Y-133248537D01*
X67666852Y-133275261D01*
X67701951Y-133310609D01*
X67745921Y-133349098D01*
X67792638Y-133385246D01*
X67821075Y-133404573D01*
X67845192Y-133425271D01*
X67853874Y-133452427D01*
X67854087Y-133474052D01*
X67855988Y-133528835D01*
X67867504Y-133561911D01*
X67889744Y-133575508D01*
X67904686Y-133575755D01*
X67927877Y-133576362D01*
X67938585Y-133589332D01*
X67942846Y-133616416D01*
X67944712Y-133645000D01*
X67940308Y-133652157D01*
X67926193Y-133641701D01*
X67922796Y-133638641D01*
X67901424Y-133622036D01*
X67889865Y-133616700D01*
X67878555Y-133627887D01*
X67863172Y-133657133D01*
X67846224Y-133697963D01*
X67830222Y-133743903D01*
X67817672Y-133788478D01*
X67811934Y-133817841D01*
X67808551Y-133859250D01*
X67813149Y-133894376D01*
X67827874Y-133934807D01*
X67837513Y-133955983D01*
X67866894Y-134007349D01*
X67904736Y-134059176D01*
X67928088Y-134085216D01*
X67984189Y-134140983D01*
X68082070Y-134133605D01*
X68133892Y-134128640D01*
X68166621Y-134122019D01*
X68186562Y-134111801D01*
X68199000Y-134097604D01*
X68220408Y-134070626D01*
X68236429Y-134055565D01*
X68253342Y-134040776D01*
X68282690Y-134012829D01*
X68319206Y-133976785D01*
X68334340Y-133961537D01*
X68388774Y-133901892D01*
X68437004Y-133838240D01*
X68454982Y-133809553D01*
X68048363Y-133809553D01*
X68047115Y-133829124D01*
X68022746Y-133856640D01*
X68017870Y-133860833D01*
X67973281Y-133889105D01*
X67933457Y-133893573D01*
X67899803Y-133877957D01*
X67883176Y-133863704D01*
X67887029Y-133855677D01*
X67897303Y-133851226D01*
X67913215Y-133839378D01*
X67907439Y-133827979D01*
X67883471Y-133820776D01*
X67868051Y-133819900D01*
X67839180Y-133813018D01*
X67830922Y-133792127D01*
X67843243Y-133756857D01*
X67859781Y-133729703D01*
X67888443Y-133696719D01*
X67913070Y-133688396D01*
X67933175Y-133704824D01*
X67938487Y-133715125D01*
X67953939Y-133737096D01*
X67967062Y-133743700D01*
X67980952Y-133749593D01*
X67981597Y-133753225D01*
X67981038Y-133772899D01*
X67981597Y-133786530D01*
X67985964Y-133802566D01*
X67999719Y-133796478D01*
X68002150Y-133794500D01*
X68018269Y-133773274D01*
X68021200Y-133761944D01*
X68030727Y-133740343D01*
X68035742Y-133736211D01*
X68045281Y-133737460D01*
X68044010Y-133760041D01*
X68043014Y-133791127D01*
X68048363Y-133809553D01*
X68454982Y-133809553D01*
X68483565Y-133763946D01*
X68532993Y-133672379D01*
X68535550Y-133667368D01*
X68577767Y-133601559D01*
X68631426Y-133551543D01*
X68635188Y-133548835D01*
X68673876Y-133517459D01*
X68706921Y-133483980D01*
X68720826Y-133465502D01*
X68749325Y-133432712D01*
X68786254Y-133406234D01*
X68789464Y-133404633D01*
X68820196Y-133385715D01*
X68832608Y-133363418D01*
X68834000Y-133346812D01*
X68829200Y-133310077D01*
X68820311Y-133284650D01*
X68812987Y-133259581D01*
X68806694Y-133217901D01*
X68802741Y-133168397D01*
X68802627Y-133165833D01*
X68799687Y-133118639D01*
X68795665Y-133081212D01*
X68791380Y-133060985D01*
X68790961Y-133060182D01*
X68784699Y-133040615D01*
X68778292Y-133006639D01*
X68776487Y-132993622D01*
X68760793Y-132901440D01*
X68735929Y-132811447D01*
X68715269Y-132753025D01*
X68688876Y-132676237D01*
X68673247Y-132610902D01*
X68666499Y-132546448D01*
X68666506Y-132479133D01*
X68664371Y-132406305D01*
X68653124Y-132350817D01*
X68650259Y-132343285D01*
X68639203Y-132301285D01*
X68633774Y-132247794D01*
X68633959Y-132191963D01*
X68639743Y-132142942D01*
X68650605Y-132110695D01*
X68664999Y-132077775D01*
X68673047Y-132047195D01*
X68681474Y-132011736D01*
X68694847Y-131968036D01*
X68699622Y-131954357D01*
X68712453Y-131904539D01*
X68718810Y-131851233D01*
X68718970Y-131840057D01*
X68718601Y-131731489D01*
X68720724Y-131631509D01*
X68725111Y-131543306D01*
X68731533Y-131470070D01*
X68739759Y-131414991D01*
X68749560Y-131381259D01*
X68752342Y-131376372D01*
X68763581Y-131346083D01*
X68769743Y-131298445D01*
X68770500Y-131272275D01*
X68773438Y-131222009D01*
X68781003Y-131175199D01*
X68788091Y-131151275D01*
X68798480Y-131107437D01*
X68802570Y-131041126D01*
X68801983Y-130987800D01*
X68802861Y-130896425D01*
X68811860Y-130828632D01*
X68816812Y-130810755D01*
X68826951Y-130768839D01*
X68835573Y-130713631D01*
X68840719Y-130658355D01*
X68844728Y-130599340D01*
X68850578Y-130528225D01*
X68857169Y-130458142D01*
X68858869Y-130441700D01*
X68865764Y-130371880D01*
X68872529Y-130295562D01*
X68877912Y-130227034D01*
X68878789Y-130214379D01*
X68883615Y-130161974D01*
X68890109Y-130117191D01*
X68897073Y-130087810D01*
X68898959Y-130083374D01*
X68903238Y-130063412D01*
X68907331Y-130022453D01*
X68910963Y-129964899D01*
X68913857Y-129895153D01*
X68915737Y-129817617D01*
X68915772Y-129815395D01*
X68919339Y-129690569D01*
X68925890Y-129589822D01*
X68935605Y-129511987D01*
X68948661Y-129455900D01*
X68965239Y-129420393D01*
X68978452Y-129407509D01*
X68999167Y-129401732D01*
X69017878Y-129416825D01*
X69019832Y-129419350D01*
X69029672Y-129438115D01*
X69033601Y-129464612D01*
X69032108Y-129505455D01*
X69028771Y-129540000D01*
X69022280Y-129631709D01*
X69022514Y-129718434D01*
X69029260Y-129792798D01*
X69037249Y-129831794D01*
X69042699Y-129862163D01*
X69048193Y-129910919D01*
X69053053Y-129971061D01*
X69056311Y-130028809D01*
X69059637Y-130098663D01*
X69063853Y-130179702D01*
X69068676Y-130267193D01*
X69073822Y-130356403D01*
X69079009Y-130442599D01*
X69083953Y-130521046D01*
X69088371Y-130587012D01*
X69091980Y-130635764D01*
X69093923Y-130657600D01*
X69105746Y-130756109D01*
X69118859Y-130839686D01*
X69132625Y-130904775D01*
X69145639Y-130946039D01*
X69157688Y-130985495D01*
X69167619Y-131037144D01*
X69172028Y-131075509D01*
X69177015Y-131121658D01*
X69183840Y-131159753D01*
X69189897Y-131178853D01*
X69194947Y-131200564D01*
X69198887Y-131240915D01*
X69201184Y-131293153D01*
X69201552Y-131326093D01*
X69203276Y-131395550D01*
X69207959Y-131470044D01*
X69214700Y-131536375D01*
X69217026Y-131552950D01*
X69222655Y-131605030D01*
X69226817Y-131674406D01*
X69229177Y-131752997D01*
X69229397Y-131832724D01*
X69229211Y-131845050D01*
X69228678Y-131920025D01*
X69230207Y-131990216D01*
X69234260Y-132060585D01*
X69241299Y-132136089D01*
X69251785Y-132221691D01*
X69266181Y-132322349D01*
X69284776Y-132441950D01*
X69296960Y-132529771D01*
X69302484Y-132597825D01*
X69301309Y-132644632D01*
X69293391Y-132668714D01*
X69291201Y-132670550D01*
X69282099Y-132687694D01*
X69278500Y-132716255D01*
X69272608Y-132752139D01*
X69257996Y-132793680D01*
X69253477Y-132803162D01*
X69245956Y-132819856D01*
X69239277Y-132840081D01*
X69233139Y-132866337D01*
X69227242Y-132901124D01*
X69221286Y-132946942D01*
X69214970Y-133006291D01*
X69207996Y-133081672D01*
X69200062Y-133175584D01*
X69190870Y-133290526D01*
X69183273Y-133388100D01*
X69176122Y-133471460D01*
X69167773Y-133554146D01*
X69158978Y-133629590D01*
X69150488Y-133691222D01*
X69144731Y-133724650D01*
X69133761Y-133786556D01*
X69124975Y-133853578D01*
X69118207Y-133928930D01*
X69113287Y-134015825D01*
X69110048Y-134117476D01*
X69108322Y-134237097D01*
X69107940Y-134377901D01*
X69108065Y-134425445D01*
X69108624Y-134530425D01*
X69109560Y-134613011D01*
X69111052Y-134676207D01*
X69113276Y-134723018D01*
X69116409Y-134756449D01*
X69120627Y-134779503D01*
X69126109Y-134795187D01*
X69130272Y-134802607D01*
X69142349Y-134829076D01*
X69138659Y-134842337D01*
X69128442Y-134861382D01*
X69126938Y-134892750D01*
X69133763Y-134925051D01*
X69141975Y-134940507D01*
X69163879Y-134956596D01*
X69198968Y-134971438D01*
X69210346Y-134974775D01*
X69258875Y-134993317D01*
X69284415Y-135018670D01*
X69288939Y-135052953D01*
X69288070Y-135058267D01*
X69286448Y-135075640D01*
X69292163Y-135087532D01*
X69309271Y-135095377D01*
X69341833Y-135100607D01*
X69393907Y-135104656D01*
X69424550Y-135106462D01*
X69495533Y-135106269D01*
X69543215Y-135096356D01*
X69548375Y-135094019D01*
X69576407Y-135083595D01*
X69601415Y-135087059D01*
X69622513Y-135096825D01*
X69648493Y-135118153D01*
X69673743Y-135151232D01*
X69694025Y-135188383D01*
X69705099Y-135221927D01*
X69703351Y-135243270D01*
X69699815Y-135264110D01*
X69702540Y-135296337D01*
X69702890Y-135298263D01*
X69723325Y-135339191D01*
X69768402Y-135377632D01*
X69837459Y-135413281D01*
X69929831Y-135445831D01*
X70044855Y-135474975D01*
X70116700Y-135489290D01*
X70268285Y-135516199D01*
X70415076Y-135540617D01*
X70550796Y-135561545D01*
X70669167Y-135577980D01*
X70688200Y-135580391D01*
X70757764Y-135589883D01*
X70828670Y-135600958D01*
X70890976Y-135611997D01*
X70923150Y-135618612D01*
X70981257Y-135630007D01*
X71050350Y-135641098D01*
X71116095Y-135649597D01*
X71120000Y-135650014D01*
X71184953Y-135657203D01*
X71254212Y-135665425D01*
X71313481Y-135672979D01*
X71316850Y-135673434D01*
X71391549Y-135680572D01*
X71476137Y-135683856D01*
X71562626Y-135683395D01*
X71643024Y-135679298D01*
X71709343Y-135671674D01*
X71729600Y-135667783D01*
X71822964Y-135644624D01*
X71896390Y-135621115D01*
X71955285Y-135595251D01*
X72002852Y-135566572D01*
X72045047Y-135538399D01*
X72085739Y-135513038D01*
X72106436Y-135501229D01*
X72141648Y-135469363D01*
X72160156Y-135423786D01*
X72161275Y-135370496D01*
X72144319Y-135315493D01*
X72130405Y-135291482D01*
X72108818Y-135265558D01*
X72082214Y-135247883D01*
X72045578Y-135236997D01*
X71993897Y-135231439D01*
X71922158Y-135229748D01*
X71918476Y-135229739D01*
X71853824Y-135225248D01*
X71798609Y-135213108D01*
X71758147Y-135194988D01*
X71737972Y-135173137D01*
X71722506Y-135159945D01*
X71712317Y-135160829D01*
X71688593Y-135159153D01*
X71650795Y-135144870D01*
X71604848Y-135121029D01*
X71556677Y-135090683D01*
X71514902Y-135059153D01*
X71482370Y-135034030D01*
X71456274Y-135017521D01*
X71445824Y-135013698D01*
X71423735Y-135006104D01*
X71387297Y-134985699D01*
X71341582Y-134956041D01*
X71291662Y-134920687D01*
X71242609Y-134883195D01*
X71199496Y-134847123D01*
X71173975Y-134823004D01*
X71131301Y-134774393D01*
X71110186Y-134737817D01*
X71110273Y-134712477D01*
X71120000Y-134702550D01*
X71129047Y-134684245D01*
X71132352Y-134650027D01*
X71130237Y-134608652D01*
X71123020Y-134568872D01*
X71116171Y-134550196D01*
X70251926Y-134550196D01*
X70250803Y-134574456D01*
X70249752Y-134586128D01*
X70242289Y-134638724D01*
X70232339Y-134666318D01*
X70225251Y-134670800D01*
X70224905Y-134659842D01*
X70224944Y-134659599D01*
X70129400Y-134659599D01*
X70121576Y-134666484D01*
X70116700Y-134664450D01*
X70107706Y-134669412D01*
X70104007Y-134694121D01*
X70104000Y-134695450D01*
X70100102Y-134722519D01*
X70090682Y-134734284D01*
X70090291Y-134734300D01*
X70082380Y-134723239D01*
X70085435Y-134693025D01*
X70093148Y-134661801D01*
X70099747Y-134642510D01*
X70100022Y-134642017D01*
X70112665Y-134637743D01*
X70126015Y-134648309D01*
X70129400Y-134659599D01*
X70224944Y-134659599D01*
X70229309Y-134632592D01*
X70231252Y-134623175D01*
X70235775Y-134603149D01*
X70038081Y-134603149D01*
X70034887Y-134631215D01*
X70022172Y-134668549D01*
X70015856Y-134682019D01*
X69999705Y-134719081D01*
X69990509Y-134750658D01*
X69989700Y-134758444D01*
X69983981Y-134782967D01*
X69977000Y-134791450D01*
X69967801Y-134808642D01*
X69964300Y-134836146D01*
X69960829Y-134868538D01*
X69951911Y-134909364D01*
X69939792Y-134951348D01*
X69926716Y-134987211D01*
X69914929Y-135009676D01*
X69909528Y-135013700D01*
X69902484Y-135004559D01*
X69903838Y-134997825D01*
X69911764Y-134970824D01*
X69922961Y-134926331D01*
X69935717Y-134871761D01*
X69948321Y-134814528D01*
X69959062Y-134762048D01*
X69962657Y-134742930D01*
X69975470Y-134692499D01*
X69993618Y-134644332D01*
X70005093Y-134622280D01*
X70023209Y-134594886D01*
X70032671Y-134587470D01*
X70037238Y-134597851D01*
X70038081Y-134603149D01*
X70235775Y-134603149D01*
X70242306Y-134574243D01*
X70249146Y-134550021D01*
X70251926Y-134550196D01*
X71116171Y-134550196D01*
X71114249Y-134544958D01*
X71090391Y-134514405D01*
X71074939Y-134505700D01*
X70256400Y-134505700D01*
X70251754Y-134516153D01*
X70247934Y-134514166D01*
X70246414Y-134499094D01*
X70247934Y-134497233D01*
X70255484Y-134498976D01*
X70256400Y-134505700D01*
X71074939Y-134505700D01*
X71053370Y-134493549D01*
X71023588Y-134486650D01*
X70167500Y-134486650D01*
X70161150Y-134493000D01*
X70154800Y-134486650D01*
X70161150Y-134480300D01*
X70167500Y-134486650D01*
X71023588Y-134486650D01*
X70999408Y-134481049D01*
X70924725Y-134475562D01*
X70918248Y-134475397D01*
X70855246Y-134471488D01*
X70811704Y-134461220D01*
X70781916Y-134441677D01*
X70777924Y-134435850D01*
X70180200Y-134435850D01*
X70173850Y-134442200D01*
X70167500Y-134435850D01*
X70173850Y-134429500D01*
X70180200Y-134435850D01*
X70777924Y-134435850D01*
X70760176Y-134409944D01*
X70751114Y-134389984D01*
X70742338Y-134360877D01*
X70748778Y-134339813D01*
X70761920Y-134324190D01*
X70793196Y-134284167D01*
X70817578Y-134236187D01*
X70836132Y-134176365D01*
X70849926Y-134100819D01*
X70860026Y-134005665D01*
X70863789Y-133953250D01*
X70867278Y-133886992D01*
X70354796Y-133886992D01*
X70347671Y-133920157D01*
X70347495Y-133920665D01*
X70338434Y-133954856D01*
X70329278Y-134002298D01*
X70323825Y-134039102D01*
X70318271Y-134078632D01*
X70314283Y-134094499D01*
X70311207Y-134088344D01*
X70309544Y-134074921D01*
X70310046Y-134033843D01*
X70316685Y-133987028D01*
X70318935Y-133977222D01*
X70327665Y-133934423D01*
X70332348Y-133895630D01*
X70332600Y-133887936D01*
X70335145Y-133864989D01*
X70343931Y-133864526D01*
X70346878Y-133867197D01*
X70354796Y-133886992D01*
X70867278Y-133886992D01*
X70867993Y-133873422D01*
X70870727Y-133792545D01*
X70871826Y-133718438D01*
X70871750Y-133711950D01*
X70383400Y-133711950D01*
X70377050Y-133718300D01*
X70370700Y-133711950D01*
X70377050Y-133705600D01*
X70383400Y-133711950D01*
X70871750Y-133711950D01*
X70871123Y-133658922D01*
X70870370Y-133642100D01*
X70867790Y-133596591D01*
X70395098Y-133596591D01*
X70392763Y-133613063D01*
X70388428Y-133613260D01*
X70385396Y-133596262D01*
X70387425Y-133588918D01*
X70393064Y-133584108D01*
X70395098Y-133596591D01*
X70867790Y-133596591D01*
X70866268Y-133569746D01*
X70864231Y-133517829D01*
X70864782Y-133481432D01*
X70868444Y-133455638D01*
X70875741Y-133435532D01*
X70887195Y-133416197D01*
X70895726Y-133403721D01*
X70906757Y-133387345D01*
X70915271Y-133371744D01*
X70921559Y-133353576D01*
X70925911Y-133329505D01*
X70928619Y-133296191D01*
X70929973Y-133250297D01*
X70930266Y-133188482D01*
X70929788Y-133107409D01*
X70929004Y-133022062D01*
X70929156Y-132980207D01*
X70932073Y-132948166D01*
X70940045Y-132919023D01*
X70955359Y-132885862D01*
X70980307Y-132841768D01*
X70999231Y-132809902D01*
X71046209Y-132725250D01*
X71079636Y-132648769D01*
X71103302Y-132570074D01*
X71110904Y-132530850D01*
X70256400Y-132530850D01*
X70250050Y-132537200D01*
X70243700Y-132530850D01*
X70250050Y-132524500D01*
X70256400Y-132530850D01*
X71110904Y-132530850D01*
X71120998Y-132478776D01*
X71121684Y-132474406D01*
X71131320Y-132423737D01*
X71131923Y-132421344D01*
X70307200Y-132421344D01*
X70298417Y-132434902D01*
X70294500Y-132435600D01*
X70284182Y-132446236D01*
X70281800Y-132461000D01*
X70276975Y-132481644D01*
X70270289Y-132486400D01*
X70263701Y-132476306D01*
X70265312Y-132461416D01*
X70275438Y-132439010D01*
X70289839Y-132421263D01*
X70302434Y-132413991D01*
X70307200Y-132421344D01*
X71131923Y-132421344D01*
X71139534Y-132391150D01*
X70472300Y-132391150D01*
X70465950Y-132397500D01*
X70459600Y-132391150D01*
X70465950Y-132384800D01*
X70472300Y-132391150D01*
X71139534Y-132391150D01*
X71143166Y-132376744D01*
X71152093Y-132350270D01*
X71162152Y-132317171D01*
X71163450Y-132291982D01*
X71162834Y-132289917D01*
X71162482Y-132268659D01*
X71168682Y-132232124D01*
X71177330Y-132198153D01*
X71188605Y-132158823D01*
X71196290Y-132130975D01*
X71198553Y-132121558D01*
X71201394Y-132108761D01*
X71208920Y-132078899D01*
X71215871Y-132052249D01*
X71224469Y-132010150D01*
X70485000Y-132010150D01*
X70478650Y-132016500D01*
X70472300Y-132010150D01*
X70478650Y-132003800D01*
X70485000Y-132010150D01*
X71224469Y-132010150D01*
X71224762Y-132008717D01*
X71233300Y-131950147D01*
X71235029Y-131933950D01*
X70700900Y-131933950D01*
X70694550Y-131940300D01*
X70688200Y-131933950D01*
X70694550Y-131927600D01*
X70700900Y-131933950D01*
X71235029Y-131933950D01*
X71239776Y-131889500D01*
X70497700Y-131889500D01*
X70493054Y-131899953D01*
X70489234Y-131897966D01*
X70487714Y-131882894D01*
X70489234Y-131881033D01*
X70496784Y-131882776D01*
X70497700Y-131889500D01*
X71239776Y-131889500D01*
X71240057Y-131886878D01*
X71241799Y-131864640D01*
X71243592Y-131843991D01*
X70661798Y-131843991D01*
X70659463Y-131860463D01*
X70655128Y-131860660D01*
X70654421Y-131856691D01*
X70356998Y-131856691D01*
X70354663Y-131873163D01*
X70350328Y-131873360D01*
X70347296Y-131856362D01*
X70349325Y-131849018D01*
X70354964Y-131844208D01*
X70356998Y-131856691D01*
X70654421Y-131856691D01*
X70652096Y-131843662D01*
X70654125Y-131836318D01*
X70659764Y-131831508D01*
X70661798Y-131843991D01*
X71243592Y-131843991D01*
X71244839Y-131829640D01*
X70559153Y-131829640D01*
X70556063Y-131836737D01*
X70543276Y-131850371D01*
X70535924Y-131847574D01*
X70535800Y-131845799D01*
X70544821Y-131835057D01*
X70550463Y-131831137D01*
X70559153Y-131829640D01*
X71244839Y-131829640D01*
X71246580Y-131809607D01*
X71249280Y-131787900D01*
X70713600Y-131787900D01*
X70708954Y-131798353D01*
X70705134Y-131796366D01*
X70703815Y-131783283D01*
X70525556Y-131783283D01*
X70520385Y-131811940D01*
X70518445Y-131818542D01*
X70506967Y-131849654D01*
X70500451Y-131856411D01*
X70499891Y-131839548D01*
X70504624Y-131808358D01*
X70512401Y-131780333D01*
X70520903Y-131768283D01*
X70522709Y-131768607D01*
X70525556Y-131783283D01*
X70703815Y-131783283D01*
X70703614Y-131781294D01*
X70705134Y-131779433D01*
X70712684Y-131781176D01*
X70713600Y-131787900D01*
X71249280Y-131787900D01*
X71252421Y-131762663D01*
X71258369Y-131730750D01*
X70535800Y-131730750D01*
X70529450Y-131737100D01*
X70523100Y-131730750D01*
X70529450Y-131724400D01*
X70535800Y-131730750D01*
X71258369Y-131730750D01*
X71258386Y-131730664D01*
X71261231Y-131722196D01*
X71264373Y-131703486D01*
X71264642Y-131699000D01*
X70739000Y-131699000D01*
X70734354Y-131709453D01*
X70730534Y-131707466D01*
X70729681Y-131699000D01*
X70548500Y-131699000D01*
X70543854Y-131709453D01*
X70540034Y-131707466D01*
X70539739Y-131704534D01*
X70390817Y-131704534D01*
X70384759Y-131735436D01*
X70380777Y-131749347D01*
X70369885Y-131778643D01*
X70362628Y-131784741D01*
X70360599Y-131778655D01*
X70362266Y-131749216D01*
X70370480Y-131718631D01*
X70382630Y-131693009D01*
X70389758Y-131689351D01*
X70390817Y-131704534D01*
X70539739Y-131704534D01*
X70538514Y-131692394D01*
X70540034Y-131690533D01*
X70547584Y-131692276D01*
X70548500Y-131699000D01*
X70729681Y-131699000D01*
X70729014Y-131692394D01*
X70730534Y-131690533D01*
X70738084Y-131692276D01*
X70739000Y-131699000D01*
X71264642Y-131699000D01*
X71266551Y-131667250D01*
X70548500Y-131667250D01*
X70542150Y-131673600D01*
X70535800Y-131667250D01*
X70542150Y-131660900D01*
X70548500Y-131667250D01*
X71266551Y-131667250D01*
X71266774Y-131663542D01*
X71268330Y-131606525D01*
X71268354Y-131603750D01*
X70561200Y-131603750D01*
X70554850Y-131610100D01*
X70548500Y-131603750D01*
X70554850Y-131597400D01*
X70561200Y-131603750D01*
X71268354Y-131603750D01*
X71268938Y-131536592D01*
X71268496Y-131457902D01*
X71268237Y-131439120D01*
X71267083Y-131348895D01*
X71266920Y-131280142D01*
X71267986Y-131228942D01*
X71270520Y-131191378D01*
X71274761Y-131163531D01*
X71280948Y-131141483D01*
X71287360Y-131125612D01*
X71301762Y-131088008D01*
X71309857Y-131056329D01*
X71310500Y-131049078D01*
X71316532Y-131016792D01*
X71323389Y-131000148D01*
X71333567Y-130972275D01*
X71345609Y-130926176D01*
X71352967Y-130892550D01*
X70709968Y-130892550D01*
X70709161Y-130922668D01*
X70706897Y-130933677D01*
X70704661Y-130927649D01*
X70702374Y-130892808D01*
X70704487Y-130864149D01*
X70707397Y-130855336D01*
X70709397Y-130869062D01*
X70709968Y-130892550D01*
X71352967Y-130892550D01*
X71358161Y-130868818D01*
X71369871Y-130807172D01*
X71379387Y-130748204D01*
X71383435Y-130714750D01*
X70548500Y-130714750D01*
X70542150Y-130721100D01*
X70535800Y-130714750D01*
X70542150Y-130708400D01*
X70548500Y-130714750D01*
X71383435Y-130714750D01*
X71385356Y-130698884D01*
X71386700Y-130673910D01*
X71390036Y-130627661D01*
X71398541Y-130573225D01*
X71404730Y-130545133D01*
X71409723Y-130512773D01*
X71414594Y-130457138D01*
X71418637Y-130390900D01*
X70688200Y-130390900D01*
X70683554Y-130401353D01*
X70679734Y-130399366D01*
X70678214Y-130384294D01*
X70679734Y-130382433D01*
X70687284Y-130384176D01*
X70688200Y-130390900D01*
X71418637Y-130390900D01*
X71419282Y-130380351D01*
X71423209Y-130295650D01*
X70688200Y-130295650D01*
X70681850Y-130302000D01*
X70675500Y-130295650D01*
X70681850Y-130289300D01*
X70688200Y-130295650D01*
X71423209Y-130295650D01*
X71423725Y-130284536D01*
X71425880Y-130225800D01*
X70688200Y-130225800D01*
X70683554Y-130236253D01*
X70679734Y-130234266D01*
X70678214Y-130219194D01*
X70679734Y-130217333D01*
X70687284Y-130219076D01*
X70688200Y-130225800D01*
X71425880Y-130225800D01*
X71427862Y-130171816D01*
X71428518Y-130149600D01*
X70688200Y-130149600D01*
X70683554Y-130160053D01*
X70679734Y-130158066D01*
X70678214Y-130142994D01*
X70679734Y-130141133D01*
X70687284Y-130142876D01*
X70688200Y-130149600D01*
X71428518Y-130149600D01*
X71430239Y-130091391D01*
X70687198Y-130091391D01*
X70684863Y-130107863D01*
X70680528Y-130108060D01*
X70677496Y-130091062D01*
X70679525Y-130083718D01*
X70685164Y-130078908D01*
X70687198Y-130091391D01*
X71430239Y-130091391D01*
X71431631Y-130044316D01*
X71434571Y-129921000D01*
X70688200Y-129921000D01*
X70683554Y-129931453D01*
X70679734Y-129929466D01*
X70678214Y-129914394D01*
X70679734Y-129912533D01*
X70687284Y-129914276D01*
X70688200Y-129921000D01*
X71434571Y-129921000D01*
X71434973Y-129904160D01*
X71436236Y-129837391D01*
X70674498Y-129837391D01*
X70672163Y-129853863D01*
X70667828Y-129854060D01*
X70664796Y-129837062D01*
X70666825Y-129829718D01*
X70672464Y-129824908D01*
X70674498Y-129837391D01*
X71436236Y-129837391D01*
X71437824Y-129753472D01*
X71440125Y-129594376D01*
X71441813Y-129428995D01*
X71442014Y-129395380D01*
X70671135Y-129395380D01*
X70669150Y-129400300D01*
X70657738Y-129412415D01*
X70655701Y-129413000D01*
X70650246Y-129403174D01*
X70650100Y-129400300D01*
X70659864Y-129388088D01*
X70663550Y-129387600D01*
X70671135Y-129395380D01*
X71442014Y-129395380D01*
X71442288Y-129349500D01*
X70662800Y-129349500D01*
X70658154Y-129359953D01*
X70654334Y-129357966D01*
X70652814Y-129342894D01*
X70654334Y-129341033D01*
X70661884Y-129342776D01*
X70662800Y-129349500D01*
X71442288Y-129349500D01*
X71442828Y-129259453D01*
X71442866Y-129247900D01*
X70345300Y-129247900D01*
X70340654Y-129258353D01*
X70336834Y-129256366D01*
X70335314Y-129241294D01*
X70336834Y-129239433D01*
X70344384Y-129241176D01*
X70345300Y-129247900D01*
X71442866Y-129247900D01*
X71442961Y-129219779D01*
X71443300Y-129122494D01*
X71443460Y-129101850D01*
X71031100Y-129101850D01*
X71024750Y-129108200D01*
X71018400Y-129101850D01*
X71024750Y-129095500D01*
X71031100Y-129101850D01*
X71443460Y-129101850D01*
X71443885Y-129047380D01*
X71443912Y-129045987D01*
X70989403Y-129045987D01*
X70986738Y-129058713D01*
X70985834Y-129061122D01*
X70975773Y-129076674D01*
X70970053Y-129076786D01*
X70971478Y-129063351D01*
X70978725Y-129054013D01*
X70989403Y-129045987D01*
X71443912Y-129045987D01*
X71444996Y-128991209D01*
X71446914Y-128950752D01*
X71449919Y-128922782D01*
X71454293Y-128904068D01*
X71460316Y-128891384D01*
X71468269Y-128881500D01*
X71472778Y-128876879D01*
X71514133Y-128852188D01*
X71542628Y-128847850D01*
X70660325Y-128847850D01*
X70658952Y-128869539D01*
X70654976Y-128871448D01*
X70654470Y-128870316D01*
X70651958Y-128845104D01*
X70654000Y-128832216D01*
X70658042Y-128827037D01*
X70660241Y-128843906D01*
X70660325Y-128847850D01*
X71542628Y-128847850D01*
X71583550Y-128847850D01*
X71584804Y-128746250D01*
X71587869Y-128682300D01*
X71594527Y-128644650D01*
X70650100Y-128644650D01*
X70643750Y-128651000D01*
X70637400Y-128644650D01*
X70643750Y-128638300D01*
X70650100Y-128644650D01*
X71594527Y-128644650D01*
X71596295Y-128634657D01*
X71611709Y-128594502D01*
X71613379Y-128591180D01*
X71630282Y-128549590D01*
X71639876Y-128509484D01*
X71640700Y-128498271D01*
X71647429Y-128453679D01*
X71664637Y-128414682D01*
X71682936Y-128394869D01*
X71685702Y-128390650D01*
X70942200Y-128390650D01*
X70935850Y-128397000D01*
X70929500Y-128390650D01*
X69977000Y-128390650D01*
X69970650Y-128397000D01*
X69964300Y-128390650D01*
X69970650Y-128384300D01*
X69977000Y-128390650D01*
X70929500Y-128390650D01*
X70935850Y-128384300D01*
X70942200Y-128390650D01*
X71685702Y-128390650D01*
X71691857Y-128381263D01*
X70873192Y-128381263D01*
X70860709Y-128383297D01*
X70844237Y-128380962D01*
X70844102Y-128377972D01*
X69803904Y-128377972D01*
X69789481Y-128379887D01*
X69761100Y-128380494D01*
X69729747Y-128379706D01*
X69717996Y-128377656D01*
X69726175Y-128375203D01*
X69767198Y-128373077D01*
X69796025Y-128375203D01*
X69803904Y-128377972D01*
X70844102Y-128377972D01*
X70844040Y-128376627D01*
X70861038Y-128373595D01*
X70868382Y-128375624D01*
X70873192Y-128381263D01*
X71691857Y-128381263D01*
X71694871Y-128376668D01*
X71698492Y-128363133D01*
X70810967Y-128363133D01*
X70809224Y-128370683D01*
X70802500Y-128371600D01*
X70794189Y-128367905D01*
X69576950Y-128367905D01*
X69395975Y-128369752D01*
X69323986Y-128370159D01*
X69273685Y-128369420D01*
X69241372Y-128367166D01*
X69223350Y-128363030D01*
X69215917Y-128356644D01*
X69215000Y-128351771D01*
X69219395Y-128340027D01*
X69236556Y-128336680D01*
X69272186Y-128340519D01*
X69310730Y-128345333D01*
X69365280Y-128350930D01*
X69426504Y-128356384D01*
X69453161Y-128358500D01*
X69576950Y-128367905D01*
X70794189Y-128367905D01*
X70792047Y-128366953D01*
X70794034Y-128363133D01*
X70809106Y-128361613D01*
X70810967Y-128363133D01*
X71698492Y-128363133D01*
X71700196Y-128356769D01*
X71708408Y-128321633D01*
X71717874Y-128293862D01*
X71728630Y-128248369D01*
X71730151Y-128227327D01*
X69391742Y-128227327D01*
X69382941Y-128229616D01*
X69354788Y-128231256D01*
X69313331Y-128231899D01*
X69312367Y-128231900D01*
X69269232Y-128230182D01*
X69238892Y-128225653D01*
X69227700Y-128219394D01*
X69238964Y-128215202D01*
X69267391Y-128213742D01*
X69304941Y-128214627D01*
X69343569Y-128217468D01*
X69375232Y-128221875D01*
X69391742Y-128227327D01*
X71730151Y-128227327D01*
X71733154Y-128185784D01*
X71731587Y-128113600D01*
X71724074Y-128039311D01*
X71711779Y-127974513D01*
X71699694Y-127920783D01*
X71694711Y-127882861D01*
X71696354Y-127852308D01*
X71703300Y-127823496D01*
X71710326Y-127793836D01*
X71711766Y-127764214D01*
X71707130Y-127726994D01*
X71695928Y-127674538D01*
X71692913Y-127661783D01*
X71678694Y-127601747D01*
X71661388Y-127528038D01*
X71643591Y-127451739D01*
X71633080Y-127406400D01*
X71611537Y-127324103D01*
X71588379Y-127254876D01*
X71565560Y-127204466D01*
X71562865Y-127199834D01*
X71539752Y-127154840D01*
X71528863Y-127111622D01*
X71526400Y-127063252D01*
X71522929Y-127015723D01*
X71513669Y-126954596D01*
X71500354Y-126890533D01*
X71494650Y-126867858D01*
X71479700Y-126806001D01*
X71470145Y-126749539D01*
X71464929Y-126689192D01*
X71462998Y-126615680D01*
X71462900Y-126588699D01*
X71462428Y-126519552D01*
X71460169Y-126467671D01*
X71454861Y-126424929D01*
X71445242Y-126383197D01*
X71430048Y-126334347D01*
X71417824Y-126298508D01*
X71394740Y-126227446D01*
X71369367Y-126142055D01*
X71343002Y-126047460D01*
X71316946Y-125948785D01*
X71292499Y-125851154D01*
X71270960Y-125759692D01*
X71253628Y-125679522D01*
X71241804Y-125615769D01*
X71238204Y-125590300D01*
X71232150Y-125552879D01*
X71224715Y-125525974D01*
X71221858Y-125520450D01*
X71214181Y-125502910D01*
X71202350Y-125467498D01*
X71188565Y-125420936D01*
X71184473Y-125406150D01*
X71156514Y-125303927D01*
X71132766Y-125218163D01*
X71110978Y-125140755D01*
X71101559Y-125107700D01*
X71087303Y-125057621D01*
X71083510Y-125044200D01*
X69443600Y-125044200D01*
X69433936Y-125056530D01*
X69430900Y-125056900D01*
X69418570Y-125047235D01*
X69418200Y-125044200D01*
X69427865Y-125031869D01*
X69430900Y-125031500D01*
X69443231Y-125041164D01*
X69443600Y-125044200D01*
X71083510Y-125044200D01*
X71073335Y-125008207D01*
X71067398Y-124987050D01*
X71053561Y-124943072D01*
X71038252Y-124901891D01*
X71036266Y-124897201D01*
X71025932Y-124864988D01*
X71014954Y-124817642D01*
X71005665Y-124765258D01*
X71005457Y-124763851D01*
X70996823Y-124711694D01*
X70987344Y-124664471D01*
X70979027Y-124632147D01*
X70978795Y-124631450D01*
X70966727Y-124585790D01*
X70954529Y-124523510D01*
X70943511Y-124453346D01*
X70934984Y-124384037D01*
X70930258Y-124324321D01*
X70929722Y-124304252D01*
X70927648Y-124260069D01*
X70922545Y-124223951D01*
X70917884Y-124209002D01*
X70911797Y-124187658D01*
X70904506Y-124147379D01*
X70897056Y-124094533D01*
X70892115Y-124051677D01*
X70875898Y-123930852D01*
X70854665Y-123828233D01*
X70847657Y-123805950D01*
X69494400Y-123805950D01*
X69488050Y-123812300D01*
X69481700Y-123805950D01*
X69488050Y-123799600D01*
X69494400Y-123805950D01*
X70847657Y-123805950D01*
X70829092Y-123746923D01*
X70822370Y-123730895D01*
X70802125Y-123664733D01*
X70798876Y-123615450D01*
X69634100Y-123615450D01*
X69627750Y-123621800D01*
X69621400Y-123615450D01*
X69627750Y-123609100D01*
X69634100Y-123615450D01*
X70798876Y-123615450D01*
X70797733Y-123598131D01*
X70801192Y-123580663D01*
X69653992Y-123580663D01*
X69641509Y-123582697D01*
X69625037Y-123580362D01*
X69624840Y-123576027D01*
X69641838Y-123572995D01*
X69649182Y-123575024D01*
X69653992Y-123580663D01*
X70801192Y-123580663D01*
X70808136Y-123545600D01*
X70836444Y-123471980D01*
X70866331Y-123396197D01*
X70895610Y-123323611D01*
X70922100Y-123259583D01*
X70943615Y-123209474D01*
X70956195Y-123182166D01*
X70981892Y-123143963D01*
X71026091Y-123094177D01*
X71086223Y-123035411D01*
X71159718Y-122970267D01*
X71192167Y-122943102D01*
X71240678Y-122889935D01*
X71286965Y-122812872D01*
X71330413Y-122713368D01*
X71334501Y-122701050D01*
X70330125Y-122701050D01*
X70328752Y-122722739D01*
X70324776Y-122724648D01*
X70324270Y-122723516D01*
X70321758Y-122698304D01*
X70323800Y-122685416D01*
X70327842Y-122680237D01*
X70330041Y-122697106D01*
X70330125Y-122701050D01*
X71334501Y-122701050D01*
X71370405Y-122592875D01*
X71406326Y-122452848D01*
X71413176Y-122421650D01*
X71426297Y-122360335D01*
X71439488Y-122298835D01*
X71450389Y-122248141D01*
X71452685Y-122237500D01*
X71462785Y-122197869D01*
X71472935Y-122169289D01*
X71478707Y-122160134D01*
X71485855Y-122144609D01*
X71494149Y-122111060D01*
X71501815Y-122066692D01*
X71501931Y-122065875D01*
X71509615Y-122020210D01*
X71517918Y-121984093D01*
X71524995Y-121965440D01*
X71538367Y-121936765D01*
X71549757Y-121892216D01*
X71557564Y-121841316D01*
X71560184Y-121793589D01*
X71558218Y-121767997D01*
X71536099Y-121700397D01*
X71512370Y-121659650D01*
X70316698Y-121659650D01*
X70315676Y-121685787D01*
X70312798Y-121692533D01*
X70311175Y-121688373D01*
X70308809Y-121657874D01*
X70310918Y-121637573D01*
X70314264Y-121630534D01*
X70316368Y-121645799D01*
X70316698Y-121659650D01*
X71512370Y-121659650D01*
X71491325Y-121623512D01*
X71424511Y-121538241D01*
X71375638Y-121486792D01*
X70414280Y-121486792D01*
X70412317Y-121503195D01*
X70405255Y-121509644D01*
X70387371Y-121526335D01*
X70364500Y-121554486D01*
X70359673Y-121561225D01*
X70338513Y-121587510D01*
X70321610Y-121601695D01*
X70318648Y-121602500D01*
X70303666Y-121611305D01*
X70279697Y-121633614D01*
X70267022Y-121647376D01*
X70239998Y-121674306D01*
X70223260Y-121684357D01*
X70219757Y-121677972D01*
X70232439Y-121655594D01*
X70241648Y-121643567D01*
X70265710Y-121608331D01*
X70283315Y-121573925D01*
X70296943Y-121548985D01*
X70309802Y-121539000D01*
X70317311Y-121548256D01*
X70315464Y-121557643D01*
X70315112Y-121577775D01*
X70319541Y-121583227D01*
X70331536Y-121578708D01*
X70339022Y-121564175D01*
X70352322Y-121537593D01*
X70372571Y-121511339D01*
X70393821Y-121491532D01*
X70410123Y-121484287D01*
X70414280Y-121486792D01*
X71375638Y-121486792D01*
X71337886Y-121447052D01*
X71292807Y-121403986D01*
X70599368Y-121403986D01*
X70585706Y-121415323D01*
X70583425Y-121416289D01*
X70554382Y-121423332D01*
X70537460Y-121418496D01*
X70535800Y-121413480D01*
X70546645Y-121402980D01*
X70567550Y-121396191D01*
X70592001Y-121395944D01*
X70599368Y-121403986D01*
X71292807Y-121403986D01*
X71283544Y-121395137D01*
X71241607Y-121358407D01*
X71207300Y-121333338D01*
X71175848Y-121316407D01*
X71145400Y-121305011D01*
X71098777Y-121288281D01*
X71056005Y-121269881D01*
X71037450Y-121260207D01*
X71018385Y-121250738D01*
X70996322Y-121244960D01*
X70965959Y-121242516D01*
X70921994Y-121243049D01*
G37*
X70921994Y-121243049D02*
X70859125Y-121246204D01*
X70843241Y-121247154D01*
X70770709Y-121252454D01*
X70719652Y-121258534D01*
X70686143Y-121266062D01*
X70666260Y-121275710D01*
X70663768Y-121277773D01*
X70635574Y-121295543D01*
X70598144Y-121310541D01*
X70594453Y-121311605D01*
X70564744Y-121322580D01*
X70549175Y-121333739D01*
X70548501Y-121335907D01*
X70537433Y-121345944D01*
X70509562Y-121357569D01*
X70495073Y-121361907D01*
X70441766Y-121386896D01*
X70393105Y-121431438D01*
X70357172Y-121468090D01*
X70319063Y-121500735D01*
X70300483Y-121513827D01*
X70272703Y-121534478D01*
X70257422Y-121552605D01*
X70256400Y-121556545D01*
X70248187Y-121578847D01*
X70242420Y-121586000D01*
X70229588Y-121605609D01*
X70210881Y-121642149D01*
X70189160Y-121689001D01*
X70167288Y-121739551D01*
X70148129Y-121787182D01*
X70134546Y-121825277D01*
X70129400Y-121847193D01*
X70123446Y-121877801D01*
X70115661Y-121896542D01*
X70108355Y-121927985D01*
X70109227Y-121973995D01*
X70110503Y-121984607D01*
X70117826Y-122023214D01*
X70127938Y-122042114D01*
X70143292Y-122047000D01*
X70163337Y-122049691D01*
X70163789Y-122060307D01*
X70144528Y-122082659D01*
X70142101Y-122085100D01*
X70128274Y-122103755D01*
X70120449Y-122129699D01*
X70117138Y-122169866D01*
X70116700Y-122203633D01*
X70117918Y-122250278D01*
X70121129Y-122286647D01*
X70125669Y-122305576D01*
X70126225Y-122306291D01*
X70134305Y-122325095D01*
X70138399Y-122349683D01*
X70145161Y-122427076D01*
X70151838Y-122482056D01*
X70159029Y-122517601D01*
X70167335Y-122536690D01*
X70177210Y-122542299D01*
X70187082Y-122546163D01*
X70191859Y-122561070D01*
X70192204Y-122591992D01*
X70189527Y-122634374D01*
X70184891Y-122691095D01*
X70180250Y-122729251D01*
X70173847Y-122755618D01*
X70163924Y-122776970D01*
X70148725Y-122800083D01*
X70145275Y-122804977D01*
X70123350Y-122840907D01*
X70119510Y-122867705D01*
X70134273Y-122894587D01*
X70151402Y-122913681D01*
X70172540Y-122938992D01*
X70175547Y-122953978D01*
X70169047Y-122960444D01*
X70143353Y-122966193D01*
X70126138Y-122964226D01*
X70107774Y-122962996D01*
X70104942Y-122977612D01*
X70106861Y-122988008D01*
X70115789Y-123021206D01*
X70122336Y-123039627D01*
X70121711Y-123059980D01*
X70108094Y-123068183D01*
X70086794Y-123082944D01*
X70061558Y-123110797D01*
X70053765Y-123121551D01*
X70024609Y-123155524D01*
X69984790Y-123191334D01*
X69961712Y-123208431D01*
X69934444Y-123229561D01*
X69892855Y-123265301D01*
X69840617Y-123312327D01*
X69781399Y-123367318D01*
X69718871Y-123426953D01*
X69698893Y-123446346D01*
X69632774Y-123511103D01*
X69582809Y-123561008D01*
X69546764Y-123598732D01*
X69522407Y-123626946D01*
X69507503Y-123648322D01*
X69499819Y-123665531D01*
X69497123Y-123681245D01*
X69496940Y-123687926D01*
X69487494Y-123737727D01*
X69462550Y-123784558D01*
X69427203Y-123822772D01*
X69386548Y-123846723D01*
X69349452Y-123851392D01*
X69320706Y-123841935D01*
X69286499Y-123823406D01*
X69254605Y-123801051D01*
X69232800Y-123780116D01*
X69227700Y-123769245D01*
X69236653Y-123747133D01*
X69246750Y-123736099D01*
X69261028Y-123715415D01*
X69265436Y-123691627D01*
X69259126Y-123675011D01*
X69252002Y-123672600D01*
X69234628Y-123665666D01*
X69204826Y-123647860D01*
X69182152Y-123632347D01*
X69148932Y-123606281D01*
X69132186Y-123584468D01*
X69126497Y-123558277D01*
X69126101Y-123543039D01*
X69131420Y-123496228D01*
X69144285Y-123450492D01*
X69144935Y-123448906D01*
X69160453Y-123400615D01*
X69175726Y-123332959D01*
X69189710Y-123251960D01*
X69201362Y-123163642D01*
X69209485Y-123076205D01*
X69215442Y-123010189D01*
X69223433Y-122962821D01*
X69235365Y-122927351D01*
X69253147Y-122897028D01*
X69264257Y-122882397D01*
X69271143Y-122868604D01*
X69275335Y-122845329D01*
X69276996Y-122808688D01*
X69276288Y-122754801D01*
X69273374Y-122679784D01*
X69273055Y-122672847D01*
X69269210Y-122605866D01*
X69264485Y-122547758D01*
X69259379Y-122503330D01*
X69254387Y-122477387D01*
X69252374Y-122473085D01*
X69243818Y-122452654D01*
X69240400Y-122421943D01*
X69229499Y-122379879D01*
X69202057Y-122333809D01*
X69111586Y-122333809D01*
X69108298Y-122349176D01*
X69100700Y-122351800D01*
X69088727Y-122341872D01*
X69088000Y-122336925D01*
X69080150Y-122316487D01*
X69067853Y-122299787D01*
X69054747Y-122283429D01*
X69060162Y-122279665D01*
X69070127Y-122280816D01*
X69088943Y-122291369D01*
X69103949Y-122311786D01*
X69111586Y-122333809D01*
X69202057Y-122333809D01*
X69196878Y-122325116D01*
X69188281Y-122313358D01*
X69156344Y-122273836D01*
X69130021Y-122250715D01*
X69102063Y-122238488D01*
X69084642Y-122234639D01*
X69039324Y-122220793D01*
X68994256Y-122198599D01*
X68987536Y-122194248D01*
X68944917Y-122171522D01*
X68898682Y-122155722D01*
X68891150Y-122154177D01*
X68854106Y-122145053D01*
X68826374Y-122133658D01*
X68822532Y-122131069D01*
X68799035Y-122122953D01*
X68756327Y-122117530D01*
X68700447Y-122114743D01*
X68637435Y-122114539D01*
X68573330Y-122116863D01*
X68514174Y-122121661D01*
X68466004Y-122128878D01*
X68444509Y-122134475D01*
X68347163Y-122180086D01*
X68260680Y-122245620D01*
X68214043Y-122296051D01*
X68182752Y-122333708D01*
X68153312Y-122366456D01*
X68137042Y-122382614D01*
X68119622Y-122404176D01*
X68123640Y-122415818D01*
X68130507Y-122429071D01*
X68130052Y-122458576D01*
X68122755Y-122505653D01*
X68114081Y-122556386D01*
X68107123Y-122604071D01*
X68104067Y-122631200D01*
X68097595Y-122689098D01*
X68088686Y-122742023D01*
X68078816Y-122782074D01*
X68073229Y-122796300D01*
X68068408Y-122822603D01*
X68069641Y-122864507D01*
X68075709Y-122913275D01*
X68085395Y-122960171D01*
X68097482Y-122996459D01*
X68102383Y-123005545D01*
X68117272Y-123032890D01*
X68122801Y-123051265D01*
X68130522Y-123067737D01*
X68150292Y-123096559D01*
X68177021Y-123131334D01*
X68205618Y-123165667D01*
X68230993Y-123193162D01*
X68246288Y-123206418D01*
X68268747Y-123232629D01*
X68287600Y-123275843D01*
X68300767Y-123327711D01*
X68306172Y-123379883D01*
X68301735Y-123424009D01*
X68301044Y-123426441D01*
X68293304Y-123447063D01*
X68289112Y-123448313D01*
X68288992Y-123447175D01*
X68279022Y-123432005D01*
X68256259Y-123431524D01*
X68226610Y-123443229D01*
X68195982Y-123464617D01*
X68170280Y-123493185D01*
X68166537Y-123499057D01*
X68153842Y-123526589D01*
X68146827Y-123560683D01*
X68144418Y-123608561D01*
X68144715Y-123645849D01*
X68141861Y-123728844D01*
X68127736Y-123792152D01*
X68099677Y-123839981D01*
X68055016Y-123876542D01*
X67991089Y-123906047D01*
X67976750Y-123911132D01*
X67932547Y-123927471D01*
X67874000Y-123950762D01*
X67809890Y-123977451D01*
X67767200Y-123995903D01*
X67700090Y-124025703D01*
X67646815Y-124050222D01*
X67597816Y-124074070D01*
X67543531Y-124101853D01*
X67499520Y-124124924D01*
X67466709Y-124148174D01*
X67422364Y-124188066D01*
X67369942Y-124240739D01*
X67312902Y-124302333D01*
X67254701Y-124368987D01*
X67198800Y-124436841D01*
X67148654Y-124502033D01*
X67107724Y-124560703D01*
X67104059Y-124566395D01*
X67091914Y-124589416D01*
X67076163Y-124624070D01*
X67060409Y-124661739D01*
X67048254Y-124693802D01*
X67043302Y-124711641D01*
X67043300Y-124711748D01*
X67034572Y-124728832D01*
X67023704Y-124739853D01*
X67004622Y-124764369D01*
X66981630Y-124806783D01*
X66957727Y-124860550D01*
X66935910Y-124919125D01*
X66924084Y-124957334D01*
X66911778Y-124998545D01*
X66893904Y-125055047D01*
X66873247Y-125118144D01*
X66859672Y-125158500D01*
X66834688Y-125232232D01*
X66816449Y-125287392D01*
X66803362Y-125329403D01*
X66793838Y-125363686D01*
X66786288Y-125395662D01*
X66779120Y-125430755D01*
X66777733Y-125437900D01*
X66767541Y-125502065D01*
X66757873Y-125583350D01*
X66749448Y-125673474D01*
X66742984Y-125764156D01*
X66739198Y-125847117D01*
X66738511Y-125890310D01*
X66730941Y-125985770D01*
X66706626Y-126067652D01*
X66663126Y-126143365D01*
X66649015Y-126162138D01*
X66625162Y-126200698D01*
X66602791Y-126250089D01*
X66592940Y-126278888D01*
X66580745Y-126365284D01*
X66591305Y-126460216D01*
X66624340Y-126561518D01*
X66631660Y-126578101D01*
X66650183Y-126627005D01*
X66659658Y-126677455D01*
X66662300Y-126740657D01*
X66665718Y-126810083D01*
X66678055Y-126861585D01*
X66702445Y-126901968D01*
X66742016Y-126938038D01*
X66758526Y-126949871D01*
X66805546Y-126988951D01*
X66841714Y-127032045D01*
X66862377Y-127072988D01*
X66865453Y-127091644D01*
X66860203Y-127117074D01*
X66847220Y-127151566D01*
X66844307Y-127157881D01*
X66833265Y-127183934D01*
X66829681Y-127206405D01*
X66833736Y-127234302D01*
X66845615Y-127276632D01*
X66846797Y-127280544D01*
X66866299Y-127336497D01*
X66885832Y-127371302D01*
X66908590Y-127389013D01*
X66935961Y-127393700D01*
X66959329Y-127400153D01*
X66979391Y-127423001D01*
X66992204Y-127446885D01*
X67008045Y-127486422D01*
X67017089Y-127522073D01*
X67017900Y-127531606D01*
X67025249Y-127568329D01*
X67044419Y-127616556D01*
X67071101Y-127668175D01*
X67100982Y-127715071D01*
X67129753Y-127749131D01*
X67136558Y-127754913D01*
X67175217Y-127776584D01*
X67216476Y-127789061D01*
X67220768Y-127789582D01*
X67252054Y-127796181D01*
X67269208Y-127813634D01*
X67278526Y-127838200D01*
X67305725Y-127910383D01*
X67341400Y-127970185D01*
X67375696Y-128012074D01*
X67403516Y-128047073D01*
X67423401Y-128079464D01*
X67429188Y-128094624D01*
X67431025Y-128114187D01*
X67433528Y-128155838D01*
X67436547Y-128216278D01*
X67439930Y-128292207D01*
X67443527Y-128380326D01*
X67447188Y-128477337D01*
X67449073Y-128530350D01*
X67453083Y-128639465D01*
X67457507Y-128749224D01*
X67462119Y-128854675D01*
X67466688Y-128950868D01*
X67470989Y-129032854D01*
X67474792Y-129095682D01*
X67475667Y-129108200D01*
X67481060Y-129185387D01*
X67487175Y-129277676D01*
X67493351Y-129374805D01*
X67498926Y-129466516D01*
X67500252Y-129489200D01*
X67505601Y-129578493D01*
X67511785Y-129676798D01*
X67518123Y-129773554D01*
X67523933Y-129858199D01*
X67525246Y-129876550D01*
X67533117Y-129986784D01*
X67541769Y-130110462D01*
X67550832Y-130242116D01*
X67559938Y-130376274D01*
X67568718Y-130507467D01*
X67576805Y-130630224D01*
X67583830Y-130739075D01*
X67589424Y-130828550D01*
X67589840Y-130835400D01*
X67594755Y-130905209D01*
X67600521Y-130969522D01*
X67606513Y-131022328D01*
X67612105Y-131057616D01*
X67613643Y-131064000D01*
X67619228Y-131094367D01*
X67624819Y-131143118D01*
X67629726Y-131203247D01*
X67632971Y-131260850D01*
X67638162Y-131337112D01*
X67646370Y-131408788D01*
X67656537Y-131467549D01*
X67662014Y-131489450D01*
X67678493Y-131576414D01*
X67683455Y-131685387D01*
X67683448Y-131686300D01*
X67682572Y-131747958D01*
X67680817Y-131826852D01*
X67678316Y-131919393D01*
X67675204Y-132021996D01*
X67671613Y-132131073D01*
X67667676Y-132243038D01*
X67663528Y-132354302D01*
X67659300Y-132461281D01*
X67655128Y-132560386D01*
X67651142Y-132648031D01*
X67647478Y-132720629D01*
X67644268Y-132774593D01*
X67641917Y-132803900D01*
X67638175Y-132883556D01*
X67641904Y-132965642D01*
X67644901Y-132991164D01*
X67651580Y-133071704D01*
X67646070Y-133139987D01*
X67644165Y-133149914D01*
X67637013Y-133196503D01*
X67639203Y-133228783D01*
X67646750Y-133248537D01*
X67666852Y-133275261D01*
X67701951Y-133310609D01*
X67745921Y-133349098D01*
X67792638Y-133385246D01*
X67821075Y-133404573D01*
X67845192Y-133425271D01*
X67853874Y-133452427D01*
X67854087Y-133474052D01*
X67855988Y-133528835D01*
X67867504Y-133561911D01*
X67889744Y-133575508D01*
X67904686Y-133575755D01*
X67927877Y-133576362D01*
X67938585Y-133589332D01*
X67942846Y-133616416D01*
X67944712Y-133645000D01*
X67940308Y-133652157D01*
X67926193Y-133641701D01*
X67922796Y-133638641D01*
X67901424Y-133622036D01*
X67889865Y-133616700D01*
X67878555Y-133627887D01*
X67863172Y-133657133D01*
X67846224Y-133697963D01*
X67830222Y-133743903D01*
X67817672Y-133788478D01*
X67811934Y-133817841D01*
X67808551Y-133859250D01*
X67813149Y-133894376D01*
X67827874Y-133934807D01*
X67837513Y-133955983D01*
X67866894Y-134007349D01*
X67904736Y-134059176D01*
X67928088Y-134085216D01*
X67984189Y-134140983D01*
X68082070Y-134133605D01*
X68133892Y-134128640D01*
X68166621Y-134122019D01*
X68186562Y-134111801D01*
X68199000Y-134097604D01*
X68220408Y-134070626D01*
X68236429Y-134055565D01*
X68253342Y-134040776D01*
X68282690Y-134012829D01*
X68319206Y-133976785D01*
X68334340Y-133961537D01*
X68388774Y-133901892D01*
X68437004Y-133838240D01*
X68454982Y-133809553D01*
X68048363Y-133809553D01*
X68047115Y-133829124D01*
X68022746Y-133856640D01*
X68017870Y-133860833D01*
X67973281Y-133889105D01*
X67933457Y-133893573D01*
X67899803Y-133877957D01*
X67883176Y-133863704D01*
X67887029Y-133855677D01*
X67897303Y-133851226D01*
X67913215Y-133839378D01*
X67907439Y-133827979D01*
X67883471Y-133820776D01*
X67868051Y-133819900D01*
X67839180Y-133813018D01*
X67830922Y-133792127D01*
X67843243Y-133756857D01*
X67859781Y-133729703D01*
X67888443Y-133696719D01*
X67913070Y-133688396D01*
X67933175Y-133704824D01*
X67938487Y-133715125D01*
X67953939Y-133737096D01*
X67967062Y-133743700D01*
X67980952Y-133749593D01*
X67981597Y-133753225D01*
X67981038Y-133772899D01*
X67981597Y-133786530D01*
X67985964Y-133802566D01*
X67999719Y-133796478D01*
X68002150Y-133794500D01*
X68018269Y-133773274D01*
X68021200Y-133761944D01*
X68030727Y-133740343D01*
X68035742Y-133736211D01*
X68045281Y-133737460D01*
X68044010Y-133760041D01*
X68043014Y-133791127D01*
X68048363Y-133809553D01*
X68454982Y-133809553D01*
X68483565Y-133763946D01*
X68532993Y-133672379D01*
X68535550Y-133667368D01*
X68577767Y-133601559D01*
X68631426Y-133551543D01*
X68635188Y-133548835D01*
X68673876Y-133517459D01*
X68706921Y-133483980D01*
X68720826Y-133465502D01*
X68749325Y-133432712D01*
X68786254Y-133406234D01*
X68789464Y-133404633D01*
X68820196Y-133385715D01*
X68832608Y-133363418D01*
X68834000Y-133346812D01*
X68829200Y-133310077D01*
X68820311Y-133284650D01*
X68812987Y-133259581D01*
X68806694Y-133217901D01*
X68802741Y-133168397D01*
X68802627Y-133165833D01*
X68799687Y-133118639D01*
X68795665Y-133081212D01*
X68791380Y-133060985D01*
X68790961Y-133060182D01*
X68784699Y-133040615D01*
X68778292Y-133006639D01*
X68776487Y-132993622D01*
X68760793Y-132901440D01*
X68735929Y-132811447D01*
X68715269Y-132753025D01*
X68688876Y-132676237D01*
X68673247Y-132610902D01*
X68666499Y-132546448D01*
X68666506Y-132479133D01*
X68664371Y-132406305D01*
X68653124Y-132350817D01*
X68650259Y-132343285D01*
X68639203Y-132301285D01*
X68633774Y-132247794D01*
X68633959Y-132191963D01*
X68639743Y-132142942D01*
X68650605Y-132110695D01*
X68664999Y-132077775D01*
X68673047Y-132047195D01*
X68681474Y-132011736D01*
X68694847Y-131968036D01*
X68699622Y-131954357D01*
X68712453Y-131904539D01*
X68718810Y-131851233D01*
X68718970Y-131840057D01*
X68718601Y-131731489D01*
X68720724Y-131631509D01*
X68725111Y-131543306D01*
X68731533Y-131470070D01*
X68739759Y-131414991D01*
X68749560Y-131381259D01*
X68752342Y-131376372D01*
X68763581Y-131346083D01*
X68769743Y-131298445D01*
X68770500Y-131272275D01*
X68773438Y-131222009D01*
X68781003Y-131175199D01*
X68788091Y-131151275D01*
X68798480Y-131107437D01*
X68802570Y-131041126D01*
X68801983Y-130987800D01*
X68802861Y-130896425D01*
X68811860Y-130828632D01*
X68816812Y-130810755D01*
X68826951Y-130768839D01*
X68835573Y-130713631D01*
X68840719Y-130658355D01*
X68844728Y-130599340D01*
X68850578Y-130528225D01*
X68857169Y-130458142D01*
X68858869Y-130441700D01*
X68865764Y-130371880D01*
X68872529Y-130295562D01*
X68877912Y-130227034D01*
X68878789Y-130214379D01*
X68883615Y-130161974D01*
X68890109Y-130117191D01*
X68897073Y-130087810D01*
X68898959Y-130083374D01*
X68903238Y-130063412D01*
X68907331Y-130022453D01*
X68910963Y-129964899D01*
X68913857Y-129895153D01*
X68915737Y-129817617D01*
X68915772Y-129815395D01*
X68919339Y-129690569D01*
X68925890Y-129589822D01*
X68935605Y-129511987D01*
X68948661Y-129455900D01*
X68965239Y-129420393D01*
X68978452Y-129407509D01*
X68999167Y-129401732D01*
X69017878Y-129416825D01*
X69019832Y-129419350D01*
X69029672Y-129438115D01*
X69033601Y-129464612D01*
X69032108Y-129505455D01*
X69028771Y-129540000D01*
X69022280Y-129631709D01*
X69022514Y-129718434D01*
X69029260Y-129792798D01*
X69037249Y-129831794D01*
X69042699Y-129862163D01*
X69048193Y-129910919D01*
X69053053Y-129971061D01*
X69056311Y-130028809D01*
X69059637Y-130098663D01*
X69063853Y-130179702D01*
X69068676Y-130267193D01*
X69073822Y-130356403D01*
X69079009Y-130442599D01*
X69083953Y-130521046D01*
X69088371Y-130587012D01*
X69091980Y-130635764D01*
X69093923Y-130657600D01*
X69105746Y-130756109D01*
X69118859Y-130839686D01*
X69132625Y-130904775D01*
X69145639Y-130946039D01*
X69157688Y-130985495D01*
X69167619Y-131037144D01*
X69172028Y-131075509D01*
X69177015Y-131121658D01*
X69183840Y-131159753D01*
X69189897Y-131178853D01*
X69194947Y-131200564D01*
X69198887Y-131240915D01*
X69201184Y-131293153D01*
X69201552Y-131326093D01*
X69203276Y-131395550D01*
X69207959Y-131470044D01*
X69214700Y-131536375D01*
X69217026Y-131552950D01*
X69222655Y-131605030D01*
X69226817Y-131674406D01*
X69229177Y-131752997D01*
X69229397Y-131832724D01*
X69229211Y-131845050D01*
X69228678Y-131920025D01*
X69230207Y-131990216D01*
X69234260Y-132060585D01*
X69241299Y-132136089D01*
X69251785Y-132221691D01*
X69266181Y-132322349D01*
X69284776Y-132441950D01*
X69296960Y-132529771D01*
X69302484Y-132597825D01*
X69301309Y-132644632D01*
X69293391Y-132668714D01*
X69291201Y-132670550D01*
X69282099Y-132687694D01*
X69278500Y-132716255D01*
X69272608Y-132752139D01*
X69257996Y-132793680D01*
X69253477Y-132803162D01*
X69245956Y-132819856D01*
X69239277Y-132840081D01*
X69233139Y-132866337D01*
X69227242Y-132901124D01*
X69221286Y-132946942D01*
X69214970Y-133006291D01*
X69207996Y-133081672D01*
X69200062Y-133175584D01*
X69190870Y-133290526D01*
X69183273Y-133388100D01*
X69176122Y-133471460D01*
X69167773Y-133554146D01*
X69158978Y-133629590D01*
X69150488Y-133691222D01*
X69144731Y-133724650D01*
X69133761Y-133786556D01*
X69124975Y-133853578D01*
X69118207Y-133928930D01*
X69113287Y-134015825D01*
X69110048Y-134117476D01*
X69108322Y-134237097D01*
X69107940Y-134377901D01*
X69108065Y-134425445D01*
X69108624Y-134530425D01*
X69109560Y-134613011D01*
X69111052Y-134676207D01*
X69113276Y-134723018D01*
X69116409Y-134756449D01*
X69120627Y-134779503D01*
X69126109Y-134795187D01*
X69130272Y-134802607D01*
X69142349Y-134829076D01*
X69138659Y-134842337D01*
X69128442Y-134861382D01*
X69126938Y-134892750D01*
X69133763Y-134925051D01*
X69141975Y-134940507D01*
X69163879Y-134956596D01*
X69198968Y-134971438D01*
X69210346Y-134974775D01*
X69258875Y-134993317D01*
X69284415Y-135018670D01*
X69288939Y-135052953D01*
X69288070Y-135058267D01*
X69286448Y-135075640D01*
X69292163Y-135087532D01*
X69309271Y-135095377D01*
X69341833Y-135100607D01*
X69393907Y-135104656D01*
X69424550Y-135106462D01*
X69495533Y-135106269D01*
X69543215Y-135096356D01*
X69548375Y-135094019D01*
X69576407Y-135083595D01*
X69601415Y-135087059D01*
X69622513Y-135096825D01*
X69648493Y-135118153D01*
X69673743Y-135151232D01*
X69694025Y-135188383D01*
X69705099Y-135221927D01*
X69703351Y-135243270D01*
X69699815Y-135264110D01*
X69702540Y-135296337D01*
X69702890Y-135298263D01*
X69723325Y-135339191D01*
X69768402Y-135377632D01*
X69837459Y-135413281D01*
X69929831Y-135445831D01*
X70044855Y-135474975D01*
X70116700Y-135489290D01*
X70268285Y-135516199D01*
X70415076Y-135540617D01*
X70550796Y-135561545D01*
X70669167Y-135577980D01*
X70688200Y-135580391D01*
X70757764Y-135589883D01*
X70828670Y-135600958D01*
X70890976Y-135611997D01*
X70923150Y-135618612D01*
X70981257Y-135630007D01*
X71050350Y-135641098D01*
X71116095Y-135649597D01*
X71120000Y-135650014D01*
X71184953Y-135657203D01*
X71254212Y-135665425D01*
X71313481Y-135672979D01*
X71316850Y-135673434D01*
X71391549Y-135680572D01*
X71476137Y-135683856D01*
X71562626Y-135683395D01*
X71643024Y-135679298D01*
X71709343Y-135671674D01*
X71729600Y-135667783D01*
X71822964Y-135644624D01*
X71896390Y-135621115D01*
X71955285Y-135595251D01*
X72002852Y-135566572D01*
X72045047Y-135538399D01*
X72085739Y-135513038D01*
X72106436Y-135501229D01*
X72141648Y-135469363D01*
X72160156Y-135423786D01*
X72161275Y-135370496D01*
X72144319Y-135315493D01*
X72130405Y-135291482D01*
X72108818Y-135265558D01*
X72082214Y-135247883D01*
X72045578Y-135236997D01*
X71993897Y-135231439D01*
X71922158Y-135229748D01*
X71918476Y-135229739D01*
X71853824Y-135225248D01*
X71798609Y-135213108D01*
X71758147Y-135194988D01*
X71737972Y-135173137D01*
X71722506Y-135159945D01*
X71712317Y-135160829D01*
X71688593Y-135159153D01*
X71650795Y-135144870D01*
X71604848Y-135121029D01*
X71556677Y-135090683D01*
X71514902Y-135059153D01*
X71482370Y-135034030D01*
X71456274Y-135017521D01*
X71445824Y-135013698D01*
X71423735Y-135006104D01*
X71387297Y-134985699D01*
X71341582Y-134956041D01*
X71291662Y-134920687D01*
X71242609Y-134883195D01*
X71199496Y-134847123D01*
X71173975Y-134823004D01*
X71131301Y-134774393D01*
X71110186Y-134737817D01*
X71110273Y-134712477D01*
X71120000Y-134702550D01*
X71129047Y-134684245D01*
X71132352Y-134650027D01*
X71130237Y-134608652D01*
X71123020Y-134568872D01*
X71116171Y-134550196D01*
X70251926Y-134550196D01*
X70250803Y-134574456D01*
X70249752Y-134586128D01*
X70242289Y-134638724D01*
X70232339Y-134666318D01*
X70225251Y-134670800D01*
X70224905Y-134659842D01*
X70224944Y-134659599D01*
X70129400Y-134659599D01*
X70121576Y-134666484D01*
X70116700Y-134664450D01*
X70107706Y-134669412D01*
X70104007Y-134694121D01*
X70104000Y-134695450D01*
X70100102Y-134722519D01*
X70090682Y-134734284D01*
X70090291Y-134734300D01*
X70082380Y-134723239D01*
X70085435Y-134693025D01*
X70093148Y-134661801D01*
X70099747Y-134642510D01*
X70100022Y-134642017D01*
X70112665Y-134637743D01*
X70126015Y-134648309D01*
X70129400Y-134659599D01*
X70224944Y-134659599D01*
X70229309Y-134632592D01*
X70231252Y-134623175D01*
X70235775Y-134603149D01*
X70038081Y-134603149D01*
X70034887Y-134631215D01*
X70022172Y-134668549D01*
X70015856Y-134682019D01*
X69999705Y-134719081D01*
X69990509Y-134750658D01*
X69989700Y-134758444D01*
X69983981Y-134782967D01*
X69977000Y-134791450D01*
X69967801Y-134808642D01*
X69964300Y-134836146D01*
X69960829Y-134868538D01*
X69951911Y-134909364D01*
X69939792Y-134951348D01*
X69926716Y-134987211D01*
X69914929Y-135009676D01*
X69909528Y-135013700D01*
X69902484Y-135004559D01*
X69903838Y-134997825D01*
X69911764Y-134970824D01*
X69922961Y-134926331D01*
X69935717Y-134871761D01*
X69948321Y-134814528D01*
X69959062Y-134762048D01*
X69962657Y-134742930D01*
X69975470Y-134692499D01*
X69993618Y-134644332D01*
X70005093Y-134622280D01*
X70023209Y-134594886D01*
X70032671Y-134587470D01*
X70037238Y-134597851D01*
X70038081Y-134603149D01*
X70235775Y-134603149D01*
X70242306Y-134574243D01*
X70249146Y-134550021D01*
X70251926Y-134550196D01*
X71116171Y-134550196D01*
X71114249Y-134544958D01*
X71090391Y-134514405D01*
X71074939Y-134505700D01*
X70256400Y-134505700D01*
X70251754Y-134516153D01*
X70247934Y-134514166D01*
X70246414Y-134499094D01*
X70247934Y-134497233D01*
X70255484Y-134498976D01*
X70256400Y-134505700D01*
X71074939Y-134505700D01*
X71053370Y-134493549D01*
X71023588Y-134486650D01*
X70167500Y-134486650D01*
X70161150Y-134493000D01*
X70154800Y-134486650D01*
X70161150Y-134480300D01*
X70167500Y-134486650D01*
X71023588Y-134486650D01*
X70999408Y-134481049D01*
X70924725Y-134475562D01*
X70918248Y-134475397D01*
X70855246Y-134471488D01*
X70811704Y-134461220D01*
X70781916Y-134441677D01*
X70777924Y-134435850D01*
X70180200Y-134435850D01*
X70173850Y-134442200D01*
X70167500Y-134435850D01*
X70173850Y-134429500D01*
X70180200Y-134435850D01*
X70777924Y-134435850D01*
X70760176Y-134409944D01*
X70751114Y-134389984D01*
X70742338Y-134360877D01*
X70748778Y-134339813D01*
X70761920Y-134324190D01*
X70793196Y-134284167D01*
X70817578Y-134236187D01*
X70836132Y-134176365D01*
X70849926Y-134100819D01*
X70860026Y-134005665D01*
X70863789Y-133953250D01*
X70867278Y-133886992D01*
X70354796Y-133886992D01*
X70347671Y-133920157D01*
X70347495Y-133920665D01*
X70338434Y-133954856D01*
X70329278Y-134002298D01*
X70323825Y-134039102D01*
X70318271Y-134078632D01*
X70314283Y-134094499D01*
X70311207Y-134088344D01*
X70309544Y-134074921D01*
X70310046Y-134033843D01*
X70316685Y-133987028D01*
X70318935Y-133977222D01*
X70327665Y-133934423D01*
X70332348Y-133895630D01*
X70332600Y-133887936D01*
X70335145Y-133864989D01*
X70343931Y-133864526D01*
X70346878Y-133867197D01*
X70354796Y-133886992D01*
X70867278Y-133886992D01*
X70867993Y-133873422D01*
X70870727Y-133792545D01*
X70871826Y-133718438D01*
X70871750Y-133711950D01*
X70383400Y-133711950D01*
X70377050Y-133718300D01*
X70370700Y-133711950D01*
X70377050Y-133705600D01*
X70383400Y-133711950D01*
X70871750Y-133711950D01*
X70871123Y-133658922D01*
X70870370Y-133642100D01*
X70867790Y-133596591D01*
X70395098Y-133596591D01*
X70392763Y-133613063D01*
X70388428Y-133613260D01*
X70385396Y-133596262D01*
X70387425Y-133588918D01*
X70393064Y-133584108D01*
X70395098Y-133596591D01*
X70867790Y-133596591D01*
X70866268Y-133569746D01*
X70864231Y-133517829D01*
X70864782Y-133481432D01*
X70868444Y-133455638D01*
X70875741Y-133435532D01*
X70887195Y-133416197D01*
X70895726Y-133403721D01*
X70906757Y-133387345D01*
X70915271Y-133371744D01*
X70921559Y-133353576D01*
X70925911Y-133329505D01*
X70928619Y-133296191D01*
X70929973Y-133250297D01*
X70930266Y-133188482D01*
X70929788Y-133107409D01*
X70929004Y-133022062D01*
X70929156Y-132980207D01*
X70932073Y-132948166D01*
X70940045Y-132919023D01*
X70955359Y-132885862D01*
X70980307Y-132841768D01*
X70999231Y-132809902D01*
X71046209Y-132725250D01*
X71079636Y-132648769D01*
X71103302Y-132570074D01*
X71110904Y-132530850D01*
X70256400Y-132530850D01*
X70250050Y-132537200D01*
X70243700Y-132530850D01*
X70250050Y-132524500D01*
X70256400Y-132530850D01*
X71110904Y-132530850D01*
X71120998Y-132478776D01*
X71121684Y-132474406D01*
X71131320Y-132423737D01*
X71131923Y-132421344D01*
X70307200Y-132421344D01*
X70298417Y-132434902D01*
X70294500Y-132435600D01*
X70284182Y-132446236D01*
X70281800Y-132461000D01*
X70276975Y-132481644D01*
X70270289Y-132486400D01*
X70263701Y-132476306D01*
X70265312Y-132461416D01*
X70275438Y-132439010D01*
X70289839Y-132421263D01*
X70302434Y-132413991D01*
X70307200Y-132421344D01*
X71131923Y-132421344D01*
X71139534Y-132391150D01*
X70472300Y-132391150D01*
X70465950Y-132397500D01*
X70459600Y-132391150D01*
X70465950Y-132384800D01*
X70472300Y-132391150D01*
X71139534Y-132391150D01*
X71143166Y-132376744D01*
X71152093Y-132350270D01*
X71162152Y-132317171D01*
X71163450Y-132291982D01*
X71162834Y-132289917D01*
X71162482Y-132268659D01*
X71168682Y-132232124D01*
X71177330Y-132198153D01*
X71188605Y-132158823D01*
X71196290Y-132130975D01*
X71198553Y-132121558D01*
X71201394Y-132108761D01*
X71208920Y-132078899D01*
X71215871Y-132052249D01*
X71224469Y-132010150D01*
X70485000Y-132010150D01*
X70478650Y-132016500D01*
X70472300Y-132010150D01*
X70478650Y-132003800D01*
X70485000Y-132010150D01*
X71224469Y-132010150D01*
X71224762Y-132008717D01*
X71233300Y-131950147D01*
X71235029Y-131933950D01*
X70700900Y-131933950D01*
X70694550Y-131940300D01*
X70688200Y-131933950D01*
X70694550Y-131927600D01*
X70700900Y-131933950D01*
X71235029Y-131933950D01*
X71239776Y-131889500D01*
X70497700Y-131889500D01*
X70493054Y-131899953D01*
X70489234Y-131897966D01*
X70487714Y-131882894D01*
X70489234Y-131881033D01*
X70496784Y-131882776D01*
X70497700Y-131889500D01*
X71239776Y-131889500D01*
X71240057Y-131886878D01*
X71241799Y-131864640D01*
X71243592Y-131843991D01*
X70661798Y-131843991D01*
X70659463Y-131860463D01*
X70655128Y-131860660D01*
X70654421Y-131856691D01*
X70356998Y-131856691D01*
X70354663Y-131873163D01*
X70350328Y-131873360D01*
X70347296Y-131856362D01*
X70349325Y-131849018D01*
X70354964Y-131844208D01*
X70356998Y-131856691D01*
X70654421Y-131856691D01*
X70652096Y-131843662D01*
X70654125Y-131836318D01*
X70659764Y-131831508D01*
X70661798Y-131843991D01*
X71243592Y-131843991D01*
X71244839Y-131829640D01*
X70559153Y-131829640D01*
X70556063Y-131836737D01*
X70543276Y-131850371D01*
X70535924Y-131847574D01*
X70535800Y-131845799D01*
X70544821Y-131835057D01*
X70550463Y-131831137D01*
X70559153Y-131829640D01*
X71244839Y-131829640D01*
X71246580Y-131809607D01*
X71249280Y-131787900D01*
X70713600Y-131787900D01*
X70708954Y-131798353D01*
X70705134Y-131796366D01*
X70703815Y-131783283D01*
X70525556Y-131783283D01*
X70520385Y-131811940D01*
X70518445Y-131818542D01*
X70506967Y-131849654D01*
X70500451Y-131856411D01*
X70499891Y-131839548D01*
X70504624Y-131808358D01*
X70512401Y-131780333D01*
X70520903Y-131768283D01*
X70522709Y-131768607D01*
X70525556Y-131783283D01*
X70703815Y-131783283D01*
X70703614Y-131781294D01*
X70705134Y-131779433D01*
X70712684Y-131781176D01*
X70713600Y-131787900D01*
X71249280Y-131787900D01*
X71252421Y-131762663D01*
X71258369Y-131730750D01*
X70535800Y-131730750D01*
X70529450Y-131737100D01*
X70523100Y-131730750D01*
X70529450Y-131724400D01*
X70535800Y-131730750D01*
X71258369Y-131730750D01*
X71258386Y-131730664D01*
X71261231Y-131722196D01*
X71264373Y-131703486D01*
X71264642Y-131699000D01*
X70739000Y-131699000D01*
X70734354Y-131709453D01*
X70730534Y-131707466D01*
X70729681Y-131699000D01*
X70548500Y-131699000D01*
X70543854Y-131709453D01*
X70540034Y-131707466D01*
X70539739Y-131704534D01*
X70390817Y-131704534D01*
X70384759Y-131735436D01*
X70380777Y-131749347D01*
X70369885Y-131778643D01*
X70362628Y-131784741D01*
X70360599Y-131778655D01*
X70362266Y-131749216D01*
X70370480Y-131718631D01*
X70382630Y-131693009D01*
X70389758Y-131689351D01*
X70390817Y-131704534D01*
X70539739Y-131704534D01*
X70538514Y-131692394D01*
X70540034Y-131690533D01*
X70547584Y-131692276D01*
X70548500Y-131699000D01*
X70729681Y-131699000D01*
X70729014Y-131692394D01*
X70730534Y-131690533D01*
X70738084Y-131692276D01*
X70739000Y-131699000D01*
X71264642Y-131699000D01*
X71266551Y-131667250D01*
X70548500Y-131667250D01*
X70542150Y-131673600D01*
X70535800Y-131667250D01*
X70542150Y-131660900D01*
X70548500Y-131667250D01*
X71266551Y-131667250D01*
X71266774Y-131663542D01*
X71268330Y-131606525D01*
X71268354Y-131603750D01*
X70561200Y-131603750D01*
X70554850Y-131610100D01*
X70548500Y-131603750D01*
X70554850Y-131597400D01*
X70561200Y-131603750D01*
X71268354Y-131603750D01*
X71268938Y-131536592D01*
X71268496Y-131457902D01*
X71268237Y-131439120D01*
X71267083Y-131348895D01*
X71266920Y-131280142D01*
X71267986Y-131228942D01*
X71270520Y-131191378D01*
X71274761Y-131163531D01*
X71280948Y-131141483D01*
X71287360Y-131125612D01*
X71301762Y-131088008D01*
X71309857Y-131056329D01*
X71310500Y-131049078D01*
X71316532Y-131016792D01*
X71323389Y-131000148D01*
X71333567Y-130972275D01*
X71345609Y-130926176D01*
X71352967Y-130892550D01*
X70709968Y-130892550D01*
X70709161Y-130922668D01*
X70706897Y-130933677D01*
X70704661Y-130927649D01*
X70702374Y-130892808D01*
X70704487Y-130864149D01*
X70707397Y-130855336D01*
X70709397Y-130869062D01*
X70709968Y-130892550D01*
X71352967Y-130892550D01*
X71358161Y-130868818D01*
X71369871Y-130807172D01*
X71379387Y-130748204D01*
X71383435Y-130714750D01*
X70548500Y-130714750D01*
X70542150Y-130721100D01*
X70535800Y-130714750D01*
X70542150Y-130708400D01*
X70548500Y-130714750D01*
X71383435Y-130714750D01*
X71385356Y-130698884D01*
X71386700Y-130673910D01*
X71390036Y-130627661D01*
X71398541Y-130573225D01*
X71404730Y-130545133D01*
X71409723Y-130512773D01*
X71414594Y-130457138D01*
X71418637Y-130390900D01*
X70688200Y-130390900D01*
X70683554Y-130401353D01*
X70679734Y-130399366D01*
X70678214Y-130384294D01*
X70679734Y-130382433D01*
X70687284Y-130384176D01*
X70688200Y-130390900D01*
X71418637Y-130390900D01*
X71419282Y-130380351D01*
X71423209Y-130295650D01*
X70688200Y-130295650D01*
X70681850Y-130302000D01*
X70675500Y-130295650D01*
X70681850Y-130289300D01*
X70688200Y-130295650D01*
X71423209Y-130295650D01*
X71423725Y-130284536D01*
X71425880Y-130225800D01*
X70688200Y-130225800D01*
X70683554Y-130236253D01*
X70679734Y-130234266D01*
X70678214Y-130219194D01*
X70679734Y-130217333D01*
X70687284Y-130219076D01*
X70688200Y-130225800D01*
X71425880Y-130225800D01*
X71427862Y-130171816D01*
X71428518Y-130149600D01*
X70688200Y-130149600D01*
X70683554Y-130160053D01*
X70679734Y-130158066D01*
X70678214Y-130142994D01*
X70679734Y-130141133D01*
X70687284Y-130142876D01*
X70688200Y-130149600D01*
X71428518Y-130149600D01*
X71430239Y-130091391D01*
X70687198Y-130091391D01*
X70684863Y-130107863D01*
X70680528Y-130108060D01*
X70677496Y-130091062D01*
X70679525Y-130083718D01*
X70685164Y-130078908D01*
X70687198Y-130091391D01*
X71430239Y-130091391D01*
X71431631Y-130044316D01*
X71434571Y-129921000D01*
X70688200Y-129921000D01*
X70683554Y-129931453D01*
X70679734Y-129929466D01*
X70678214Y-129914394D01*
X70679734Y-129912533D01*
X70687284Y-129914276D01*
X70688200Y-129921000D01*
X71434571Y-129921000D01*
X71434973Y-129904160D01*
X71436236Y-129837391D01*
X70674498Y-129837391D01*
X70672163Y-129853863D01*
X70667828Y-129854060D01*
X70664796Y-129837062D01*
X70666825Y-129829718D01*
X70672464Y-129824908D01*
X70674498Y-129837391D01*
X71436236Y-129837391D01*
X71437824Y-129753472D01*
X71440125Y-129594376D01*
X71441813Y-129428995D01*
X71442014Y-129395380D01*
X70671135Y-129395380D01*
X70669150Y-129400300D01*
X70657738Y-129412415D01*
X70655701Y-129413000D01*
X70650246Y-129403174D01*
X70650100Y-129400300D01*
X70659864Y-129388088D01*
X70663550Y-129387600D01*
X70671135Y-129395380D01*
X71442014Y-129395380D01*
X71442288Y-129349500D01*
X70662800Y-129349500D01*
X70658154Y-129359953D01*
X70654334Y-129357966D01*
X70652814Y-129342894D01*
X70654334Y-129341033D01*
X70661884Y-129342776D01*
X70662800Y-129349500D01*
X71442288Y-129349500D01*
X71442828Y-129259453D01*
X71442866Y-129247900D01*
X70345300Y-129247900D01*
X70340654Y-129258353D01*
X70336834Y-129256366D01*
X70335314Y-129241294D01*
X70336834Y-129239433D01*
X70344384Y-129241176D01*
X70345300Y-129247900D01*
X71442866Y-129247900D01*
X71442961Y-129219779D01*
X71443300Y-129122494D01*
X71443460Y-129101850D01*
X71031100Y-129101850D01*
X71024750Y-129108200D01*
X71018400Y-129101850D01*
X71024750Y-129095500D01*
X71031100Y-129101850D01*
X71443460Y-129101850D01*
X71443885Y-129047380D01*
X71443912Y-129045987D01*
X70989403Y-129045987D01*
X70986738Y-129058713D01*
X70985834Y-129061122D01*
X70975773Y-129076674D01*
X70970053Y-129076786D01*
X70971478Y-129063351D01*
X70978725Y-129054013D01*
X70989403Y-129045987D01*
X71443912Y-129045987D01*
X71444996Y-128991209D01*
X71446914Y-128950752D01*
X71449919Y-128922782D01*
X71454293Y-128904068D01*
X71460316Y-128891384D01*
X71468269Y-128881500D01*
X71472778Y-128876879D01*
X71514133Y-128852188D01*
X71542628Y-128847850D01*
X70660325Y-128847850D01*
X70658952Y-128869539D01*
X70654976Y-128871448D01*
X70654470Y-128870316D01*
X70651958Y-128845104D01*
X70654000Y-128832216D01*
X70658042Y-128827037D01*
X70660241Y-128843906D01*
X70660325Y-128847850D01*
X71542628Y-128847850D01*
X71583550Y-128847850D01*
X71584804Y-128746250D01*
X71587869Y-128682300D01*
X71594527Y-128644650D01*
X70650100Y-128644650D01*
X70643750Y-128651000D01*
X70637400Y-128644650D01*
X70643750Y-128638300D01*
X70650100Y-128644650D01*
X71594527Y-128644650D01*
X71596295Y-128634657D01*
X71611709Y-128594502D01*
X71613379Y-128591180D01*
X71630282Y-128549590D01*
X71639876Y-128509484D01*
X71640700Y-128498271D01*
X71647429Y-128453679D01*
X71664637Y-128414682D01*
X71682936Y-128394869D01*
X71685702Y-128390650D01*
X70942200Y-128390650D01*
X70935850Y-128397000D01*
X70929500Y-128390650D01*
X69977000Y-128390650D01*
X69970650Y-128397000D01*
X69964300Y-128390650D01*
X69970650Y-128384300D01*
X69977000Y-128390650D01*
X70929500Y-128390650D01*
X70935850Y-128384300D01*
X70942200Y-128390650D01*
X71685702Y-128390650D01*
X71691857Y-128381263D01*
X70873192Y-128381263D01*
X70860709Y-128383297D01*
X70844237Y-128380962D01*
X70844102Y-128377972D01*
X69803904Y-128377972D01*
X69789481Y-128379887D01*
X69761100Y-128380494D01*
X69729747Y-128379706D01*
X69717996Y-128377656D01*
X69726175Y-128375203D01*
X69767198Y-128373077D01*
X69796025Y-128375203D01*
X69803904Y-128377972D01*
X70844102Y-128377972D01*
X70844040Y-128376627D01*
X70861038Y-128373595D01*
X70868382Y-128375624D01*
X70873192Y-128381263D01*
X71691857Y-128381263D01*
X71694871Y-128376668D01*
X71698492Y-128363133D01*
X70810967Y-128363133D01*
X70809224Y-128370683D01*
X70802500Y-128371600D01*
X70794189Y-128367905D01*
X69576950Y-128367905D01*
X69395975Y-128369752D01*
X69323986Y-128370159D01*
X69273685Y-128369420D01*
X69241372Y-128367166D01*
X69223350Y-128363030D01*
X69215917Y-128356644D01*
X69215000Y-128351771D01*
X69219395Y-128340027D01*
X69236556Y-128336680D01*
X69272186Y-128340519D01*
X69310730Y-128345333D01*
X69365280Y-128350930D01*
X69426504Y-128356384D01*
X69453161Y-128358500D01*
X69576950Y-128367905D01*
X70794189Y-128367905D01*
X70792047Y-128366953D01*
X70794034Y-128363133D01*
X70809106Y-128361613D01*
X70810967Y-128363133D01*
X71698492Y-128363133D01*
X71700196Y-128356769D01*
X71708408Y-128321633D01*
X71717874Y-128293862D01*
X71728630Y-128248369D01*
X71730151Y-128227327D01*
X69391742Y-128227327D01*
X69382941Y-128229616D01*
X69354788Y-128231256D01*
X69313331Y-128231899D01*
X69312367Y-128231900D01*
X69269232Y-128230182D01*
X69238892Y-128225653D01*
X69227700Y-128219394D01*
X69238964Y-128215202D01*
X69267391Y-128213742D01*
X69304941Y-128214627D01*
X69343569Y-128217468D01*
X69375232Y-128221875D01*
X69391742Y-128227327D01*
X71730151Y-128227327D01*
X71733154Y-128185784D01*
X71731587Y-128113600D01*
X71724074Y-128039311D01*
X71711779Y-127974513D01*
X71699694Y-127920783D01*
X71694711Y-127882861D01*
X71696354Y-127852308D01*
X71703300Y-127823496D01*
X71710326Y-127793836D01*
X71711766Y-127764214D01*
X71707130Y-127726994D01*
X71695928Y-127674538D01*
X71692913Y-127661783D01*
X71678694Y-127601747D01*
X71661388Y-127528038D01*
X71643591Y-127451739D01*
X71633080Y-127406400D01*
X71611537Y-127324103D01*
X71588379Y-127254876D01*
X71565560Y-127204466D01*
X71562865Y-127199834D01*
X71539752Y-127154840D01*
X71528863Y-127111622D01*
X71526400Y-127063252D01*
X71522929Y-127015723D01*
X71513669Y-126954596D01*
X71500354Y-126890533D01*
X71494650Y-126867858D01*
X71479700Y-126806001D01*
X71470145Y-126749539D01*
X71464929Y-126689192D01*
X71462998Y-126615680D01*
X71462900Y-126588699D01*
X71462428Y-126519552D01*
X71460169Y-126467671D01*
X71454861Y-126424929D01*
X71445242Y-126383197D01*
X71430048Y-126334347D01*
X71417824Y-126298508D01*
X71394740Y-126227446D01*
X71369367Y-126142055D01*
X71343002Y-126047460D01*
X71316946Y-125948785D01*
X71292499Y-125851154D01*
X71270960Y-125759692D01*
X71253628Y-125679522D01*
X71241804Y-125615769D01*
X71238204Y-125590300D01*
X71232150Y-125552879D01*
X71224715Y-125525974D01*
X71221858Y-125520450D01*
X71214181Y-125502910D01*
X71202350Y-125467498D01*
X71188565Y-125420936D01*
X71184473Y-125406150D01*
X71156514Y-125303927D01*
X71132766Y-125218163D01*
X71110978Y-125140755D01*
X71101559Y-125107700D01*
X71087303Y-125057621D01*
X71083510Y-125044200D01*
X69443600Y-125044200D01*
X69433936Y-125056530D01*
X69430900Y-125056900D01*
X69418570Y-125047235D01*
X69418200Y-125044200D01*
X69427865Y-125031869D01*
X69430900Y-125031500D01*
X69443231Y-125041164D01*
X69443600Y-125044200D01*
X71083510Y-125044200D01*
X71073335Y-125008207D01*
X71067398Y-124987050D01*
X71053561Y-124943072D01*
X71038252Y-124901891D01*
X71036266Y-124897201D01*
X71025932Y-124864988D01*
X71014954Y-124817642D01*
X71005665Y-124765258D01*
X71005457Y-124763851D01*
X70996823Y-124711694D01*
X70987344Y-124664471D01*
X70979027Y-124632147D01*
X70978795Y-124631450D01*
X70966727Y-124585790D01*
X70954529Y-124523510D01*
X70943511Y-124453346D01*
X70934984Y-124384037D01*
X70930258Y-124324321D01*
X70929722Y-124304252D01*
X70927648Y-124260069D01*
X70922545Y-124223951D01*
X70917884Y-124209002D01*
X70911797Y-124187658D01*
X70904506Y-124147379D01*
X70897056Y-124094533D01*
X70892115Y-124051677D01*
X70875898Y-123930852D01*
X70854665Y-123828233D01*
X70847657Y-123805950D01*
X69494400Y-123805950D01*
X69488050Y-123812300D01*
X69481700Y-123805950D01*
X69488050Y-123799600D01*
X69494400Y-123805950D01*
X70847657Y-123805950D01*
X70829092Y-123746923D01*
X70822370Y-123730895D01*
X70802125Y-123664733D01*
X70798876Y-123615450D01*
X69634100Y-123615450D01*
X69627750Y-123621800D01*
X69621400Y-123615450D01*
X69627750Y-123609100D01*
X69634100Y-123615450D01*
X70798876Y-123615450D01*
X70797733Y-123598131D01*
X70801192Y-123580663D01*
X69653992Y-123580663D01*
X69641509Y-123582697D01*
X69625037Y-123580362D01*
X69624840Y-123576027D01*
X69641838Y-123572995D01*
X69649182Y-123575024D01*
X69653992Y-123580663D01*
X70801192Y-123580663D01*
X70808136Y-123545600D01*
X70836444Y-123471980D01*
X70866331Y-123396197D01*
X70895610Y-123323611D01*
X70922100Y-123259583D01*
X70943615Y-123209474D01*
X70956195Y-123182166D01*
X70981892Y-123143963D01*
X71026091Y-123094177D01*
X71086223Y-123035411D01*
X71159718Y-122970267D01*
X71192167Y-122943102D01*
X71240678Y-122889935D01*
X71286965Y-122812872D01*
X71330413Y-122713368D01*
X71334501Y-122701050D01*
X70330125Y-122701050D01*
X70328752Y-122722739D01*
X70324776Y-122724648D01*
X70324270Y-122723516D01*
X70321758Y-122698304D01*
X70323800Y-122685416D01*
X70327842Y-122680237D01*
X70330041Y-122697106D01*
X70330125Y-122701050D01*
X71334501Y-122701050D01*
X71370405Y-122592875D01*
X71406326Y-122452848D01*
X71413176Y-122421650D01*
X71426297Y-122360335D01*
X71439488Y-122298835D01*
X71450389Y-122248141D01*
X71452685Y-122237500D01*
X71462785Y-122197869D01*
X71472935Y-122169289D01*
X71478707Y-122160134D01*
X71485855Y-122144609D01*
X71494149Y-122111060D01*
X71501815Y-122066692D01*
X71501931Y-122065875D01*
X71509615Y-122020210D01*
X71517918Y-121984093D01*
X71524995Y-121965440D01*
X71538367Y-121936765D01*
X71549757Y-121892216D01*
X71557564Y-121841316D01*
X71560184Y-121793589D01*
X71558218Y-121767997D01*
X71536099Y-121700397D01*
X71512370Y-121659650D01*
X70316698Y-121659650D01*
X70315676Y-121685787D01*
X70312798Y-121692533D01*
X70311175Y-121688373D01*
X70308809Y-121657874D01*
X70310918Y-121637573D01*
X70314264Y-121630534D01*
X70316368Y-121645799D01*
X70316698Y-121659650D01*
X71512370Y-121659650D01*
X71491325Y-121623512D01*
X71424511Y-121538241D01*
X71375638Y-121486792D01*
X70414280Y-121486792D01*
X70412317Y-121503195D01*
X70405255Y-121509644D01*
X70387371Y-121526335D01*
X70364500Y-121554486D01*
X70359673Y-121561225D01*
X70338513Y-121587510D01*
X70321610Y-121601695D01*
X70318648Y-121602500D01*
X70303666Y-121611305D01*
X70279697Y-121633614D01*
X70267022Y-121647376D01*
X70239998Y-121674306D01*
X70223260Y-121684357D01*
X70219757Y-121677972D01*
X70232439Y-121655594D01*
X70241648Y-121643567D01*
X70265710Y-121608331D01*
X70283315Y-121573925D01*
X70296943Y-121548985D01*
X70309802Y-121539000D01*
X70317311Y-121548256D01*
X70315464Y-121557643D01*
X70315112Y-121577775D01*
X70319541Y-121583227D01*
X70331536Y-121578708D01*
X70339022Y-121564175D01*
X70352322Y-121537593D01*
X70372571Y-121511339D01*
X70393821Y-121491532D01*
X70410123Y-121484287D01*
X70414280Y-121486792D01*
X71375638Y-121486792D01*
X71337886Y-121447052D01*
X71292807Y-121403986D01*
X70599368Y-121403986D01*
X70585706Y-121415323D01*
X70583425Y-121416289D01*
X70554382Y-121423332D01*
X70537460Y-121418496D01*
X70535800Y-121413480D01*
X70546645Y-121402980D01*
X70567550Y-121396191D01*
X70592001Y-121395944D01*
X70599368Y-121403986D01*
X71292807Y-121403986D01*
X71283544Y-121395137D01*
X71241607Y-121358407D01*
X71207300Y-121333338D01*
X71175848Y-121316407D01*
X71145400Y-121305011D01*
X71098777Y-121288281D01*
X71056005Y-121269881D01*
X71037450Y-121260207D01*
X71018385Y-121250738D01*
X70996322Y-121244960D01*
X70965959Y-121242516D01*
X70921994Y-121243049D01*
G36*
X70146390Y-122666125D02*
G01*
X70144712Y-122692126D01*
X70146390Y-122697875D01*
X70151025Y-122699470D01*
X70152795Y-122682000D01*
X70150799Y-122663970D01*
X70146390Y-122666125D01*
G37*
X70146390Y-122666125D02*
X70144712Y-122692126D01*
X70146390Y-122697875D01*
X70151025Y-122699470D01*
X70152795Y-122682000D01*
X70150799Y-122663970D01*
X70146390Y-122666125D01*
G36*
X115041305Y-101228422D02*
G01*
X114930140Y-101264226D01*
X114761476Y-101350961D01*
X114585021Y-101481408D01*
X114420659Y-101638439D01*
X114288274Y-101804923D01*
X114270824Y-101832210D01*
X114204109Y-101929043D01*
X114139891Y-102003563D01*
X114106038Y-102030961D01*
X114042324Y-102048312D01*
X113934329Y-102062044D01*
X113804613Y-102069356D01*
X113795354Y-102069554D01*
X113606101Y-102076318D01*
X113476312Y-102089124D01*
X113398777Y-102109320D01*
X113366281Y-102138258D01*
X113364211Y-102150259D01*
X113395175Y-102211944D01*
X113478774Y-102261671D01*
X113601062Y-102293424D01*
X113715475Y-102301842D01*
X113835240Y-102307681D01*
X113914186Y-102330371D01*
X113977714Y-102377671D01*
X113984019Y-102383876D01*
X114039839Y-102452201D01*
X114065815Y-102508641D01*
X114066053Y-102512425D01*
X114041405Y-102608145D01*
X113980858Y-102709220D01*
X113904504Y-102784501D01*
X113882533Y-102796943D01*
X113819813Y-102832851D01*
X113805496Y-102875929D01*
X113831340Y-102951770D01*
X113832105Y-102953553D01*
X113853990Y-102998352D01*
X113861597Y-102980720D01*
X113863177Y-102944371D01*
X113888981Y-102880319D01*
X113948532Y-102835482D01*
X114021737Y-102814234D01*
X114088502Y-102820948D01*
X114128733Y-102859999D01*
X114132895Y-102885662D01*
X114115171Y-102930807D01*
X114099474Y-102936843D01*
X114067938Y-102910734D01*
X114066053Y-102897851D01*
X114052920Y-102875071D01*
X114044580Y-102880333D01*
X114044555Y-102919860D01*
X114062729Y-102949549D01*
X114085426Y-103009251D01*
X114081679Y-103080508D01*
X114057538Y-103138666D01*
X114019052Y-103159072D01*
X114011798Y-103157122D01*
X113973253Y-103149759D01*
X113974151Y-103177592D01*
X114015398Y-103248770D01*
X114023346Y-103260984D01*
X114062372Y-103355638D01*
X114071040Y-103442849D01*
X114082239Y-103541407D01*
X114113747Y-103611925D01*
X114154685Y-103704757D01*
X114166316Y-103778805D01*
X114194865Y-103873181D01*
X114266579Y-103944759D01*
X114332679Y-104007079D01*
X114365913Y-104064748D01*
X114366842Y-104072759D01*
X114338640Y-104150873D01*
X114271435Y-104200747D01*
X114236215Y-104206843D01*
X114188175Y-104229181D01*
X114111595Y-104287614D01*
X114027096Y-104365593D01*
X113881077Y-104509649D01*
X113765487Y-104617006D01*
X113664966Y-104699660D01*
X113564151Y-104769607D01*
X113447681Y-104838841D01*
X113357443Y-104888527D01*
X113193865Y-104983611D01*
X113081348Y-105065824D01*
X113007871Y-105144388D01*
X112991082Y-105169539D01*
X112921519Y-105269631D01*
X112832337Y-105380896D01*
X112791680Y-105426711D01*
X112683974Y-105547142D01*
X112588112Y-105661970D01*
X112513505Y-105759174D01*
X112469568Y-105826734D01*
X112461842Y-105847907D01*
X112441389Y-105887127D01*
X112389341Y-105955914D01*
X112353224Y-105998308D01*
X112269146Y-106109256D01*
X112166982Y-106269297D01*
X112053808Y-106465598D01*
X111936703Y-106685328D01*
X111822741Y-106915655D01*
X111719000Y-107143746D01*
X111710031Y-107164606D01*
X111665718Y-107252379D01*
X111595398Y-107374426D01*
X111511184Y-107510115D01*
X111471159Y-107571368D01*
X111370225Y-107733213D01*
X111305139Y-107865634D01*
X111266744Y-107988626D01*
X111256874Y-108039263D01*
X111238833Y-108279324D01*
X111261678Y-108513249D01*
X111322800Y-108717438D01*
X111334724Y-108743258D01*
X111393572Y-108829965D01*
X111492410Y-108941498D01*
X111616631Y-109064119D01*
X111751631Y-109184090D01*
X111882804Y-109287672D01*
X111985888Y-109355741D01*
X112158875Y-109457488D01*
X112271478Y-109531254D01*
X112323940Y-109577205D01*
X112328158Y-109587310D01*
X112351341Y-109614544D01*
X112423901Y-109634814D01*
X112550352Y-109648654D01*
X112735210Y-109656597D01*
X112935686Y-109659092D01*
X113131443Y-109661712D01*
X113267943Y-109670093D01*
X113352720Y-109687344D01*
X113393305Y-109716575D01*
X113397234Y-109760894D01*
X113372037Y-109823409D01*
X113365240Y-109836367D01*
X113340873Y-109915753D01*
X113363620Y-109987582D01*
X113395292Y-110058958D01*
X113436508Y-110167557D01*
X113468918Y-110261636D01*
X113534561Y-110461596D01*
X113417854Y-110590778D01*
X113313099Y-110740048D01*
X113274574Y-110883270D01*
X113302056Y-111021618D01*
X113327302Y-111069225D01*
X113383670Y-111219843D01*
X113394851Y-111410129D01*
X113365871Y-111605958D01*
X113352601Y-111713953D01*
X113376661Y-111808538D01*
X113400090Y-111856121D01*
X113449523Y-112001438D01*
X113464474Y-112153276D01*
X113474418Y-112282594D01*
X113499583Y-112406165D01*
X113514605Y-112450287D01*
X113546543Y-112562352D01*
X113563797Y-112692229D01*
X113564783Y-112724937D01*
X113570840Y-112832621D01*
X113586841Y-112977919D01*
X113609598Y-113132907D01*
X113614869Y-113163685D01*
X113638587Y-113316387D01*
X113656238Y-113464409D01*
X113664650Y-113580247D01*
X113664947Y-113598158D01*
X113676368Y-113714180D01*
X113708766Y-113881250D01*
X113759406Y-114087923D01*
X113825554Y-114322751D01*
X113880507Y-114500527D01*
X113913229Y-114620562D01*
X113945360Y-114766746D01*
X113961635Y-114856998D01*
X113987842Y-114985321D01*
X114021058Y-115101254D01*
X114045086Y-115160717D01*
X114073405Y-115246857D01*
X114094876Y-115369650D01*
X114103292Y-115472666D01*
X114118209Y-115629680D01*
X114148007Y-115798390D01*
X114170481Y-115887500D01*
X114207345Y-116028300D01*
X114244443Y-116196428D01*
X114270836Y-116338685D01*
X114300003Y-116483788D01*
X114343937Y-116662799D01*
X114395238Y-116846566D01*
X114420933Y-116929860D01*
X114469134Y-117085807D01*
X114511127Y-117231989D01*
X114541245Y-117348146D01*
X114551739Y-117397755D01*
X114578173Y-117514585D01*
X114616146Y-117641896D01*
X114624831Y-117666675D01*
X114660658Y-117852355D01*
X114654532Y-117944556D01*
X114648247Y-118053643D01*
X114677278Y-118139661D01*
X114703797Y-118180696D01*
X114733483Y-118229496D01*
X114754181Y-118286910D01*
X114767851Y-118366226D01*
X114776454Y-118480730D01*
X114781952Y-118643707D01*
X114783645Y-118721631D01*
X114788269Y-118890177D01*
X114794662Y-119037027D01*
X114802035Y-119147931D01*
X114809599Y-119208637D01*
X114810831Y-119212895D01*
X114826153Y-119276692D01*
X114841645Y-119373825D01*
X114845360Y-119403910D01*
X114873664Y-119518605D01*
X114922873Y-119621457D01*
X114933985Y-119636959D01*
X114985651Y-119729940D01*
X114987314Y-119830965D01*
X114985938Y-119838642D01*
X114965392Y-119948158D01*
X116513585Y-119948158D01*
X116490457Y-119872961D01*
X116469082Y-119792994D01*
X116443843Y-119684784D01*
X116436352Y-119649917D01*
X116404668Y-119544061D01*
X116362911Y-119458228D01*
X116349062Y-119439844D01*
X116322505Y-119394296D01*
X116302284Y-119317435D01*
X116286577Y-119198396D01*
X116273566Y-119026313D01*
X116270282Y-118969401D01*
X116257949Y-118799351D01*
X116241285Y-118643450D01*
X116222535Y-118519634D01*
X116205094Y-118448737D01*
X116185054Y-118368737D01*
X116177287Y-118258283D01*
X116181341Y-118103821D01*
X116189530Y-117980842D01*
X116206125Y-117678841D01*
X116214373Y-117323624D01*
X116214100Y-116928317D01*
X116208002Y-116606053D01*
X116205845Y-116485875D01*
X116204195Y-116316707D01*
X116203158Y-116116397D01*
X116202839Y-115902795D01*
X116203043Y-115773780D01*
X116202000Y-115581733D01*
X116198065Y-115412119D01*
X116191749Y-115276583D01*
X116183564Y-115186768D01*
X116175884Y-115155491D01*
X116155292Y-115102957D01*
X116134691Y-115009548D01*
X116125327Y-114947758D01*
X116116807Y-114833442D01*
X116130184Y-114757836D01*
X116165806Y-114699883D01*
X116228163Y-114647670D01*
X116290647Y-114651752D01*
X116359304Y-114714957D01*
X116430839Y-114823809D01*
X116508383Y-114942623D01*
X116604833Y-115070880D01*
X116657850Y-115133908D01*
X116741659Y-115231557D01*
X116814655Y-115322615D01*
X116848761Y-115369474D01*
X116896194Y-115438765D01*
X116967347Y-115540416D01*
X117046895Y-115652536D01*
X117047622Y-115653553D01*
X117115067Y-115750113D01*
X117157246Y-115824098D01*
X117180256Y-115896679D01*
X117190198Y-115989023D01*
X117193170Y-116122300D01*
X117193500Y-116159889D01*
X117196079Y-116465698D01*
X117333030Y-116621282D01*
X117427143Y-116741178D01*
X117494319Y-116863050D01*
X117538570Y-117001390D01*
X117563911Y-117170690D01*
X117574354Y-117385444D01*
X117575263Y-117496034D01*
X117581041Y-117735017D01*
X117597547Y-117938424D01*
X117623540Y-118091355D01*
X117625523Y-118099173D01*
X117646139Y-118211642D01*
X117663802Y-118380774D01*
X117678711Y-118609355D01*
X117691063Y-118900171D01*
X117697714Y-119120146D01*
X117719645Y-119948158D01*
X119020551Y-119948158D01*
X119009997Y-118953882D01*
X119008168Y-118698519D01*
X119008146Y-118461453D01*
X119009798Y-118251884D01*
X119012996Y-118079015D01*
X119017609Y-117952045D01*
X119023507Y-117880177D01*
X119025336Y-117871297D01*
X119027275Y-117757934D01*
X118995237Y-117674712D01*
X118955931Y-117545471D01*
X118963193Y-117445520D01*
X118975362Y-117355089D01*
X118984838Y-117229854D01*
X118991352Y-117085538D01*
X118994633Y-116937860D01*
X118994413Y-116802542D01*
X118990421Y-116695304D01*
X118982390Y-116631867D01*
X118977309Y-116621751D01*
X118966414Y-116582759D01*
X118964421Y-116498358D01*
X118968966Y-116421466D01*
X118974498Y-116305399D01*
X118960873Y-116225797D01*
X118921209Y-116153422D01*
X118898632Y-116122721D01*
X118843101Y-116027868D01*
X118813400Y-115934182D01*
X118811842Y-115914301D01*
X118795837Y-115823165D01*
X118756232Y-115717258D01*
X118745000Y-115694956D01*
X118701170Y-115584795D01*
X118678871Y-115473222D01*
X118678158Y-115455120D01*
X118669311Y-115371832D01*
X118647713Y-115321638D01*
X118644737Y-115319343D01*
X118630445Y-115278751D01*
X118619316Y-115185498D01*
X118612646Y-115053741D01*
X118611316Y-114954300D01*
X118608029Y-114786553D01*
X118599214Y-114622969D01*
X118586440Y-114488434D01*
X118578788Y-114438395D01*
X118562746Y-114321634D01*
X118549692Y-114167607D01*
X118542013Y-114005884D01*
X118541317Y-113974294D01*
X118535250Y-113830504D01*
X118523423Y-113703643D01*
X118508044Y-113615157D01*
X118502616Y-113598158D01*
X118482551Y-113517855D01*
X118467472Y-113401916D01*
X118462507Y-113322591D01*
X118448593Y-113183782D01*
X118414358Y-113090697D01*
X118387923Y-113055223D01*
X118338012Y-112968908D01*
X118296683Y-112842914D01*
X118269098Y-112702800D01*
X118260424Y-112574126D01*
X118273386Y-112488335D01*
X118287590Y-112381335D01*
X118270937Y-112247372D01*
X118255688Y-112158733D01*
X118257665Y-112086484D01*
X118281472Y-112007059D01*
X118331710Y-111896889D01*
X118344469Y-111870849D01*
X118399529Y-111754006D01*
X118426294Y-111677770D01*
X118428562Y-111624116D01*
X118410135Y-111575019D01*
X118407776Y-111570553D01*
X118382474Y-111499643D01*
X118400414Y-111465393D01*
X118420158Y-111419367D01*
X118416261Y-111317507D01*
X118408577Y-111262850D01*
X118397299Y-111111158D01*
X118402939Y-110929401D01*
X118413216Y-110828376D01*
X118425383Y-110681746D01*
X118430787Y-110497649D01*
X118428900Y-110305168D01*
X118424492Y-110205047D01*
X118415474Y-110029661D01*
X118416672Y-109909226D01*
X118433650Y-109832012D01*
X118471975Y-109786290D01*
X118537212Y-109760330D01*
X118634928Y-109742403D01*
X118644737Y-109740900D01*
X118814263Y-109692499D01*
X118939511Y-109602218D01*
X119026111Y-109463791D01*
X119079691Y-109270951D01*
X119082649Y-109253421D01*
X119107804Y-109123106D01*
X119138902Y-108992449D01*
X119145271Y-108969343D01*
X119213814Y-108701974D01*
X113257432Y-108701974D01*
X113253820Y-108759051D01*
X113243357Y-108764077D01*
X113242025Y-108761097D01*
X113235414Y-108694750D01*
X113240787Y-108660834D01*
X113251425Y-108647205D01*
X113257212Y-108691595D01*
X113257432Y-108701974D01*
X119213814Y-108701974D01*
X119214444Y-108699519D01*
X119252927Y-108476954D01*
X119258682Y-108359518D01*
X113246174Y-108359518D01*
X113243572Y-108454126D01*
X113232285Y-108503460D01*
X113211252Y-108518141D01*
X113210257Y-108518158D01*
X113169511Y-108546704D01*
X113143290Y-108604490D01*
X113129680Y-108644250D01*
X113112223Y-108646660D01*
X113083836Y-108604337D01*
X113037436Y-108509896D01*
X113023068Y-108479161D01*
X112994319Y-108417895D01*
X112896316Y-108417895D01*
X112889576Y-108471017D01*
X112864376Y-108465677D01*
X112856211Y-108458000D01*
X112833314Y-108412521D01*
X112856211Y-108377790D01*
X112886141Y-108361339D01*
X112896072Y-108401809D01*
X112896316Y-108417895D01*
X112994319Y-108417895D01*
X112965630Y-108356761D01*
X112912872Y-108245958D01*
X112878977Y-108176339D01*
X112853962Y-108100355D01*
X112865943Y-108065090D01*
X112898354Y-108024947D01*
X112943886Y-107945728D01*
X112967904Y-107897238D01*
X113021542Y-107801628D01*
X113073359Y-107757313D01*
X113116597Y-107749474D01*
X113158046Y-107754246D01*
X113187568Y-107775416D01*
X113207949Y-107823260D01*
X113221976Y-107908059D01*
X113232433Y-108040090D01*
X113241152Y-108209014D01*
X113246174Y-108359518D01*
X119258682Y-108359518D01*
X119262077Y-108290244D01*
X119244499Y-108134039D01*
X119222996Y-108005930D01*
X119201433Y-107840752D01*
X119183551Y-107668172D01*
X119179182Y-107615790D01*
X119158831Y-107434183D01*
X119126975Y-107238090D01*
X119089730Y-107063972D01*
X119081060Y-107030921D01*
X119039095Y-106875541D01*
X119018495Y-106796974D01*
X115007417Y-106796974D01*
X114947292Y-106905593D01*
X114899347Y-106986746D01*
X114874818Y-107012335D01*
X114868901Y-106989145D01*
X114888763Y-106948306D01*
X114935822Y-106883831D01*
X114938531Y-106880527D01*
X115007417Y-106796974D01*
X119018495Y-106796974D01*
X118997566Y-106717157D01*
X118964941Y-106588108D01*
X118962901Y-106579737D01*
X118917535Y-106409482D01*
X118874792Y-106280204D01*
X118837921Y-106200661D01*
X118814038Y-106178685D01*
X118796833Y-106165915D01*
X118768520Y-106123013D01*
X118725485Y-106043085D01*
X118664115Y-105919239D01*
X118580794Y-105744582D01*
X118531915Y-105640617D01*
X118484424Y-105526925D01*
X118452093Y-105425972D01*
X118443026Y-105373248D01*
X118424099Y-105274974D01*
X118364607Y-105175808D01*
X118255955Y-105062344D01*
X118226974Y-105036229D01*
X118220250Y-105031160D01*
X118106161Y-105031160D01*
X118093257Y-105032202D01*
X118048651Y-105010144D01*
X117998000Y-104974270D01*
X117990960Y-104949742D01*
X118026010Y-104955101D01*
X118069020Y-104989775D01*
X118106161Y-105031160D01*
X118220250Y-105031160D01*
X118119995Y-104955593D01*
X117991959Y-104879161D01*
X117863608Y-104817454D01*
X117755685Y-104780996D01*
X117713054Y-104775512D01*
X117677461Y-104780998D01*
X117703363Y-104804174D01*
X117707980Y-104807116D01*
X117745971Y-104842419D01*
X117731132Y-104860309D01*
X117675697Y-104858688D01*
X117591899Y-104835459D01*
X117576725Y-104829616D01*
X117463241Y-104794424D01*
X117323883Y-104764709D01*
X117249484Y-104753950D01*
X117122918Y-104732771D01*
X117007816Y-104702072D01*
X116956974Y-104681853D01*
X116847869Y-104618897D01*
X116748139Y-104547697D01*
X116676437Y-104483506D01*
X116597291Y-104483506D01*
X116591142Y-104504720D01*
X116558083Y-104539022D01*
X116541398Y-104508545D01*
X116539211Y-104467527D01*
X116547399Y-104419040D01*
X116575628Y-104430423D01*
X116576404Y-104431194D01*
X116597291Y-104483506D01*
X116676437Y-104483506D01*
X116673584Y-104480952D01*
X116640006Y-104431364D01*
X116639474Y-104426669D01*
X116612751Y-104370395D01*
X116542153Y-104293870D01*
X116518154Y-104273685D01*
X114450395Y-104273685D01*
X114447745Y-104304482D01*
X114435657Y-104307106D01*
X114401623Y-104282845D01*
X114400263Y-104273685D01*
X114411666Y-104241132D01*
X114415001Y-104240264D01*
X114443535Y-104263683D01*
X114450395Y-104273685D01*
X116518154Y-104273685D01*
X116442032Y-104209662D01*
X116326743Y-104130340D01*
X116254070Y-104089192D01*
X116168264Y-104041870D01*
X116142219Y-104018142D01*
X116173899Y-104016124D01*
X116175344Y-104016325D01*
X116217570Y-104020039D01*
X116244360Y-104008174D01*
X116260569Y-103968172D01*
X116271049Y-103887469D01*
X116280654Y-103753506D01*
X116281421Y-103741791D01*
X116294473Y-103596828D01*
X116312496Y-103466385D01*
X116332144Y-103373440D01*
X116337384Y-103357519D01*
X116356615Y-103267851D01*
X116342322Y-103227901D01*
X116326597Y-103205127D01*
X116327779Y-103172296D01*
X116350426Y-103114674D01*
X116399098Y-103017529D01*
X116419590Y-102978219D01*
X116452571Y-102888537D01*
X116454892Y-102857054D01*
X116427459Y-102857054D01*
X116422237Y-102870000D01*
X116392205Y-102901884D01*
X116386844Y-102903421D01*
X116372489Y-102877564D01*
X116372105Y-102870000D01*
X116397798Y-102837864D01*
X116407499Y-102836579D01*
X116427459Y-102857054D01*
X116454892Y-102857054D01*
X116458168Y-102812640D01*
X116456364Y-102805383D01*
X116465572Y-102728275D01*
X116509112Y-102673552D01*
X116553628Y-102620564D01*
X116569212Y-102557635D01*
X116561916Y-102458331D01*
X116560606Y-102448608D01*
X116524686Y-102307140D01*
X116457083Y-102137410D01*
X116368840Y-101962557D01*
X116271002Y-101805722D01*
X116224524Y-101744427D01*
X116148276Y-101668483D01*
X116036555Y-101576973D01*
X115911652Y-101487961D01*
X115893425Y-101476113D01*
X115776434Y-101397370D01*
X115712659Y-101343951D01*
X115696132Y-101310116D01*
X115706796Y-101296581D01*
X115732636Y-101276609D01*
X115721344Y-101264473D01*
X115661368Y-101254813D01*
X115603421Y-101248612D01*
X115524822Y-101240387D01*
X115408984Y-101228073D01*
X115315983Y-101218100D01*
X115167193Y-101210513D01*
X115041305Y-101228422D01*
G37*
X115041305Y-101228422D02*
X114930140Y-101264226D01*
X114761476Y-101350961D01*
X114585021Y-101481408D01*
X114420659Y-101638439D01*
X114288274Y-101804923D01*
X114270824Y-101832210D01*
X114204109Y-101929043D01*
X114139891Y-102003563D01*
X114106038Y-102030961D01*
X114042324Y-102048312D01*
X113934329Y-102062044D01*
X113804613Y-102069356D01*
X113795354Y-102069554D01*
X113606101Y-102076318D01*
X113476312Y-102089124D01*
X113398777Y-102109320D01*
X113366281Y-102138258D01*
X113364211Y-102150259D01*
X113395175Y-102211944D01*
X113478774Y-102261671D01*
X113601062Y-102293424D01*
X113715475Y-102301842D01*
X113835240Y-102307681D01*
X113914186Y-102330371D01*
X113977714Y-102377671D01*
X113984019Y-102383876D01*
X114039839Y-102452201D01*
X114065815Y-102508641D01*
X114066053Y-102512425D01*
X114041405Y-102608145D01*
X113980858Y-102709220D01*
X113904504Y-102784501D01*
X113882533Y-102796943D01*
X113819813Y-102832851D01*
X113805496Y-102875929D01*
X113831340Y-102951770D01*
X113832105Y-102953553D01*
X113853990Y-102998352D01*
X113861597Y-102980720D01*
X113863177Y-102944371D01*
X113888981Y-102880319D01*
X113948532Y-102835482D01*
X114021737Y-102814234D01*
X114088502Y-102820948D01*
X114128733Y-102859999D01*
X114132895Y-102885662D01*
X114115171Y-102930807D01*
X114099474Y-102936843D01*
X114067938Y-102910734D01*
X114066053Y-102897851D01*
X114052920Y-102875071D01*
X114044580Y-102880333D01*
X114044555Y-102919860D01*
X114062729Y-102949549D01*
X114085426Y-103009251D01*
X114081679Y-103080508D01*
X114057538Y-103138666D01*
X114019052Y-103159072D01*
X114011798Y-103157122D01*
X113973253Y-103149759D01*
X113974151Y-103177592D01*
X114015398Y-103248770D01*
X114023346Y-103260984D01*
X114062372Y-103355638D01*
X114071040Y-103442849D01*
X114082239Y-103541407D01*
X114113747Y-103611925D01*
X114154685Y-103704757D01*
X114166316Y-103778805D01*
X114194865Y-103873181D01*
X114266579Y-103944759D01*
X114332679Y-104007079D01*
X114365913Y-104064748D01*
X114366842Y-104072759D01*
X114338640Y-104150873D01*
X114271435Y-104200747D01*
X114236215Y-104206843D01*
X114188175Y-104229181D01*
X114111595Y-104287614D01*
X114027096Y-104365593D01*
X113881077Y-104509649D01*
X113765487Y-104617006D01*
X113664966Y-104699660D01*
X113564151Y-104769607D01*
X113447681Y-104838841D01*
X113357443Y-104888527D01*
X113193865Y-104983611D01*
X113081348Y-105065824D01*
X113007871Y-105144388D01*
X112991082Y-105169539D01*
X112921519Y-105269631D01*
X112832337Y-105380896D01*
X112791680Y-105426711D01*
X112683974Y-105547142D01*
X112588112Y-105661970D01*
X112513505Y-105759174D01*
X112469568Y-105826734D01*
X112461842Y-105847907D01*
X112441389Y-105887127D01*
X112389341Y-105955914D01*
X112353224Y-105998308D01*
X112269146Y-106109256D01*
X112166982Y-106269297D01*
X112053808Y-106465598D01*
X111936703Y-106685328D01*
X111822741Y-106915655D01*
X111719000Y-107143746D01*
X111710031Y-107164606D01*
X111665718Y-107252379D01*
X111595398Y-107374426D01*
X111511184Y-107510115D01*
X111471159Y-107571368D01*
X111370225Y-107733213D01*
X111305139Y-107865634D01*
X111266744Y-107988626D01*
X111256874Y-108039263D01*
X111238833Y-108279324D01*
X111261678Y-108513249D01*
X111322800Y-108717438D01*
X111334724Y-108743258D01*
X111393572Y-108829965D01*
X111492410Y-108941498D01*
X111616631Y-109064119D01*
X111751631Y-109184090D01*
X111882804Y-109287672D01*
X111985888Y-109355741D01*
X112158875Y-109457488D01*
X112271478Y-109531254D01*
X112323940Y-109577205D01*
X112328158Y-109587310D01*
X112351341Y-109614544D01*
X112423901Y-109634814D01*
X112550352Y-109648654D01*
X112735210Y-109656597D01*
X112935686Y-109659092D01*
X113131443Y-109661712D01*
X113267943Y-109670093D01*
X113352720Y-109687344D01*
X113393305Y-109716575D01*
X113397234Y-109760894D01*
X113372037Y-109823409D01*
X113365240Y-109836367D01*
X113340873Y-109915753D01*
X113363620Y-109987582D01*
X113395292Y-110058958D01*
X113436508Y-110167557D01*
X113468918Y-110261636D01*
X113534561Y-110461596D01*
X113417854Y-110590778D01*
X113313099Y-110740048D01*
X113274574Y-110883270D01*
X113302056Y-111021618D01*
X113327302Y-111069225D01*
X113383670Y-111219843D01*
X113394851Y-111410129D01*
X113365871Y-111605958D01*
X113352601Y-111713953D01*
X113376661Y-111808538D01*
X113400090Y-111856121D01*
X113449523Y-112001438D01*
X113464474Y-112153276D01*
X113474418Y-112282594D01*
X113499583Y-112406165D01*
X113514605Y-112450287D01*
X113546543Y-112562352D01*
X113563797Y-112692229D01*
X113564783Y-112724937D01*
X113570840Y-112832621D01*
X113586841Y-112977919D01*
X113609598Y-113132907D01*
X113614869Y-113163685D01*
X113638587Y-113316387D01*
X113656238Y-113464409D01*
X113664650Y-113580247D01*
X113664947Y-113598158D01*
X113676368Y-113714180D01*
X113708766Y-113881250D01*
X113759406Y-114087923D01*
X113825554Y-114322751D01*
X113880507Y-114500527D01*
X113913229Y-114620562D01*
X113945360Y-114766746D01*
X113961635Y-114856998D01*
X113987842Y-114985321D01*
X114021058Y-115101254D01*
X114045086Y-115160717D01*
X114073405Y-115246857D01*
X114094876Y-115369650D01*
X114103292Y-115472666D01*
X114118209Y-115629680D01*
X114148007Y-115798390D01*
X114170481Y-115887500D01*
X114207345Y-116028300D01*
X114244443Y-116196428D01*
X114270836Y-116338685D01*
X114300003Y-116483788D01*
X114343937Y-116662799D01*
X114395238Y-116846566D01*
X114420933Y-116929860D01*
X114469134Y-117085807D01*
X114511127Y-117231989D01*
X114541245Y-117348146D01*
X114551739Y-117397755D01*
X114578173Y-117514585D01*
X114616146Y-117641896D01*
X114624831Y-117666675D01*
X114660658Y-117852355D01*
X114654532Y-117944556D01*
X114648247Y-118053643D01*
X114677278Y-118139661D01*
X114703797Y-118180696D01*
X114733483Y-118229496D01*
X114754181Y-118286910D01*
X114767851Y-118366226D01*
X114776454Y-118480730D01*
X114781952Y-118643707D01*
X114783645Y-118721631D01*
X114788269Y-118890177D01*
X114794662Y-119037027D01*
X114802035Y-119147931D01*
X114809599Y-119208637D01*
X114810831Y-119212895D01*
X114826153Y-119276692D01*
X114841645Y-119373825D01*
X114845360Y-119403910D01*
X114873664Y-119518605D01*
X114922873Y-119621457D01*
X114933985Y-119636959D01*
X114985651Y-119729940D01*
X114987314Y-119830965D01*
X114985938Y-119838642D01*
X114965392Y-119948158D01*
X116513585Y-119948158D01*
X116490457Y-119872961D01*
X116469082Y-119792994D01*
X116443843Y-119684784D01*
X116436352Y-119649917D01*
X116404668Y-119544061D01*
X116362911Y-119458228D01*
X116349062Y-119439844D01*
X116322505Y-119394296D01*
X116302284Y-119317435D01*
X116286577Y-119198396D01*
X116273566Y-119026313D01*
X116270282Y-118969401D01*
X116257949Y-118799351D01*
X116241285Y-118643450D01*
X116222535Y-118519634D01*
X116205094Y-118448737D01*
X116185054Y-118368737D01*
X116177287Y-118258283D01*
X116181341Y-118103821D01*
X116189530Y-117980842D01*
X116206125Y-117678841D01*
X116214373Y-117323624D01*
X116214100Y-116928317D01*
X116208002Y-116606053D01*
X116205845Y-116485875D01*
X116204195Y-116316707D01*
X116203158Y-116116397D01*
X116202839Y-115902795D01*
X116203043Y-115773780D01*
X116202000Y-115581733D01*
X116198065Y-115412119D01*
X116191749Y-115276583D01*
X116183564Y-115186768D01*
X116175884Y-115155491D01*
X116155292Y-115102957D01*
X116134691Y-115009548D01*
X116125327Y-114947758D01*
X116116807Y-114833442D01*
X116130184Y-114757836D01*
X116165806Y-114699883D01*
X116228163Y-114647670D01*
X116290647Y-114651752D01*
X116359304Y-114714957D01*
X116430839Y-114823809D01*
X116508383Y-114942623D01*
X116604833Y-115070880D01*
X116657850Y-115133908D01*
X116741659Y-115231557D01*
X116814655Y-115322615D01*
X116848761Y-115369474D01*
X116896194Y-115438765D01*
X116967347Y-115540416D01*
X117046895Y-115652536D01*
X117047622Y-115653553D01*
X117115067Y-115750113D01*
X117157246Y-115824098D01*
X117180256Y-115896679D01*
X117190198Y-115989023D01*
X117193170Y-116122300D01*
X117193500Y-116159889D01*
X117196079Y-116465698D01*
X117333030Y-116621282D01*
X117427143Y-116741178D01*
X117494319Y-116863050D01*
X117538570Y-117001390D01*
X117563911Y-117170690D01*
X117574354Y-117385444D01*
X117575263Y-117496034D01*
X117581041Y-117735017D01*
X117597547Y-117938424D01*
X117623540Y-118091355D01*
X117625523Y-118099173D01*
X117646139Y-118211642D01*
X117663802Y-118380774D01*
X117678711Y-118609355D01*
X117691063Y-118900171D01*
X117697714Y-119120146D01*
X117719645Y-119948158D01*
X119020551Y-119948158D01*
X119009997Y-118953882D01*
X119008168Y-118698519D01*
X119008146Y-118461453D01*
X119009798Y-118251884D01*
X119012996Y-118079015D01*
X119017609Y-117952045D01*
X119023507Y-117880177D01*
X119025336Y-117871297D01*
X119027275Y-117757934D01*
X118995237Y-117674712D01*
X118955931Y-117545471D01*
X118963193Y-117445520D01*
X118975362Y-117355089D01*
X118984838Y-117229854D01*
X118991352Y-117085538D01*
X118994633Y-116937860D01*
X118994413Y-116802542D01*
X118990421Y-116695304D01*
X118982390Y-116631867D01*
X118977309Y-116621751D01*
X118966414Y-116582759D01*
X118964421Y-116498358D01*
X118968966Y-116421466D01*
X118974498Y-116305399D01*
X118960873Y-116225797D01*
X118921209Y-116153422D01*
X118898632Y-116122721D01*
X118843101Y-116027868D01*
X118813400Y-115934182D01*
X118811842Y-115914301D01*
X118795837Y-115823165D01*
X118756232Y-115717258D01*
X118745000Y-115694956D01*
X118701170Y-115584795D01*
X118678871Y-115473222D01*
X118678158Y-115455120D01*
X118669311Y-115371832D01*
X118647713Y-115321638D01*
X118644737Y-115319343D01*
X118630445Y-115278751D01*
X118619316Y-115185498D01*
X118612646Y-115053741D01*
X118611316Y-114954300D01*
X118608029Y-114786553D01*
X118599214Y-114622969D01*
X118586440Y-114488434D01*
X118578788Y-114438395D01*
X118562746Y-114321634D01*
X118549692Y-114167607D01*
X118542013Y-114005884D01*
X118541317Y-113974294D01*
X118535250Y-113830504D01*
X118523423Y-113703643D01*
X118508044Y-113615157D01*
X118502616Y-113598158D01*
X118482551Y-113517855D01*
X118467472Y-113401916D01*
X118462507Y-113322591D01*
X118448593Y-113183782D01*
X118414358Y-113090697D01*
X118387923Y-113055223D01*
X118338012Y-112968908D01*
X118296683Y-112842914D01*
X118269098Y-112702800D01*
X118260424Y-112574126D01*
X118273386Y-112488335D01*
X118287590Y-112381335D01*
X118270937Y-112247372D01*
X118255688Y-112158733D01*
X118257665Y-112086484D01*
X118281472Y-112007059D01*
X118331710Y-111896889D01*
X118344469Y-111870849D01*
X118399529Y-111754006D01*
X118426294Y-111677770D01*
X118428562Y-111624116D01*
X118410135Y-111575019D01*
X118407776Y-111570553D01*
X118382474Y-111499643D01*
X118400414Y-111465393D01*
X118420158Y-111419367D01*
X118416261Y-111317507D01*
X118408577Y-111262850D01*
X118397299Y-111111158D01*
X118402939Y-110929401D01*
X118413216Y-110828376D01*
X118425383Y-110681746D01*
X118430787Y-110497649D01*
X118428900Y-110305168D01*
X118424492Y-110205047D01*
X118415474Y-110029661D01*
X118416672Y-109909226D01*
X118433650Y-109832012D01*
X118471975Y-109786290D01*
X118537212Y-109760330D01*
X118634928Y-109742403D01*
X118644737Y-109740900D01*
X118814263Y-109692499D01*
X118939511Y-109602218D01*
X119026111Y-109463791D01*
X119079691Y-109270951D01*
X119082649Y-109253421D01*
X119107804Y-109123106D01*
X119138902Y-108992449D01*
X119145271Y-108969343D01*
X119213814Y-108701974D01*
X113257432Y-108701974D01*
X113253820Y-108759051D01*
X113243357Y-108764077D01*
X113242025Y-108761097D01*
X113235414Y-108694750D01*
X113240787Y-108660834D01*
X113251425Y-108647205D01*
X113257212Y-108691595D01*
X113257432Y-108701974D01*
X119213814Y-108701974D01*
X119214444Y-108699519D01*
X119252927Y-108476954D01*
X119258682Y-108359518D01*
X113246174Y-108359518D01*
X113243572Y-108454126D01*
X113232285Y-108503460D01*
X113211252Y-108518141D01*
X113210257Y-108518158D01*
X113169511Y-108546704D01*
X113143290Y-108604490D01*
X113129680Y-108644250D01*
X113112223Y-108646660D01*
X113083836Y-108604337D01*
X113037436Y-108509896D01*
X113023068Y-108479161D01*
X112994319Y-108417895D01*
X112896316Y-108417895D01*
X112889576Y-108471017D01*
X112864376Y-108465677D01*
X112856211Y-108458000D01*
X112833314Y-108412521D01*
X112856211Y-108377790D01*
X112886141Y-108361339D01*
X112896072Y-108401809D01*
X112896316Y-108417895D01*
X112994319Y-108417895D01*
X112965630Y-108356761D01*
X112912872Y-108245958D01*
X112878977Y-108176339D01*
X112853962Y-108100355D01*
X112865943Y-108065090D01*
X112898354Y-108024947D01*
X112943886Y-107945728D01*
X112967904Y-107897238D01*
X113021542Y-107801628D01*
X113073359Y-107757313D01*
X113116597Y-107749474D01*
X113158046Y-107754246D01*
X113187568Y-107775416D01*
X113207949Y-107823260D01*
X113221976Y-107908059D01*
X113232433Y-108040090D01*
X113241152Y-108209014D01*
X113246174Y-108359518D01*
X119258682Y-108359518D01*
X119262077Y-108290244D01*
X119244499Y-108134039D01*
X119222996Y-108005930D01*
X119201433Y-107840752D01*
X119183551Y-107668172D01*
X119179182Y-107615790D01*
X119158831Y-107434183D01*
X119126975Y-107238090D01*
X119089730Y-107063972D01*
X119081060Y-107030921D01*
X119039095Y-106875541D01*
X119018495Y-106796974D01*
X115007417Y-106796974D01*
X114947292Y-106905593D01*
X114899347Y-106986746D01*
X114874818Y-107012335D01*
X114868901Y-106989145D01*
X114888763Y-106948306D01*
X114935822Y-106883831D01*
X114938531Y-106880527D01*
X115007417Y-106796974D01*
X119018495Y-106796974D01*
X118997566Y-106717157D01*
X118964941Y-106588108D01*
X118962901Y-106579737D01*
X118917535Y-106409482D01*
X118874792Y-106280204D01*
X118837921Y-106200661D01*
X118814038Y-106178685D01*
X118796833Y-106165915D01*
X118768520Y-106123013D01*
X118725485Y-106043085D01*
X118664115Y-105919239D01*
X118580794Y-105744582D01*
X118531915Y-105640617D01*
X118484424Y-105526925D01*
X118452093Y-105425972D01*
X118443026Y-105373248D01*
X118424099Y-105274974D01*
X118364607Y-105175808D01*
X118255955Y-105062344D01*
X118226974Y-105036229D01*
X118220250Y-105031160D01*
X118106161Y-105031160D01*
X118093257Y-105032202D01*
X118048651Y-105010144D01*
X117998000Y-104974270D01*
X117990960Y-104949742D01*
X118026010Y-104955101D01*
X118069020Y-104989775D01*
X118106161Y-105031160D01*
X118220250Y-105031160D01*
X118119995Y-104955593D01*
X117991959Y-104879161D01*
X117863608Y-104817454D01*
X117755685Y-104780996D01*
X117713054Y-104775512D01*
X117677461Y-104780998D01*
X117703363Y-104804174D01*
X117707980Y-104807116D01*
X117745971Y-104842419D01*
X117731132Y-104860309D01*
X117675697Y-104858688D01*
X117591899Y-104835459D01*
X117576725Y-104829616D01*
X117463241Y-104794424D01*
X117323883Y-104764709D01*
X117249484Y-104753950D01*
X117122918Y-104732771D01*
X117007816Y-104702072D01*
X116956974Y-104681853D01*
X116847869Y-104618897D01*
X116748139Y-104547697D01*
X116676437Y-104483506D01*
X116597291Y-104483506D01*
X116591142Y-104504720D01*
X116558083Y-104539022D01*
X116541398Y-104508545D01*
X116539211Y-104467527D01*
X116547399Y-104419040D01*
X116575628Y-104430423D01*
X116576404Y-104431194D01*
X116597291Y-104483506D01*
X116676437Y-104483506D01*
X116673584Y-104480952D01*
X116640006Y-104431364D01*
X116639474Y-104426669D01*
X116612751Y-104370395D01*
X116542153Y-104293870D01*
X116518154Y-104273685D01*
X114450395Y-104273685D01*
X114447745Y-104304482D01*
X114435657Y-104307106D01*
X114401623Y-104282845D01*
X114400263Y-104273685D01*
X114411666Y-104241132D01*
X114415001Y-104240264D01*
X114443535Y-104263683D01*
X114450395Y-104273685D01*
X116518154Y-104273685D01*
X116442032Y-104209662D01*
X116326743Y-104130340D01*
X116254070Y-104089192D01*
X116168264Y-104041870D01*
X116142219Y-104018142D01*
X116173899Y-104016124D01*
X116175344Y-104016325D01*
X116217570Y-104020039D01*
X116244360Y-104008174D01*
X116260569Y-103968172D01*
X116271049Y-103887469D01*
X116280654Y-103753506D01*
X116281421Y-103741791D01*
X116294473Y-103596828D01*
X116312496Y-103466385D01*
X116332144Y-103373440D01*
X116337384Y-103357519D01*
X116356615Y-103267851D01*
X116342322Y-103227901D01*
X116326597Y-103205127D01*
X116327779Y-103172296D01*
X116350426Y-103114674D01*
X116399098Y-103017529D01*
X116419590Y-102978219D01*
X116452571Y-102888537D01*
X116454892Y-102857054D01*
X116427459Y-102857054D01*
X116422237Y-102870000D01*
X116392205Y-102901884D01*
X116386844Y-102903421D01*
X116372489Y-102877564D01*
X116372105Y-102870000D01*
X116397798Y-102837864D01*
X116407499Y-102836579D01*
X116427459Y-102857054D01*
X116454892Y-102857054D01*
X116458168Y-102812640D01*
X116456364Y-102805383D01*
X116465572Y-102728275D01*
X116509112Y-102673552D01*
X116553628Y-102620564D01*
X116569212Y-102557635D01*
X116561916Y-102458331D01*
X116560606Y-102448608D01*
X116524686Y-102307140D01*
X116457083Y-102137410D01*
X116368840Y-101962557D01*
X116271002Y-101805722D01*
X116224524Y-101744427D01*
X116148276Y-101668483D01*
X116036555Y-101576973D01*
X115911652Y-101487961D01*
X115893425Y-101476113D01*
X115776434Y-101397370D01*
X115712659Y-101343951D01*
X115696132Y-101310116D01*
X115706796Y-101296581D01*
X115732636Y-101276609D01*
X115721344Y-101264473D01*
X115661368Y-101254813D01*
X115603421Y-101248612D01*
X115524822Y-101240387D01*
X115408984Y-101228073D01*
X115315983Y-101218100D01*
X115167193Y-101210513D01*
X115041305Y-101228422D01*
G36*
X117251660Y-104656554D02*
G01*
X117274474Y-104671243D01*
X117343280Y-104698016D01*
X117424869Y-104718986D01*
X117525132Y-104738833D01*
X117424869Y-104691582D01*
X117350371Y-104661920D01*
X117286616Y-104644835D01*
X117248685Y-104642367D01*
X117251660Y-104656554D01*
G37*
X117251660Y-104656554D02*
X117274474Y-104671243D01*
X117343280Y-104698016D01*
X117424869Y-104718986D01*
X117525132Y-104738833D01*
X117424869Y-104691582D01*
X117350371Y-104661920D01*
X117286616Y-104644835D01*
X117248685Y-104642367D01*
X117251660Y-104656554D01*
G36*
X113915029Y-102961340D02*
G01*
X113920283Y-102986974D01*
X113944004Y-103030948D01*
X113952655Y-103037106D01*
X113964338Y-103009815D01*
X113965790Y-102986974D01*
X113948299Y-102942490D01*
X113933417Y-102936843D01*
X113915029Y-102961340D01*
G37*
X113915029Y-102961340D02*
X113920283Y-102986974D01*
X113944004Y-103030948D01*
X113952655Y-103037106D01*
X113964338Y-103009815D01*
X113965790Y-102986974D01*
X113948299Y-102942490D01*
X113933417Y-102936843D01*
X113915029Y-102961340D01*
G36*
X113063421Y-108501448D02*
G01*
X113080132Y-108518158D01*
X113096842Y-108501448D01*
X113080132Y-108484737D01*
X113063421Y-108501448D01*
G37*
X113063421Y-108501448D02*
X113080132Y-108518158D01*
X113096842Y-108501448D01*
X113080132Y-108484737D01*
X113063421Y-108501448D01*
D12*
X139760000Y-95310000D02*
X137100000Y-95310000D01*
X137100000Y-77470000D02*
X137100000Y-95310000D01*
X140970000Y-96520000D02*
X140970000Y-73025000D01*
X138430000Y-99060000D02*
X115570000Y-99060000D01*
X139760000Y-77470000D02*
X139760000Y-74870000D01*
X113030000Y-96520000D02*
G75*
G03X115570000Y-99060000I2540000J0D01*
G01*
X113030000Y-96520000D02*
X113030000Y-73025000D01*
X115570000Y-70485000D02*
G75*
G03X113030000Y-73025000I0J-2540000D01*
G01*
X140970000Y-73025000D02*
G75*
G03X138430000Y-70485000I-2540000J0D01*
G01*
X138430000Y-99060000D02*
G75*
G03X140970000Y-96520000I0J2540000D01*
G01*
D11*
G36*
X124420040Y-70702469D02*
G01*
X124381535Y-70867284D01*
X124375333Y-71050092D01*
X124375333Y-71445850D01*
X124179377Y-71261758D01*
X123989147Y-71113621D01*
X123873007Y-71079010D01*
X123852684Y-71152498D01*
X123944059Y-71320514D01*
X124054515Y-71487418D01*
X124067258Y-71585662D01*
X123983295Y-71684166D01*
X123949824Y-71714636D01*
X123824728Y-71852065D01*
X123782667Y-71937455D01*
X123836125Y-72010550D01*
X123964870Y-71983546D01*
X124121462Y-71873013D01*
X124193525Y-71793963D01*
X124310637Y-71652679D01*
X124362295Y-71639174D01*
X124387483Y-71747937D01*
X124390170Y-71766164D01*
X124454378Y-71929526D01*
X124523500Y-71988257D01*
X124579001Y-71959889D01*
X124612552Y-71816001D01*
X124627633Y-71535238D01*
X124629333Y-71338722D01*
X124623452Y-70989122D01*
X124602099Y-70778593D01*
X124559714Y-70677162D01*
X124502333Y-70654333D01*
X124420040Y-70702469D01*
G37*
X124420040Y-70702469D02*
X124381535Y-70867284D01*
X124375333Y-71050092D01*
X124375333Y-71445850D01*
X124179377Y-71261758D01*
X123989147Y-71113621D01*
X123873007Y-71079010D01*
X123852684Y-71152498D01*
X123944059Y-71320514D01*
X124054515Y-71487418D01*
X124067258Y-71585662D01*
X123983295Y-71684166D01*
X123949824Y-71714636D01*
X123824728Y-71852065D01*
X123782667Y-71937455D01*
X123836125Y-72010550D01*
X123964870Y-71983546D01*
X124121462Y-71873013D01*
X124193525Y-71793963D01*
X124310637Y-71652679D01*
X124362295Y-71639174D01*
X124387483Y-71747937D01*
X124390170Y-71766164D01*
X124454378Y-71929526D01*
X124523500Y-71988257D01*
X124579001Y-71959889D01*
X124612552Y-71816001D01*
X124627633Y-71535238D01*
X124629333Y-71338722D01*
X124623452Y-70989122D01*
X124602099Y-70778593D01*
X124559714Y-70677162D01*
X124502333Y-70654333D01*
X124420040Y-70702469D01*
D12*
X116900000Y-77470000D02*
X116900000Y-74870000D01*
X114240000Y-77470000D02*
X114240000Y-95310000D01*
D11*
G36*
X122076313Y-71142681D02*
G01*
X121901884Y-71307672D01*
X121835601Y-71527565D01*
X121897339Y-71757281D01*
X121990167Y-71868878D01*
X122211683Y-71984204D01*
X122459636Y-71996721D01*
X122660328Y-71905059D01*
X122682217Y-71881739D01*
X122765745Y-71698791D01*
X122787833Y-71543333D01*
X122777741Y-71501472D01*
X122570073Y-71501472D01*
X122540025Y-71675752D01*
X122518557Y-71705570D01*
X122389727Y-71823061D01*
X122261625Y-71807917D01*
X122187759Y-71765295D01*
X122102182Y-71633083D01*
X122110257Y-71461107D01*
X122195629Y-71324210D01*
X122291773Y-71289333D01*
X122476317Y-71352467D01*
X122570073Y-71501472D01*
X122777741Y-71501472D01*
X122722289Y-71271473D01*
X122536345Y-71112668D01*
X122339014Y-71077666D01*
X122076313Y-71142681D01*
G37*
X122076313Y-71142681D02*
X121901884Y-71307672D01*
X121835601Y-71527565D01*
X121897339Y-71757281D01*
X121990167Y-71868878D01*
X122211683Y-71984204D01*
X122459636Y-71996721D01*
X122660328Y-71905059D01*
X122682217Y-71881739D01*
X122765745Y-71698791D01*
X122787833Y-71543333D01*
X122777741Y-71501472D01*
X122570073Y-71501472D01*
X122540025Y-71675752D01*
X122518557Y-71705570D01*
X122389727Y-71823061D01*
X122261625Y-71807917D01*
X122187759Y-71765295D01*
X122102182Y-71633083D01*
X122110257Y-71461107D01*
X122195629Y-71324210D01*
X122291773Y-71289333D01*
X122476317Y-71352467D01*
X122570073Y-71501472D01*
X122777741Y-71501472D01*
X122722289Y-71271473D01*
X122536345Y-71112668D01*
X122339014Y-71077666D01*
X122076313Y-71142681D01*
D12*
X139760000Y-74870000D02*
X137096500Y-74870000D01*
X137100000Y-77470000D02*
X137096500Y-74866500D01*
D11*
G36*
X123296538Y-71093722D02*
G01*
X123055231Y-71145673D01*
X122954399Y-71256079D01*
X122951663Y-71268167D01*
X122984563Y-71394202D01*
X123056792Y-71416333D01*
X123173392Y-71372480D01*
X123190000Y-71331667D01*
X123254429Y-71249460D01*
X123274667Y-71247000D01*
X123325160Y-71322674D01*
X123355449Y-71514138D01*
X123359333Y-71628000D01*
X123375954Y-71879122D01*
X123432468Y-71993508D01*
X123486333Y-72009000D01*
X123562558Y-71967564D01*
X123602020Y-71821967D01*
X123613333Y-71540277D01*
X123613333Y-71067445D01*
X123296538Y-71093722D01*
G37*
X123296538Y-71093722D02*
X123055231Y-71145673D01*
X122954399Y-71256079D01*
X122951663Y-71268167D01*
X122984563Y-71394202D01*
X123056792Y-71416333D01*
X123173392Y-71372480D01*
X123190000Y-71331667D01*
X123254429Y-71249460D01*
X123274667Y-71247000D01*
X123325160Y-71322674D01*
X123355449Y-71514138D01*
X123359333Y-71628000D01*
X123375954Y-71879122D01*
X123432468Y-71993508D01*
X123486333Y-72009000D01*
X123562558Y-71967564D01*
X123602020Y-71821967D01*
X123613333Y-71540277D01*
X123613333Y-71067445D01*
X123296538Y-71093722D01*
G36*
X128608996Y-70698454D02*
G01*
X128481667Y-70773547D01*
X128317299Y-70961315D01*
X128266079Y-71195567D01*
X128331496Y-71414737D01*
X128439333Y-71520649D01*
X128559168Y-71652996D01*
X128606049Y-71880781D01*
X128608667Y-71982808D01*
X128608667Y-72339216D01*
X128121833Y-72364608D01*
X127635000Y-72390000D01*
X127608380Y-72812121D01*
X127543270Y-73179962D01*
X127417880Y-73386919D01*
X127283753Y-73602710D01*
X127272071Y-73842060D01*
X127366453Y-74054172D01*
X127550522Y-74188253D01*
X127683381Y-74210333D01*
X127875167Y-74145320D01*
X128060260Y-73990528D01*
X128174146Y-73806327D01*
X128185333Y-73740624D01*
X128127181Y-73596741D01*
X127985964Y-73425032D01*
X127973667Y-73413415D01*
X127818962Y-73210444D01*
X127763806Y-72946989D01*
X127762000Y-72867124D01*
X127762000Y-72517000D01*
X129624667Y-72517000D01*
X129624667Y-72867124D01*
X129588638Y-73156416D01*
X129460271Y-73366620D01*
X129413000Y-73413415D01*
X129267645Y-73584128D01*
X129201689Y-73732681D01*
X129201334Y-73740624D01*
X129270809Y-73920090D01*
X129436227Y-74093294D01*
X129633072Y-74199864D01*
X129703286Y-74210333D01*
X129931519Y-74141067D01*
X130076193Y-73967102D01*
X130120899Y-73739187D01*
X130049229Y-73508072D01*
X129963333Y-73406000D01*
X129835834Y-73208761D01*
X129794096Y-72904453D01*
X129794000Y-72884878D01*
X129794000Y-72517000D01*
X131656667Y-72517000D01*
X131656667Y-72864648D01*
X131626910Y-73133858D01*
X131517368Y-73314954D01*
X131445000Y-73378793D01*
X131272740Y-73597679D01*
X131249164Y-73839384D01*
X131377831Y-74060607D01*
X131388167Y-74070211D01*
X131630219Y-74196614D01*
X131875317Y-74167153D01*
X132024545Y-74055500D01*
X132151682Y-73813302D01*
X132115101Y-73569605D01*
X131953000Y-73378793D01*
X131821340Y-73244429D01*
X131758242Y-73071975D01*
X131741365Y-72798222D01*
X131741333Y-72779981D01*
X131741333Y-72347667D01*
X130810000Y-72347667D01*
X130810000Y-71985483D01*
X130846782Y-71682487D01*
X130967204Y-71489069D01*
X130979333Y-71478312D01*
X131127238Y-71258586D01*
X131126337Y-71016863D01*
X130980015Y-70805386D01*
X130933532Y-70771275D01*
X130679677Y-70688679D01*
X130447189Y-70755002D01*
X130282215Y-70951653D01*
X130249182Y-71046964D01*
X130237687Y-71236605D01*
X130337691Y-71396400D01*
X130416180Y-71469115D01*
X130577506Y-71658956D01*
X130637321Y-71898755D01*
X130640667Y-72004939D01*
X130640667Y-72347667D01*
X128778000Y-72347667D01*
X128778000Y-71987033D01*
X128804387Y-71717217D01*
X128895864Y-71559307D01*
X128947333Y-71520649D01*
X129091095Y-71344768D01*
X129115935Y-71113451D01*
X129025340Y-70888262D01*
X128905000Y-70773547D01*
X128739291Y-70683965D01*
X128608996Y-70698454D01*
G37*
X128608996Y-70698454D02*
X128481667Y-70773547D01*
X128317299Y-70961315D01*
X128266079Y-71195567D01*
X128331496Y-71414737D01*
X128439333Y-71520649D01*
X128559168Y-71652996D01*
X128606049Y-71880781D01*
X128608667Y-71982808D01*
X128608667Y-72339216D01*
X128121833Y-72364608D01*
X127635000Y-72390000D01*
X127608380Y-72812121D01*
X127543270Y-73179962D01*
X127417880Y-73386919D01*
X127283753Y-73602710D01*
X127272071Y-73842060D01*
X127366453Y-74054172D01*
X127550522Y-74188253D01*
X127683381Y-74210333D01*
X127875167Y-74145320D01*
X128060260Y-73990528D01*
X128174146Y-73806327D01*
X128185333Y-73740624D01*
X128127181Y-73596741D01*
X127985964Y-73425032D01*
X127973667Y-73413415D01*
X127818962Y-73210444D01*
X127763806Y-72946989D01*
X127762000Y-72867124D01*
X127762000Y-72517000D01*
X129624667Y-72517000D01*
X129624667Y-72867124D01*
X129588638Y-73156416D01*
X129460271Y-73366620D01*
X129413000Y-73413415D01*
X129267645Y-73584128D01*
X129201689Y-73732681D01*
X129201334Y-73740624D01*
X129270809Y-73920090D01*
X129436227Y-74093294D01*
X129633072Y-74199864D01*
X129703286Y-74210333D01*
X129931519Y-74141067D01*
X130076193Y-73967102D01*
X130120899Y-73739187D01*
X130049229Y-73508072D01*
X129963333Y-73406000D01*
X129835834Y-73208761D01*
X129794096Y-72904453D01*
X129794000Y-72884878D01*
X129794000Y-72517000D01*
X131656667Y-72517000D01*
X131656667Y-72864648D01*
X131626910Y-73133858D01*
X131517368Y-73314954D01*
X131445000Y-73378793D01*
X131272740Y-73597679D01*
X131249164Y-73839384D01*
X131377831Y-74060607D01*
X131388167Y-74070211D01*
X131630219Y-74196614D01*
X131875317Y-74167153D01*
X132024545Y-74055500D01*
X132151682Y-73813302D01*
X132115101Y-73569605D01*
X131953000Y-73378793D01*
X131821340Y-73244429D01*
X131758242Y-73071975D01*
X131741365Y-72798222D01*
X131741333Y-72779981D01*
X131741333Y-72347667D01*
X130810000Y-72347667D01*
X130810000Y-71985483D01*
X130846782Y-71682487D01*
X130967204Y-71489069D01*
X130979333Y-71478312D01*
X131127238Y-71258586D01*
X131126337Y-71016863D01*
X130980015Y-70805386D01*
X130933532Y-70771275D01*
X130679677Y-70688679D01*
X130447189Y-70755002D01*
X130282215Y-70951653D01*
X130249182Y-71046964D01*
X130237687Y-71236605D01*
X130337691Y-71396400D01*
X130416180Y-71469115D01*
X130577506Y-71658956D01*
X130637321Y-71898755D01*
X130640667Y-72004939D01*
X130640667Y-72347667D01*
X128778000Y-72347667D01*
X128778000Y-71987033D01*
X128804387Y-71717217D01*
X128895864Y-71559307D01*
X128947333Y-71520649D01*
X129091095Y-71344768D01*
X129115935Y-71113451D01*
X129025340Y-70888262D01*
X128905000Y-70773547D01*
X128739291Y-70683965D01*
X128608996Y-70698454D01*
G36*
X125787530Y-72550862D02*
G01*
X125479313Y-72652545D01*
X125325648Y-72822196D01*
X125306667Y-72931682D01*
X125338612Y-73136558D01*
X125398711Y-73252510D01*
X125444966Y-73354710D01*
X125398711Y-73401440D01*
X125325639Y-73530628D01*
X125311363Y-73736763D01*
X125354633Y-73938461D01*
X125408267Y-74024067D01*
X125547840Y-74079479D01*
X125810217Y-74115479D01*
X126085600Y-74125667D01*
X126661333Y-74125667D01*
X126661333Y-73660000D01*
X126322667Y-73660000D01*
X126306772Y-73803971D01*
X126226363Y-73859825D01*
X126032357Y-73857803D01*
X126005167Y-73855611D01*
X125789111Y-73818296D01*
X125698987Y-73737425D01*
X125687667Y-73660000D01*
X125724103Y-73541754D01*
X125861751Y-73482296D01*
X126005167Y-73464389D01*
X126213057Y-73458292D01*
X126302501Y-73507083D01*
X126322584Y-73641005D01*
X126322667Y-73660000D01*
X126661333Y-73660000D01*
X126661333Y-73025000D01*
X126322667Y-73025000D01*
X126294267Y-73135784D01*
X126179478Y-73184746D01*
X125984000Y-73194333D01*
X125762432Y-73180133D01*
X125664508Y-73122739D01*
X125645333Y-73025000D01*
X125673734Y-72914216D01*
X125788523Y-72865254D01*
X125984000Y-72855667D01*
X126205568Y-72869867D01*
X126303493Y-72927261D01*
X126322667Y-73025000D01*
X126661333Y-73025000D01*
X126661333Y-72517000D01*
X126250634Y-72517000D01*
X125787530Y-72550862D01*
G37*
X125787530Y-72550862D02*
X125479313Y-72652545D01*
X125325648Y-72822196D01*
X125306667Y-72931682D01*
X125338612Y-73136558D01*
X125398711Y-73252510D01*
X125444966Y-73354710D01*
X125398711Y-73401440D01*
X125325639Y-73530628D01*
X125311363Y-73736763D01*
X125354633Y-73938461D01*
X125408267Y-74024067D01*
X125547840Y-74079479D01*
X125810217Y-74115479D01*
X126085600Y-74125667D01*
X126661333Y-74125667D01*
X126661333Y-73660000D01*
X126322667Y-73660000D01*
X126306772Y-73803971D01*
X126226363Y-73859825D01*
X126032357Y-73857803D01*
X126005167Y-73855611D01*
X125789111Y-73818296D01*
X125698987Y-73737425D01*
X125687667Y-73660000D01*
X125724103Y-73541754D01*
X125861751Y-73482296D01*
X126005167Y-73464389D01*
X126213057Y-73458292D01*
X126302501Y-73507083D01*
X126322584Y-73641005D01*
X126322667Y-73660000D01*
X126661333Y-73660000D01*
X126661333Y-73025000D01*
X126322667Y-73025000D01*
X126294267Y-73135784D01*
X126179478Y-73184746D01*
X125984000Y-73194333D01*
X125762432Y-73180133D01*
X125664508Y-73122739D01*
X125645333Y-73025000D01*
X125673734Y-72914216D01*
X125788523Y-72865254D01*
X125984000Y-72855667D01*
X126205568Y-72869867D01*
X126303493Y-72927261D01*
X126322667Y-73025000D01*
X126661333Y-73025000D01*
X126661333Y-72517000D01*
X126250634Y-72517000D01*
X125787530Y-72550862D01*
G36*
X125433667Y-71120000D02*
G01*
X125408076Y-71564500D01*
X125407789Y-71822991D01*
X125437212Y-71980458D01*
X125466707Y-72009000D01*
X125523687Y-71933521D01*
X125567222Y-71743767D01*
X125576965Y-71649897D01*
X125618272Y-71397456D01*
X125704043Y-71279184D01*
X125751167Y-71262689D01*
X125843168Y-71272547D01*
X125887359Y-71373213D01*
X125899302Y-71602408D01*
X125899333Y-71621792D01*
X125915443Y-71875160D01*
X125970383Y-71991926D01*
X126026333Y-72009000D01*
X126110041Y-71959138D01*
X126148170Y-71789597D01*
X126153333Y-71628000D01*
X126169954Y-71376878D01*
X126226468Y-71262492D01*
X126280333Y-71247000D01*
X126364041Y-71296862D01*
X126402170Y-71466403D01*
X126407333Y-71628000D01*
X126423954Y-71879122D01*
X126480468Y-71993508D01*
X126534333Y-72009000D01*
X126610657Y-71967463D01*
X126650111Y-71821567D01*
X126661333Y-71539624D01*
X126661333Y-71070248D01*
X125433667Y-71120000D01*
G37*
X125433667Y-71120000D02*
X125408076Y-71564500D01*
X125407789Y-71822991D01*
X125437212Y-71980458D01*
X125466707Y-72009000D01*
X125523687Y-71933521D01*
X125567222Y-71743767D01*
X125576965Y-71649897D01*
X125618272Y-71397456D01*
X125704043Y-71279184D01*
X125751167Y-71262689D01*
X125843168Y-71272547D01*
X125887359Y-71373213D01*
X125899302Y-71602408D01*
X125899333Y-71621792D01*
X125915443Y-71875160D01*
X125970383Y-71991926D01*
X126026333Y-72009000D01*
X126110041Y-71959138D01*
X126148170Y-71789597D01*
X126153333Y-71628000D01*
X126169954Y-71376878D01*
X126226468Y-71262492D01*
X126280333Y-71247000D01*
X126364041Y-71296862D01*
X126402170Y-71466403D01*
X126407333Y-71628000D01*
X126423954Y-71879122D01*
X126480468Y-71993508D01*
X126534333Y-72009000D01*
X126610657Y-71967463D01*
X126650111Y-71821567D01*
X126661333Y-71539624D01*
X126661333Y-71070248D01*
X125433667Y-71120000D01*
D12*
X114240000Y-77470000D02*
X114236500Y-74866500D01*
X116900000Y-77470000D02*
X114240000Y-77470000D01*
D11*
G36*
X122428000Y-72537421D02*
G01*
X122142724Y-72563947D01*
X121997350Y-72615314D01*
X121962333Y-72686333D01*
X122005886Y-72761883D01*
X122156053Y-72808973D01*
X122442102Y-72836023D01*
X122491500Y-72838540D01*
X122783931Y-72859117D01*
X122944471Y-72894502D01*
X123010555Y-72958172D01*
X123020667Y-73029040D01*
X122996171Y-73129914D01*
X122894818Y-73179254D01*
X122674809Y-73194032D01*
X122613516Y-73194333D01*
X122235669Y-73236145D01*
X122000418Y-73363800D01*
X121902490Y-73580622D01*
X121898833Y-73645175D01*
X121926186Y-73868507D01*
X122026597Y-74012148D01*
X122227599Y-74091791D01*
X122556724Y-74123132D01*
X122741756Y-74125667D01*
X123081696Y-74117612D01*
X123274252Y-74090932D01*
X123340722Y-74041849D01*
X123338533Y-74019833D01*
X123235111Y-73951811D01*
X122997507Y-73903562D01*
X122819150Y-73888479D01*
X122500673Y-73853766D01*
X122327213Y-73787226D01*
X122284335Y-73731767D01*
X122297038Y-73582841D01*
X122464546Y-73487734D01*
X122779933Y-73450094D01*
X122819800Y-73449630D01*
X123130078Y-73404596D01*
X123303247Y-73266348D01*
X123349088Y-73025915D01*
X123344285Y-72968582D01*
X123242899Y-72734084D01*
X123002002Y-72589833D01*
X122619377Y-72534785D01*
X122428000Y-72537421D01*
G37*
X122428000Y-72537421D02*
X122142724Y-72563947D01*
X121997350Y-72615314D01*
X121962333Y-72686333D01*
X122005886Y-72761883D01*
X122156053Y-72808973D01*
X122442102Y-72836023D01*
X122491500Y-72838540D01*
X122783931Y-72859117D01*
X122944471Y-72894502D01*
X123010555Y-72958172D01*
X123020667Y-73029040D01*
X122996171Y-73129914D01*
X122894818Y-73179254D01*
X122674809Y-73194032D01*
X122613516Y-73194333D01*
X122235669Y-73236145D01*
X122000418Y-73363800D01*
X121902490Y-73580622D01*
X121898833Y-73645175D01*
X121926186Y-73868507D01*
X122026597Y-74012148D01*
X122227599Y-74091791D01*
X122556724Y-74123132D01*
X122741756Y-74125667D01*
X123081696Y-74117612D01*
X123274252Y-74090932D01*
X123340722Y-74041849D01*
X123338533Y-74019833D01*
X123235111Y-73951811D01*
X122997507Y-73903562D01*
X122819150Y-73888479D01*
X122500673Y-73853766D01*
X122327213Y-73787226D01*
X122284335Y-73731767D01*
X122297038Y-73582841D01*
X122464546Y-73487734D01*
X122779933Y-73450094D01*
X122819800Y-73449630D01*
X123130078Y-73404596D01*
X123303247Y-73266348D01*
X123349088Y-73025915D01*
X123344285Y-72968582D01*
X123242899Y-72734084D01*
X123002002Y-72589833D01*
X122619377Y-72534785D01*
X122428000Y-72537421D01*
G36*
X124933745Y-71119473D02*
G01*
X124894314Y-71266170D01*
X124883333Y-71543333D01*
X124894735Y-71824158D01*
X124934743Y-71968738D01*
X125010333Y-72009000D01*
X125086922Y-71967193D01*
X125126353Y-71820497D01*
X125137333Y-71543333D01*
X125125932Y-71262508D01*
X125085924Y-71117928D01*
X125010333Y-71077667D01*
X124933745Y-71119473D01*
G37*
X124933745Y-71119473D02*
X124894314Y-71266170D01*
X124883333Y-71543333D01*
X124894735Y-71824158D01*
X124934743Y-71968738D01*
X125010333Y-72009000D01*
X125086922Y-71967193D01*
X125126353Y-71820497D01*
X125137333Y-71543333D01*
X125125932Y-71262508D01*
X125085924Y-71117928D01*
X125010333Y-71077667D01*
X124933745Y-71119473D01*
G36*
X124897662Y-70700051D02*
G01*
X124883333Y-70739000D01*
X124951910Y-70814114D01*
X125010333Y-70823667D01*
X125123005Y-70777949D01*
X125137333Y-70739000D01*
X125068757Y-70663885D01*
X125010333Y-70654333D01*
X124897662Y-70700051D01*
G37*
X124897662Y-70700051D02*
X124883333Y-70739000D01*
X124951910Y-70814114D01*
X125010333Y-70823667D01*
X125123005Y-70777949D01*
X125137333Y-70739000D01*
X125068757Y-70663885D01*
X125010333Y-70654333D01*
X124897662Y-70700051D01*
D12*
X114240000Y-95310000D02*
X116840000Y-97790000D01*
X116836500Y-74870000D02*
X114236500Y-74870000D01*
X139760000Y-77470000D02*
X139760000Y-95310000D01*
D11*
G36*
X124768841Y-72554557D02*
G01*
X124729233Y-72688382D01*
X124714634Y-72950200D01*
X124714000Y-73051151D01*
X124690039Y-73452938D01*
X124611158Y-73709339D01*
X124466865Y-73838370D01*
X124246665Y-73858045D01*
X124244158Y-73857763D01*
X124116745Y-73836581D01*
X124039358Y-73784167D01*
X123995613Y-73663316D01*
X123969125Y-73436823D01*
X123952000Y-73194333D01*
X123921166Y-72853632D01*
X123879794Y-72654312D01*
X123820436Y-72568449D01*
X123782667Y-72559333D01*
X123710463Y-72599600D01*
X123664495Y-72739998D01*
X123637050Y-73009921D01*
X123630434Y-73139489D01*
X123632908Y-73568402D01*
X123694949Y-73857498D01*
X123832370Y-74030545D01*
X124060985Y-74111310D01*
X124286571Y-74125667D01*
X124619940Y-74092907D01*
X124827192Y-73999991D01*
X124834953Y-73992619D01*
X124906307Y-73845465D01*
X124953623Y-73601095D01*
X124976715Y-73305215D01*
X124975394Y-73003533D01*
X124949475Y-72741754D01*
X124898768Y-72565587D01*
X124841000Y-72517000D01*
X124768841Y-72554557D01*
G37*
X124768841Y-72554557D02*
X124729233Y-72688382D01*
X124714634Y-72950200D01*
X124714000Y-73051151D01*
X124690039Y-73452938D01*
X124611158Y-73709339D01*
X124466865Y-73838370D01*
X124246665Y-73858045D01*
X124244158Y-73857763D01*
X124116745Y-73836581D01*
X124039358Y-73784167D01*
X123995613Y-73663316D01*
X123969125Y-73436823D01*
X123952000Y-73194333D01*
X123921166Y-72853632D01*
X123879794Y-72654312D01*
X123820436Y-72568449D01*
X123782667Y-72559333D01*
X123710463Y-72599600D01*
X123664495Y-72739998D01*
X123637050Y-73009921D01*
X123630434Y-73139489D01*
X123632908Y-73568402D01*
X123694949Y-73857498D01*
X123832370Y-74030545D01*
X124060985Y-74111310D01*
X124286571Y-74125667D01*
X124619940Y-74092907D01*
X124827192Y-73999991D01*
X124834953Y-73992619D01*
X124906307Y-73845465D01*
X124953623Y-73601095D01*
X124976715Y-73305215D01*
X124975394Y-73003533D01*
X124949475Y-72741754D01*
X124898768Y-72565587D01*
X124841000Y-72517000D01*
X124768841Y-72554557D01*
D12*
X116900000Y-77470000D02*
X116900000Y-95310000D01*
X116900000Y-95310000D02*
X114240000Y-95310000D01*
X137100000Y-77470000D02*
X139700000Y-77470000D01*
X83125000Y-77470000D02*
X85725000Y-77470000D01*
X62925000Y-95310000D02*
X60265000Y-95310000D01*
X62925000Y-77470000D02*
X62925000Y-95310000D01*
D11*
G36*
X70793841Y-72554557D02*
G01*
X70754233Y-72688382D01*
X70739634Y-72950200D01*
X70739000Y-73051151D01*
X70715039Y-73452938D01*
X70636158Y-73709339D01*
X70491865Y-73838370D01*
X70271665Y-73858045D01*
X70269158Y-73857763D01*
X70141745Y-73836581D01*
X70064358Y-73784167D01*
X70020613Y-73663316D01*
X69994125Y-73436823D01*
X69977000Y-73194333D01*
X69946166Y-72853632D01*
X69904794Y-72654312D01*
X69845436Y-72568449D01*
X69807667Y-72559333D01*
X69735463Y-72599600D01*
X69689495Y-72739998D01*
X69662050Y-73009921D01*
X69655434Y-73139489D01*
X69657908Y-73568402D01*
X69719949Y-73857498D01*
X69857370Y-74030545D01*
X70085985Y-74111310D01*
X70311571Y-74125667D01*
X70644940Y-74092907D01*
X70852192Y-73999991D01*
X70859953Y-73992619D01*
X70931307Y-73845465D01*
X70978623Y-73601095D01*
X71001715Y-73305215D01*
X71000394Y-73003533D01*
X70974475Y-72741754D01*
X70923768Y-72565587D01*
X70866000Y-72517000D01*
X70793841Y-72554557D01*
G37*
X70793841Y-72554557D02*
X70754233Y-72688382D01*
X70739634Y-72950200D01*
X70739000Y-73051151D01*
X70715039Y-73452938D01*
X70636158Y-73709339D01*
X70491865Y-73838370D01*
X70271665Y-73858045D01*
X70269158Y-73857763D01*
X70141745Y-73836581D01*
X70064358Y-73784167D01*
X70020613Y-73663316D01*
X69994125Y-73436823D01*
X69977000Y-73194333D01*
X69946166Y-72853632D01*
X69904794Y-72654312D01*
X69845436Y-72568449D01*
X69807667Y-72559333D01*
X69735463Y-72599600D01*
X69689495Y-72739998D01*
X69662050Y-73009921D01*
X69655434Y-73139489D01*
X69657908Y-73568402D01*
X69719949Y-73857498D01*
X69857370Y-74030545D01*
X70085985Y-74111310D01*
X70311571Y-74125667D01*
X70644940Y-74092907D01*
X70852192Y-73999991D01*
X70859953Y-73992619D01*
X70931307Y-73845465D01*
X70978623Y-73601095D01*
X71001715Y-73305215D01*
X71000394Y-73003533D01*
X70974475Y-72741754D01*
X70923768Y-72565587D01*
X70866000Y-72517000D01*
X70793841Y-72554557D01*
D12*
X85785000Y-77470000D02*
X85785000Y-95310000D01*
X62861500Y-74870000D02*
X60261500Y-74870000D01*
X60265000Y-95310000D02*
X62865000Y-97790000D01*
D11*
G36*
X70922662Y-70700051D02*
G01*
X70908333Y-70739000D01*
X70976910Y-70814114D01*
X71035333Y-70823667D01*
X71148005Y-70777949D01*
X71162333Y-70739000D01*
X71093757Y-70663885D01*
X71035333Y-70654333D01*
X70922662Y-70700051D01*
G37*
X70922662Y-70700051D02*
X70908333Y-70739000D01*
X70976910Y-70814114D01*
X71035333Y-70823667D01*
X71148005Y-70777949D01*
X71162333Y-70739000D01*
X71093757Y-70663885D01*
X71035333Y-70654333D01*
X70922662Y-70700051D01*
G36*
X70958745Y-71119473D02*
G01*
X70919314Y-71266170D01*
X70908333Y-71543333D01*
X70919735Y-71824158D01*
X70959743Y-71968738D01*
X71035333Y-72009000D01*
X71111922Y-71967193D01*
X71151353Y-71820497D01*
X71162333Y-71543333D01*
X71150932Y-71262508D01*
X71110924Y-71117928D01*
X71035333Y-71077667D01*
X70958745Y-71119473D01*
G37*
X70958745Y-71119473D02*
X70919314Y-71266170D01*
X70908333Y-71543333D01*
X70919735Y-71824158D01*
X70959743Y-71968738D01*
X71035333Y-72009000D01*
X71111922Y-71967193D01*
X71151353Y-71820497D01*
X71162333Y-71543333D01*
X71150932Y-71262508D01*
X71110924Y-71117928D01*
X71035333Y-71077667D01*
X70958745Y-71119473D01*
G36*
X68453000Y-72537421D02*
G01*
X68167724Y-72563947D01*
X68022350Y-72615314D01*
X67987333Y-72686333D01*
X68030886Y-72761883D01*
X68181053Y-72808973D01*
X68467102Y-72836023D01*
X68516500Y-72838540D01*
X68808931Y-72859117D01*
X68969471Y-72894502D01*
X69035555Y-72958172D01*
X69045667Y-73029040D01*
X69021171Y-73129914D01*
X68919818Y-73179254D01*
X68699809Y-73194032D01*
X68638516Y-73194333D01*
X68260669Y-73236145D01*
X68025418Y-73363800D01*
X67927490Y-73580622D01*
X67923833Y-73645175D01*
X67951186Y-73868507D01*
X68051597Y-74012148D01*
X68252599Y-74091791D01*
X68581724Y-74123132D01*
X68766756Y-74125667D01*
X69106696Y-74117612D01*
X69299252Y-74090932D01*
X69365722Y-74041849D01*
X69363533Y-74019833D01*
X69260111Y-73951811D01*
X69022507Y-73903562D01*
X68844150Y-73888479D01*
X68525673Y-73853766D01*
X68352213Y-73787226D01*
X68309335Y-73731767D01*
X68322038Y-73582841D01*
X68489546Y-73487734D01*
X68804933Y-73450094D01*
X68844800Y-73449630D01*
X69155078Y-73404596D01*
X69328247Y-73266348D01*
X69374088Y-73025915D01*
X69369285Y-72968582D01*
X69267899Y-72734084D01*
X69027002Y-72589833D01*
X68644377Y-72534785D01*
X68453000Y-72537421D01*
G37*
X68453000Y-72537421D02*
X68167724Y-72563947D01*
X68022350Y-72615314D01*
X67987333Y-72686333D01*
X68030886Y-72761883D01*
X68181053Y-72808973D01*
X68467102Y-72836023D01*
X68516500Y-72838540D01*
X68808931Y-72859117D01*
X68969471Y-72894502D01*
X69035555Y-72958172D01*
X69045667Y-73029040D01*
X69021171Y-73129914D01*
X68919818Y-73179254D01*
X68699809Y-73194032D01*
X68638516Y-73194333D01*
X68260669Y-73236145D01*
X68025418Y-73363800D01*
X67927490Y-73580622D01*
X67923833Y-73645175D01*
X67951186Y-73868507D01*
X68051597Y-74012148D01*
X68252599Y-74091791D01*
X68581724Y-74123132D01*
X68766756Y-74125667D01*
X69106696Y-74117612D01*
X69299252Y-74090932D01*
X69365722Y-74041849D01*
X69363533Y-74019833D01*
X69260111Y-73951811D01*
X69022507Y-73903562D01*
X68844150Y-73888479D01*
X68525673Y-73853766D01*
X68352213Y-73787226D01*
X68309335Y-73731767D01*
X68322038Y-73582841D01*
X68489546Y-73487734D01*
X68804933Y-73450094D01*
X68844800Y-73449630D01*
X69155078Y-73404596D01*
X69328247Y-73266348D01*
X69374088Y-73025915D01*
X69369285Y-72968582D01*
X69267899Y-72734084D01*
X69027002Y-72589833D01*
X68644377Y-72534785D01*
X68453000Y-72537421D01*
D12*
X62925000Y-77470000D02*
X60265000Y-77470000D01*
X60265000Y-77470000D02*
X60261500Y-74866500D01*
D11*
G36*
X71458667Y-71120000D02*
G01*
X71433076Y-71564500D01*
X71432789Y-71822991D01*
X71462212Y-71980458D01*
X71491707Y-72009000D01*
X71548687Y-71933521D01*
X71592222Y-71743767D01*
X71601965Y-71649897D01*
X71643272Y-71397456D01*
X71729043Y-71279184D01*
X71776167Y-71262689D01*
X71868168Y-71272547D01*
X71912359Y-71373213D01*
X71924302Y-71602408D01*
X71924333Y-71621792D01*
X71940443Y-71875160D01*
X71995383Y-71991926D01*
X72051333Y-72009000D01*
X72135041Y-71959138D01*
X72173170Y-71789597D01*
X72178333Y-71628000D01*
X72194954Y-71376878D01*
X72251468Y-71262492D01*
X72305333Y-71247000D01*
X72389041Y-71296862D01*
X72427170Y-71466403D01*
X72432333Y-71628000D01*
X72448954Y-71879122D01*
X72505468Y-71993508D01*
X72559333Y-72009000D01*
X72635657Y-71967463D01*
X72675111Y-71821567D01*
X72686333Y-71539624D01*
X72686333Y-71070248D01*
X71458667Y-71120000D01*
G37*
X71458667Y-71120000D02*
X71433076Y-71564500D01*
X71432789Y-71822991D01*
X71462212Y-71980458D01*
X71491707Y-72009000D01*
X71548687Y-71933521D01*
X71592222Y-71743767D01*
X71601965Y-71649897D01*
X71643272Y-71397456D01*
X71729043Y-71279184D01*
X71776167Y-71262689D01*
X71868168Y-71272547D01*
X71912359Y-71373213D01*
X71924302Y-71602408D01*
X71924333Y-71621792D01*
X71940443Y-71875160D01*
X71995383Y-71991926D01*
X72051333Y-72009000D01*
X72135041Y-71959138D01*
X72173170Y-71789597D01*
X72178333Y-71628000D01*
X72194954Y-71376878D01*
X72251468Y-71262492D01*
X72305333Y-71247000D01*
X72389041Y-71296862D01*
X72427170Y-71466403D01*
X72432333Y-71628000D01*
X72448954Y-71879122D01*
X72505468Y-71993508D01*
X72559333Y-72009000D01*
X72635657Y-71967463D01*
X72675111Y-71821567D01*
X72686333Y-71539624D01*
X72686333Y-71070248D01*
X71458667Y-71120000D01*
G36*
X71812530Y-72550862D02*
G01*
X71504313Y-72652545D01*
X71350648Y-72822196D01*
X71331667Y-72931682D01*
X71363612Y-73136558D01*
X71423711Y-73252510D01*
X71469966Y-73354710D01*
X71423711Y-73401440D01*
X71350639Y-73530628D01*
X71336363Y-73736763D01*
X71379633Y-73938461D01*
X71433267Y-74024067D01*
X71572840Y-74079479D01*
X71835217Y-74115479D01*
X72110600Y-74125667D01*
X72686333Y-74125667D01*
X72686333Y-73660000D01*
X72347667Y-73660000D01*
X72331772Y-73803971D01*
X72251363Y-73859825D01*
X72057357Y-73857803D01*
X72030167Y-73855611D01*
X71814111Y-73818296D01*
X71723987Y-73737425D01*
X71712667Y-73660000D01*
X71749103Y-73541754D01*
X71886751Y-73482296D01*
X72030167Y-73464389D01*
X72238057Y-73458292D01*
X72327501Y-73507083D01*
X72347584Y-73641005D01*
X72347667Y-73660000D01*
X72686333Y-73660000D01*
X72686333Y-73025000D01*
X72347667Y-73025000D01*
X72319267Y-73135784D01*
X72204478Y-73184746D01*
X72009000Y-73194333D01*
X71787432Y-73180133D01*
X71689508Y-73122739D01*
X71670333Y-73025000D01*
X71698734Y-72914216D01*
X71813523Y-72865254D01*
X72009000Y-72855667D01*
X72230568Y-72869867D01*
X72328493Y-72927261D01*
X72347667Y-73025000D01*
X72686333Y-73025000D01*
X72686333Y-72517000D01*
X72275634Y-72517000D01*
X71812530Y-72550862D01*
G37*
X71812530Y-72550862D02*
X71504313Y-72652545D01*
X71350648Y-72822196D01*
X71331667Y-72931682D01*
X71363612Y-73136558D01*
X71423711Y-73252510D01*
X71469966Y-73354710D01*
X71423711Y-73401440D01*
X71350639Y-73530628D01*
X71336363Y-73736763D01*
X71379633Y-73938461D01*
X71433267Y-74024067D01*
X71572840Y-74079479D01*
X71835217Y-74115479D01*
X72110600Y-74125667D01*
X72686333Y-74125667D01*
X72686333Y-73660000D01*
X72347667Y-73660000D01*
X72331772Y-73803971D01*
X72251363Y-73859825D01*
X72057357Y-73857803D01*
X72030167Y-73855611D01*
X71814111Y-73818296D01*
X71723987Y-73737425D01*
X71712667Y-73660000D01*
X71749103Y-73541754D01*
X71886751Y-73482296D01*
X72030167Y-73464389D01*
X72238057Y-73458292D01*
X72327501Y-73507083D01*
X72347584Y-73641005D01*
X72347667Y-73660000D01*
X72686333Y-73660000D01*
X72686333Y-73025000D01*
X72347667Y-73025000D01*
X72319267Y-73135784D01*
X72204478Y-73184746D01*
X72009000Y-73194333D01*
X71787432Y-73180133D01*
X71689508Y-73122739D01*
X71670333Y-73025000D01*
X71698734Y-72914216D01*
X71813523Y-72865254D01*
X72009000Y-72855667D01*
X72230568Y-72869867D01*
X72328493Y-72927261D01*
X72347667Y-73025000D01*
X72686333Y-73025000D01*
X72686333Y-72517000D01*
X72275634Y-72517000D01*
X71812530Y-72550862D01*
G36*
X74633996Y-70698454D02*
G01*
X74506667Y-70773547D01*
X74342299Y-70961315D01*
X74291079Y-71195567D01*
X74356496Y-71414737D01*
X74464333Y-71520649D01*
X74584168Y-71652996D01*
X74631049Y-71880781D01*
X74633667Y-71982808D01*
X74633667Y-72339216D01*
X74146833Y-72364608D01*
X73660000Y-72390000D01*
X73633380Y-72812121D01*
X73568270Y-73179962D01*
X73442880Y-73386919D01*
X73308753Y-73602710D01*
X73297071Y-73842060D01*
X73391453Y-74054172D01*
X73575522Y-74188253D01*
X73708381Y-74210333D01*
X73900167Y-74145320D01*
X74085260Y-73990528D01*
X74199146Y-73806327D01*
X74210333Y-73740624D01*
X74152181Y-73596741D01*
X74010964Y-73425032D01*
X73998667Y-73413415D01*
X73843962Y-73210444D01*
X73788806Y-72946989D01*
X73787000Y-72867124D01*
X73787000Y-72517000D01*
X75649667Y-72517000D01*
X75649667Y-72867124D01*
X75613638Y-73156416D01*
X75485271Y-73366620D01*
X75438000Y-73413415D01*
X75292645Y-73584128D01*
X75226689Y-73732681D01*
X75226334Y-73740624D01*
X75295809Y-73920090D01*
X75461227Y-74093294D01*
X75658072Y-74199864D01*
X75728286Y-74210333D01*
X75956519Y-74141067D01*
X76101193Y-73967102D01*
X76145899Y-73739187D01*
X76074229Y-73508072D01*
X75988333Y-73406000D01*
X75860834Y-73208761D01*
X75819096Y-72904453D01*
X75819000Y-72884878D01*
X75819000Y-72517000D01*
X77681667Y-72517000D01*
X77681667Y-72864648D01*
X77651910Y-73133858D01*
X77542368Y-73314954D01*
X77470000Y-73378793D01*
X77297740Y-73597679D01*
X77274164Y-73839384D01*
X77402831Y-74060607D01*
X77413167Y-74070211D01*
X77655219Y-74196614D01*
X77900317Y-74167153D01*
X78049545Y-74055500D01*
X78176682Y-73813302D01*
X78140101Y-73569605D01*
X77978000Y-73378793D01*
X77846340Y-73244429D01*
X77783242Y-73071975D01*
X77766365Y-72798222D01*
X77766333Y-72779981D01*
X77766333Y-72347667D01*
X76835000Y-72347667D01*
X76835000Y-71985483D01*
X76871782Y-71682487D01*
X76992204Y-71489069D01*
X77004333Y-71478312D01*
X77152238Y-71258586D01*
X77151337Y-71016863D01*
X77005015Y-70805386D01*
X76958532Y-70771275D01*
X76704677Y-70688679D01*
X76472189Y-70755002D01*
X76307215Y-70951653D01*
X76274182Y-71046964D01*
X76262687Y-71236605D01*
X76362691Y-71396400D01*
X76441180Y-71469115D01*
X76602506Y-71658956D01*
X76662321Y-71898755D01*
X76665667Y-72004939D01*
X76665667Y-72347667D01*
X74803000Y-72347667D01*
X74803000Y-71987033D01*
X74829387Y-71717217D01*
X74920864Y-71559307D01*
X74972333Y-71520649D01*
X75116095Y-71344768D01*
X75140935Y-71113451D01*
X75050340Y-70888262D01*
X74930000Y-70773547D01*
X74764291Y-70683965D01*
X74633996Y-70698454D01*
G37*
X74633996Y-70698454D02*
X74506667Y-70773547D01*
X74342299Y-70961315D01*
X74291079Y-71195567D01*
X74356496Y-71414737D01*
X74464333Y-71520649D01*
X74584168Y-71652996D01*
X74631049Y-71880781D01*
X74633667Y-71982808D01*
X74633667Y-72339216D01*
X74146833Y-72364608D01*
X73660000Y-72390000D01*
X73633380Y-72812121D01*
X73568270Y-73179962D01*
X73442880Y-73386919D01*
X73308753Y-73602710D01*
X73297071Y-73842060D01*
X73391453Y-74054172D01*
X73575522Y-74188253D01*
X73708381Y-74210333D01*
X73900167Y-74145320D01*
X74085260Y-73990528D01*
X74199146Y-73806327D01*
X74210333Y-73740624D01*
X74152181Y-73596741D01*
X74010964Y-73425032D01*
X73998667Y-73413415D01*
X73843962Y-73210444D01*
X73788806Y-72946989D01*
X73787000Y-72867124D01*
X73787000Y-72517000D01*
X75649667Y-72517000D01*
X75649667Y-72867124D01*
X75613638Y-73156416D01*
X75485271Y-73366620D01*
X75438000Y-73413415D01*
X75292645Y-73584128D01*
X75226689Y-73732681D01*
X75226334Y-73740624D01*
X75295809Y-73920090D01*
X75461227Y-74093294D01*
X75658072Y-74199864D01*
X75728286Y-74210333D01*
X75956519Y-74141067D01*
X76101193Y-73967102D01*
X76145899Y-73739187D01*
X76074229Y-73508072D01*
X75988333Y-73406000D01*
X75860834Y-73208761D01*
X75819096Y-72904453D01*
X75819000Y-72884878D01*
X75819000Y-72517000D01*
X77681667Y-72517000D01*
X77681667Y-72864648D01*
X77651910Y-73133858D01*
X77542368Y-73314954D01*
X77470000Y-73378793D01*
X77297740Y-73597679D01*
X77274164Y-73839384D01*
X77402831Y-74060607D01*
X77413167Y-74070211D01*
X77655219Y-74196614D01*
X77900317Y-74167153D01*
X78049545Y-74055500D01*
X78176682Y-73813302D01*
X78140101Y-73569605D01*
X77978000Y-73378793D01*
X77846340Y-73244429D01*
X77783242Y-73071975D01*
X77766365Y-72798222D01*
X77766333Y-72779981D01*
X77766333Y-72347667D01*
X76835000Y-72347667D01*
X76835000Y-71985483D01*
X76871782Y-71682487D01*
X76992204Y-71489069D01*
X77004333Y-71478312D01*
X77152238Y-71258586D01*
X77151337Y-71016863D01*
X77005015Y-70805386D01*
X76958532Y-70771275D01*
X76704677Y-70688679D01*
X76472189Y-70755002D01*
X76307215Y-70951653D01*
X76274182Y-71046964D01*
X76262687Y-71236605D01*
X76362691Y-71396400D01*
X76441180Y-71469115D01*
X76602506Y-71658956D01*
X76662321Y-71898755D01*
X76665667Y-72004939D01*
X76665667Y-72347667D01*
X74803000Y-72347667D01*
X74803000Y-71987033D01*
X74829387Y-71717217D01*
X74920864Y-71559307D01*
X74972333Y-71520649D01*
X75116095Y-71344768D01*
X75140935Y-71113451D01*
X75050340Y-70888262D01*
X74930000Y-70773547D01*
X74764291Y-70683965D01*
X74633996Y-70698454D01*
G36*
X69321538Y-71093722D02*
G01*
X69080231Y-71145673D01*
X68979399Y-71256079D01*
X68976663Y-71268167D01*
X69009563Y-71394202D01*
X69081792Y-71416333D01*
X69198392Y-71372480D01*
X69215000Y-71331667D01*
X69279429Y-71249460D01*
X69299667Y-71247000D01*
X69350160Y-71322674D01*
X69380449Y-71514138D01*
X69384333Y-71628000D01*
X69400954Y-71879122D01*
X69457468Y-71993508D01*
X69511333Y-72009000D01*
X69587558Y-71967564D01*
X69627020Y-71821967D01*
X69638333Y-71540277D01*
X69638333Y-71067445D01*
X69321538Y-71093722D01*
G37*
X69321538Y-71093722D02*
X69080231Y-71145673D01*
X68979399Y-71256079D01*
X68976663Y-71268167D01*
X69009563Y-71394202D01*
X69081792Y-71416333D01*
X69198392Y-71372480D01*
X69215000Y-71331667D01*
X69279429Y-71249460D01*
X69299667Y-71247000D01*
X69350160Y-71322674D01*
X69380449Y-71514138D01*
X69384333Y-71628000D01*
X69400954Y-71879122D01*
X69457468Y-71993508D01*
X69511333Y-72009000D01*
X69587558Y-71967564D01*
X69627020Y-71821967D01*
X69638333Y-71540277D01*
X69638333Y-71067445D01*
X69321538Y-71093722D01*
D12*
X83125000Y-77470000D02*
X83121500Y-74866500D01*
X85785000Y-74870000D02*
X83121500Y-74870000D01*
D11*
G36*
X68101313Y-71142681D02*
G01*
X67926884Y-71307672D01*
X67860601Y-71527565D01*
X67922339Y-71757281D01*
X68015167Y-71868878D01*
X68236683Y-71984204D01*
X68484636Y-71996721D01*
X68685328Y-71905059D01*
X68707217Y-71881739D01*
X68790745Y-71698791D01*
X68812833Y-71543333D01*
X68802741Y-71501472D01*
X68595073Y-71501472D01*
X68565025Y-71675752D01*
X68543557Y-71705570D01*
X68414727Y-71823061D01*
X68286625Y-71807917D01*
X68212759Y-71765295D01*
X68127182Y-71633083D01*
X68135257Y-71461107D01*
X68220629Y-71324210D01*
X68316773Y-71289333D01*
X68501317Y-71352467D01*
X68595073Y-71501472D01*
X68802741Y-71501472D01*
X68747289Y-71271473D01*
X68561345Y-71112668D01*
X68364014Y-71077666D01*
X68101313Y-71142681D01*
G37*
X68101313Y-71142681D02*
X67926884Y-71307672D01*
X67860601Y-71527565D01*
X67922339Y-71757281D01*
X68015167Y-71868878D01*
X68236683Y-71984204D01*
X68484636Y-71996721D01*
X68685328Y-71905059D01*
X68707217Y-71881739D01*
X68790745Y-71698791D01*
X68812833Y-71543333D01*
X68802741Y-71501472D01*
X68595073Y-71501472D01*
X68565025Y-71675752D01*
X68543557Y-71705570D01*
X68414727Y-71823061D01*
X68286625Y-71807917D01*
X68212759Y-71765295D01*
X68127182Y-71633083D01*
X68135257Y-71461107D01*
X68220629Y-71324210D01*
X68316773Y-71289333D01*
X68501317Y-71352467D01*
X68595073Y-71501472D01*
X68802741Y-71501472D01*
X68747289Y-71271473D01*
X68561345Y-71112668D01*
X68364014Y-71077666D01*
X68101313Y-71142681D01*
D12*
X60265000Y-77470000D02*
X60265000Y-95310000D01*
X62925000Y-77470000D02*
X62925000Y-74870000D01*
D11*
G36*
X70445040Y-70702469D02*
G01*
X70406535Y-70867284D01*
X70400333Y-71050092D01*
X70400333Y-71445850D01*
X70204377Y-71261758D01*
X70014147Y-71113621D01*
X69898007Y-71079010D01*
X69877684Y-71152498D01*
X69969059Y-71320514D01*
X70079515Y-71487418D01*
X70092258Y-71585662D01*
X70008295Y-71684166D01*
X69974824Y-71714636D01*
X69849728Y-71852065D01*
X69807667Y-71937455D01*
X69861125Y-72010550D01*
X69989870Y-71983546D01*
X70146462Y-71873013D01*
X70218525Y-71793963D01*
X70335637Y-71652679D01*
X70387295Y-71639174D01*
X70412483Y-71747937D01*
X70415170Y-71766164D01*
X70479378Y-71929526D01*
X70548500Y-71988257D01*
X70604001Y-71959889D01*
X70637552Y-71816001D01*
X70652633Y-71535238D01*
X70654333Y-71338722D01*
X70648452Y-70989122D01*
X70627099Y-70778593D01*
X70584714Y-70677162D01*
X70527333Y-70654333D01*
X70445040Y-70702469D01*
G37*
X70445040Y-70702469D02*
X70406535Y-70867284D01*
X70400333Y-71050092D01*
X70400333Y-71445850D01*
X70204377Y-71261758D01*
X70014147Y-71113621D01*
X69898007Y-71079010D01*
X69877684Y-71152498D01*
X69969059Y-71320514D01*
X70079515Y-71487418D01*
X70092258Y-71585662D01*
X70008295Y-71684166D01*
X69974824Y-71714636D01*
X69849728Y-71852065D01*
X69807667Y-71937455D01*
X69861125Y-72010550D01*
X69989870Y-71983546D01*
X70146462Y-71873013D01*
X70218525Y-71793963D01*
X70335637Y-71652679D01*
X70387295Y-71639174D01*
X70412483Y-71747937D01*
X70415170Y-71766164D01*
X70479378Y-71929526D01*
X70548500Y-71988257D01*
X70604001Y-71959889D01*
X70637552Y-71816001D01*
X70652633Y-71535238D01*
X70654333Y-71338722D01*
X70648452Y-70989122D01*
X70627099Y-70778593D01*
X70584714Y-70677162D01*
X70527333Y-70654333D01*
X70445040Y-70702469D01*
D12*
X84455000Y-99060000D02*
G75*
G03X86995000Y-96520000I0J2540000D01*
G01*
X86995000Y-73025000D02*
G75*
G03X84455000Y-70485000I-2540000J0D01*
G01*
X61595000Y-70485000D02*
G75*
G03X59055000Y-73025000I0J-2540000D01*
G01*
X59055000Y-96520000D02*
X59055000Y-73025000D01*
X59055000Y-96520000D02*
G75*
G03X61595000Y-99060000I2540000J0D01*
G01*
X85785000Y-77470000D02*
X85785000Y-74870000D01*
X84455000Y-99060000D02*
X61595000Y-99060000D01*
X86995000Y-96520000D02*
X86995000Y-73025000D01*
X83125000Y-77470000D02*
X83125000Y-95310000D01*
X85785000Y-95310000D02*
X83125000Y-95310000D01*
M02*
