M48
; DRILL file {KiCad (5.1.5)-3} date 1.7.2020. 12:58:19
; FORMAT={-:-/ absolute / inch / decimal}
; #@! TF.CreationDate,2020-07-01T12:58:19+02:00
; #@! TF.GenerationSoftware,Kicad,Pcbnew,(5.1.5)-3
; #@! TF.FileFunction,Plated,1,2,PTH
FMAT,2
INCH
T1C0.0157
T2C0.0315
T3C0.0394
T4C0.0591
T5C0.1339
%
G90
G05
T1
X2.12Y-3.65
X2.37Y-5.59
X2.42Y-5.29
X2.64Y-4.68
X2.68Y-4.49
X2.7Y-3.59
X2.85Y-3.1
X2.85Y-3.55
X2.9615Y-4.5168
X2.9615Y-4.7668
X3.09Y-3.6
X3.19Y-5.39
X3.325Y-2.875
X3.36Y-5.2
X3.36Y-5.6
X3.41Y-5.34
X3.44Y-4.48
X3.54Y-2.98
X3.6Y-3.225
X3.65Y-2.8
X3.725Y-3.275
X3.7577Y-3.0506
X3.76Y-4.16
X3.81Y-5.25
X3.82Y-4.54
X3.87Y-4.73
X3.87Y-5.31
X3.95Y-5.08
X3.96Y-4.12
X3.96Y-4.24
X3.98Y-2.99
X3.98Y-3.73
X4.01Y-4.98
X4.03Y-4.12
X4.03Y-4.29
X4.06Y-4.89
X4.09Y-4.12
X4.1Y-3.2
X4.1494Y-3.0506
X4.15Y-3.73
X4.15Y-4.12
X4.28Y-3.24
X4.7Y-3.8
X4.74Y-4.81
X4.82Y-4.81
X4.8904Y-4.81
X5.01Y-4.81
X5.02Y-4.2
X5.11Y-3.58
X5.11Y-4.2
X5.14Y-4.69
X5.2Y-3.58
X5.2Y-4.2
X5.26Y-4.81
X5.27Y-3.99
X5.27Y-4.2
X5.34Y-4.2
X5.44Y-4.2
X5.44Y-4.93
X5.48Y-4.83
X5.56Y-4.83
T2
X3.65Y-3.38
X3.65Y-3.48
X3.65Y-3.58
X3.65Y-3.68
X3.65Y-3.78
X3.65Y-3.88
X3.65Y-3.98
X3.65Y-4.08
X3.65Y-4.18
X3.65Y-4.28
X3.65Y-4.38
X3.65Y-4.48
X3.65Y-4.58
X3.65Y-4.68
X3.65Y-4.78
X3.65Y-4.88
X3.65Y-4.98
X3.65Y-5.08
X3.65Y-5.18
X3.65Y-5.28
X4.25Y-3.38
X4.25Y-3.48
X4.25Y-3.58
X4.25Y-3.68
X4.25Y-3.78
X4.25Y-3.88
X4.25Y-3.98
X4.25Y-4.08
X4.25Y-4.18
X4.25Y-4.28
X4.25Y-4.38
X4.25Y-4.48
X4.25Y-4.58
X4.25Y-4.68
X4.25Y-4.78
X4.25Y-4.88
X4.25Y-4.98
X4.25Y-5.08
X4.25Y-5.18
X4.25Y-5.28
T3
X2.425Y-3.0
X2.425Y-3.1
X2.425Y-3.2
X2.425Y-3.3
X2.425Y-3.4
X2.425Y-3.5
X2.425Y-3.6
X2.425Y-3.7
X3.325Y-3.0
X3.325Y-3.1
X3.325Y-3.2
X3.325Y-3.3
X3.325Y-3.4
X3.325Y-3.5
X3.325Y-3.6
X3.325Y-3.7
X4.6225Y-5.675
X4.7225Y-5.675
X4.8225Y-5.675
X4.9225Y-5.675
X5.0225Y-5.675
X5.1225Y-5.675
X5.2225Y-5.675
X5.3225Y-5.675
X2.55Y-5.825
X2.65Y-5.825
X2.75Y-5.825
X2.85Y-5.825
X2.95Y-5.825
X3.05Y-5.825
X3.15Y-5.825
X3.25Y-5.825
X4.6219Y-5.825
X4.7219Y-5.825
X4.8219Y-5.825
X4.9219Y-5.825
X5.0219Y-5.825
X5.1219Y-5.825
X5.2219Y-5.825
X5.3219Y-5.825
X5.6701Y-4.05
X5.6701Y-4.15
X5.6701Y-4.25
X5.6701Y-4.35
X5.6701Y-4.45
X5.6701Y-4.55
X5.6701Y-4.65
X5.6701Y-4.75
X2.2Y-5.025
X2.2Y-5.125
X2.2Y-5.225
X2.2Y-5.325
X5.825Y-4.05
X5.825Y-4.15
X5.825Y-4.25
X5.825Y-4.35
X5.825Y-4.45
X5.825Y-4.55
X5.825Y-4.65
X5.825Y-4.75
X2.2Y-4.05
X2.2Y-4.15
X2.2Y-4.25
X2.2Y-4.35
X2.2Y-4.45
X2.2Y-4.55
X2.2Y-4.65
X2.2Y-4.75
X5.825Y-4.925
X5.825Y-5.025
X5.825Y-5.125
X5.825Y-5.225
X5.825Y-5.325
X2.55Y-5.675
X2.65Y-5.675
X2.75Y-5.675
X2.85Y-5.675
X2.95Y-5.675
X3.05Y-5.675
X3.15Y-5.675
X3.25Y-5.675
X4.55Y-3.0
X4.55Y-3.1
X4.55Y-3.2
X4.55Y-3.3
X4.55Y-3.4
X4.55Y-3.5
X4.55Y-3.6
X4.55Y-3.7
X5.45Y-3.0
X5.45Y-3.1
X5.45Y-3.2
X5.45Y-3.3
X5.45Y-3.4
X5.45Y-3.5
X5.45Y-3.6
X5.45Y-3.7
X2.05Y-5.025
X2.05Y-5.125
X2.05Y-5.225
X2.05Y-5.325
X2.05Y-4.05
X2.05Y-4.15
X2.05Y-4.25
X2.05Y-4.35
X2.05Y-4.45
X2.05Y-4.55
X2.05Y-4.65
X2.05Y-4.75
T4
X3.64Y-5.69
X3.84Y-5.69
X4.04Y-5.69
X4.24Y-5.69
T5
X5.7087Y-5.7087
X2.1654Y-5.7087
X2.1654Y-2.9528
X5.7087Y-2.9528
T0
M30
